<?xml version="1.0" encoding="utf-8" standalone="no"?>
<!DOCTYPE svg PUBLIC "-//W3C//DTD SVG 1.1//EN"
  "http://www.w3.org/Graphics/SVG/1.1/DTD/svg11.dtd">
<svg xmlns:xlink="http://www.w3.org/1999/xlink" width="460.8pt" height="345.6pt" viewBox="0 0 460.8 345.6" xmlns="http://www.w3.org/2000/svg" version="1.1">
 <metadata>
  <rdf:RDF xmlns:dc="http://purl.org/dc/elements/1.1/" xmlns:cc="http://creativecommons.org/ns#" xmlns:rdf="http://www.w3.org/1999/02/22-rdf-syntax-ns#">
   <cc:Work>
    <dc:type rdf:resource="http://purl.org/dc/dcmitype/StillImage"/>
    <dc:date>2024-11-16T21:55:19.071224</dc:date>
    <dc:format>image/svg+xml</dc:format>
    <dc:creator>
     <cc:Agent>
      <dc:title>Matplotlib v3.9.2, https://matplotlib.org/</dc:title>
     </cc:Agent>
    </dc:creator>
   </cc:Work>
  </rdf:RDF>
 </metadata>
 <defs>
  <style type="text/css">*{stroke-linejoin: round; stroke-linecap: butt}</style>
 </defs>
 <g id="figure_1">
  <g id="patch_1">
   <path d="M 0 345.6 
L 460.8 345.6 
L 460.8 0 
L 0 0 
z
" style="fill: #ffffff"/>
  </g>
  <g id="axes_1">
   <g id="patch_2">
    <path d="M 57.6 307.584 
L 414.72 307.584 
L 414.72 41.472 
L 57.6 41.472 
z
" style="fill: #ffffff"/>
   </g>
   <g id="QuadMesh_1">
    <path d="M 57.6 307.584 
L 67.52 307.584 
L 67.52 278.016 
L 57.6 278.016 
L 57.6 307.584 
" clip-path="url(#pc4b95cfebf)" style="fill: none"/>
    <path d="M 67.52 307.584 
L 77.44 307.584 
L 77.44 278.016 
L 67.52 278.016 
L 67.52 307.584 
" clip-path="url(#pc4b95cfebf)" style="fill: none"/>
    <path d="M 77.44 307.584 
L 87.36 307.584 
L 87.36 278.016 
L 77.44 278.016 
L 77.44 307.584 
" clip-path="url(#pc4b95cfebf)" style="fill: none"/>
    <path d="M 87.36 307.584 
L 97.28 307.584 
L 97.28 278.016 
L 87.36 278.016 
L 87.36 307.584 
" clip-path="url(#pc4b95cfebf)" style="fill: none"/>
    <path d="M 97.28 307.584 
L 107.2 307.584 
L 107.2 278.016 
L 97.28 278.016 
L 97.28 307.584 
" clip-path="url(#pc4b95cfebf)" style="fill: none"/>
    <path d="M 107.2 307.584 
L 117.12 307.584 
L 117.12 278.016 
L 107.2 278.016 
L 107.2 307.584 
" clip-path="url(#pc4b95cfebf)" style="fill: none"/>
    <path d="M 117.12 307.584 
L 127.04 307.584 
L 127.04 278.016 
L 117.12 278.016 
L 117.12 307.584 
" clip-path="url(#pc4b95cfebf)" style="fill: none"/>
    <path d="M 127.04 307.584 
L 136.96 307.584 
L 136.96 278.016 
L 127.04 278.016 
L 127.04 307.584 
" clip-path="url(#pc4b95cfebf)" style="fill: none"/>
    <path d="M 136.96 307.584 
L 146.88 307.584 
L 146.88 278.016 
L 136.96 278.016 
L 136.96 307.584 
" clip-path="url(#pc4b95cfebf)" style="fill: none"/>
    <path d="M 146.88 307.584 
L 156.8 307.584 
L 156.8 278.016 
L 146.88 278.016 
L 146.88 307.584 
" clip-path="url(#pc4b95cfebf)" style="fill: none"/>
    <path d="M 156.8 307.584 
L 166.72 307.584 
L 166.72 278.016 
L 156.8 278.016 
L 156.8 307.584 
" clip-path="url(#pc4b95cfebf)" style="fill: none"/>
    <path d="M 166.72 307.584 
L 176.64 307.584 
L 176.64 278.016 
L 166.72 278.016 
L 166.72 307.584 
" clip-path="url(#pc4b95cfebf)" style="fill: none"/>
    <path d="M 176.64 307.584 
L 186.56 307.584 
L 186.56 278.016 
L 176.64 278.016 
L 176.64 307.584 
" clip-path="url(#pc4b95cfebf)" style="fill: none"/>
    <path d="M 186.56 307.584 
L 196.48 307.584 
L 196.48 278.016 
L 186.56 278.016 
L 186.56 307.584 
" clip-path="url(#pc4b95cfebf)" style="fill: none"/>
    <path d="M 196.48 307.584 
L 206.4 307.584 
L 206.4 278.016 
L 196.48 278.016 
L 196.48 307.584 
" clip-path="url(#pc4b95cfebf)" style="fill: none"/>
    <path d="M 206.4 307.584 
L 216.32 307.584 
L 216.32 278.016 
L 206.4 278.016 
L 206.4 307.584 
" clip-path="url(#pc4b95cfebf)" style="fill: none"/>
    <path d="M 216.32 307.584 
L 226.24 307.584 
L 226.24 278.016 
L 216.32 278.016 
L 216.32 307.584 
" clip-path="url(#pc4b95cfebf)" style="fill: none"/>
    <path d="M 226.24 307.584 
L 236.16 307.584 
L 236.16 278.016 
L 226.24 278.016 
L 226.24 307.584 
" clip-path="url(#pc4b95cfebf)" style="fill: none"/>
    <path d="M 236.16 307.584 
L 246.08 307.584 
L 246.08 278.016 
L 236.16 278.016 
L 236.16 307.584 
" clip-path="url(#pc4b95cfebf)" style="fill: none"/>
    <path d="M 246.08 307.584 
L 256 307.584 
L 256 278.016 
L 246.08 278.016 
L 246.08 307.584 
" clip-path="url(#pc4b95cfebf)" style="fill: none"/>
    <path d="M 256 307.584 
L 265.92 307.584 
L 265.92 278.016 
L 256 278.016 
L 256 307.584 
" clip-path="url(#pc4b95cfebf)" style="fill: none"/>
    <path d="M 265.92 307.584 
L 275.84 307.584 
L 275.84 278.016 
L 265.92 278.016 
L 265.92 307.584 
" clip-path="url(#pc4b95cfebf)" style="fill: none"/>
    <path d="M 275.84 307.584 
L 285.76 307.584 
L 285.76 278.016 
L 275.84 278.016 
L 275.84 307.584 
" clip-path="url(#pc4b95cfebf)" style="fill: none"/>
    <path d="M 285.76 307.584 
L 295.68 307.584 
L 295.68 278.016 
L 285.76 278.016 
L 285.76 307.584 
" clip-path="url(#pc4b95cfebf)" style="fill: none"/>
    <path d="M 295.68 307.584 
L 305.6 307.584 
L 305.6 278.016 
L 295.68 278.016 
L 295.68 307.584 
" clip-path="url(#pc4b95cfebf)" style="fill: none"/>
    <path d="M 305.6 307.584 
L 315.52 307.584 
L 315.52 278.016 
L 305.6 278.016 
L 305.6 307.584 
" clip-path="url(#pc4b95cfebf)" style="fill: none"/>
    <path d="M 315.52 307.584 
L 325.44 307.584 
L 325.44 278.016 
L 315.52 278.016 
L 315.52 307.584 
" clip-path="url(#pc4b95cfebf)" style="fill: none"/>
    <path d="M 325.44 307.584 
L 335.36 307.584 
L 335.36 278.016 
L 325.44 278.016 
L 325.44 307.584 
" clip-path="url(#pc4b95cfebf)" style="fill: none"/>
    <path d="M 335.36 307.584 
L 345.28 307.584 
L 345.28 278.016 
L 335.36 278.016 
L 335.36 307.584 
" clip-path="url(#pc4b95cfebf)" style="fill: none"/>
    <path d="M 345.28 307.584 
L 355.2 307.584 
L 355.2 278.016 
L 345.28 278.016 
L 345.28 307.584 
" clip-path="url(#pc4b95cfebf)" style="fill: none"/>
    <path d="M 355.2 307.584 
L 365.12 307.584 
L 365.12 278.016 
L 355.2 278.016 
L 355.2 307.584 
" clip-path="url(#pc4b95cfebf)" style="fill: none"/>
    <path d="M 365.12 307.584 
L 375.04 307.584 
L 375.04 278.016 
L 365.12 278.016 
L 365.12 307.584 
" clip-path="url(#pc4b95cfebf)" style="fill: none"/>
    <path d="M 375.04 307.584 
L 384.96 307.584 
L 384.96 278.016 
L 375.04 278.016 
L 375.04 307.584 
" clip-path="url(#pc4b95cfebf)" style="fill: none"/>
    <path d="M 384.96 307.584 
L 394.88 307.584 
L 394.88 278.016 
L 384.96 278.016 
L 384.96 307.584 
" clip-path="url(#pc4b95cfebf)" style="fill: none"/>
    <path d="M 394.88 307.584 
L 404.8 307.584 
L 404.8 278.016 
L 394.88 278.016 
L 394.88 307.584 
" clip-path="url(#pc4b95cfebf)" style="fill: none"/>
    <path d="M 404.8 307.584 
L 414.72 307.584 
L 414.72 278.016 
L 404.8 278.016 
L 404.8 307.584 
" clip-path="url(#pc4b95cfebf)" style="fill: none"/>
    <path d="M 57.6 278.016 
L 67.52 278.016 
L 67.52 248.448 
L 57.6 248.448 
L 57.6 278.016 
" clip-path="url(#pc4b95cfebf)" style="fill: none"/>
    <path d="M 67.52 278.016 
L 77.44 278.016 
L 77.44 248.448 
L 67.52 248.448 
L 67.52 278.016 
" clip-path="url(#pc4b95cfebf)" style="fill: none"/>
    <path d="M 77.44 278.016 
L 87.36 278.016 
L 87.36 248.448 
L 77.44 248.448 
L 77.44 278.016 
" clip-path="url(#pc4b95cfebf)" style="fill: none"/>
    <path d="M 87.36 278.016 
L 97.28 278.016 
L 97.28 248.448 
L 87.36 248.448 
L 87.36 278.016 
" clip-path="url(#pc4b95cfebf)" style="fill: none"/>
    <path d="M 97.28 278.016 
L 107.2 278.016 
L 107.2 248.448 
L 97.28 248.448 
L 97.28 278.016 
" clip-path="url(#pc4b95cfebf)" style="fill: none"/>
    <path d="M 107.2 278.016 
L 117.12 278.016 
L 117.12 248.448 
L 107.2 248.448 
L 107.2 278.016 
" clip-path="url(#pc4b95cfebf)" style="fill: none"/>
    <path d="M 117.12 278.016 
L 127.04 278.016 
L 127.04 248.448 
L 117.12 248.448 
L 117.12 278.016 
" clip-path="url(#pc4b95cfebf)" style="fill: none"/>
    <path d="M 127.04 278.016 
L 136.96 278.016 
L 136.96 248.448 
L 127.04 248.448 
L 127.04 278.016 
" clip-path="url(#pc4b95cfebf)" style="fill: none"/>
    <path d="M 136.96 278.016 
L 146.88 278.016 
L 146.88 248.448 
L 136.96 248.448 
L 136.96 278.016 
" clip-path="url(#pc4b95cfebf)" style="fill: none"/>
    <path d="M 146.88 278.016 
L 156.8 278.016 
L 156.8 248.448 
L 146.88 248.448 
L 146.88 278.016 
" clip-path="url(#pc4b95cfebf)" style="fill: none"/>
    <path d="M 156.8 278.016 
L 166.72 278.016 
L 166.72 248.448 
L 156.8 248.448 
L 156.8 278.016 
" clip-path="url(#pc4b95cfebf)" style="fill: none"/>
    <path d="M 166.72 278.016 
L 176.64 278.016 
L 176.64 248.448 
L 166.72 248.448 
L 166.72 278.016 
" clip-path="url(#pc4b95cfebf)" style="fill: none"/>
    <path d="M 176.64 278.016 
L 186.56 278.016 
L 186.56 248.448 
L 176.64 248.448 
L 176.64 278.016 
" clip-path="url(#pc4b95cfebf)" style="fill: none"/>
    <path d="M 186.56 278.016 
L 196.48 278.016 
L 196.48 248.448 
L 186.56 248.448 
L 186.56 278.016 
" clip-path="url(#pc4b95cfebf)" style="fill: none"/>
    <path d="M 196.48 278.016 
L 206.4 278.016 
L 206.4 248.448 
L 196.48 248.448 
L 196.48 278.016 
" clip-path="url(#pc4b95cfebf)" style="fill: none"/>
    <path d="M 206.4 278.016 
L 216.32 278.016 
L 216.32 248.448 
L 206.4 248.448 
L 206.4 278.016 
" clip-path="url(#pc4b95cfebf)" style="fill: none"/>
    <path d="M 216.32 278.016 
L 226.24 278.016 
L 226.24 248.448 
L 216.32 248.448 
L 216.32 278.016 
" clip-path="url(#pc4b95cfebf)" style="fill: none"/>
    <path d="M 226.24 278.016 
L 236.16 278.016 
L 236.16 248.448 
L 226.24 248.448 
L 226.24 278.016 
" clip-path="url(#pc4b95cfebf)" style="fill: none"/>
    <path d="M 236.16 278.016 
L 246.08 278.016 
L 246.08 248.448 
L 236.16 248.448 
L 236.16 278.016 
" clip-path="url(#pc4b95cfebf)" style="fill: none"/>
    <path d="M 246.08 278.016 
L 256 278.016 
L 256 248.448 
L 246.08 248.448 
L 246.08 278.016 
" clip-path="url(#pc4b95cfebf)" style="fill: none"/>
    <path d="M 256 278.016 
L 265.92 278.016 
L 265.92 248.448 
L 256 248.448 
L 256 278.016 
" clip-path="url(#pc4b95cfebf)" style="fill: none"/>
    <path d="M 265.92 278.016 
L 275.84 278.016 
L 275.84 248.448 
L 265.92 248.448 
L 265.92 278.016 
" clip-path="url(#pc4b95cfebf)" style="fill: none"/>
    <path d="M 275.84 278.016 
L 285.76 278.016 
L 285.76 248.448 
L 275.84 248.448 
L 275.84 278.016 
" clip-path="url(#pc4b95cfebf)" style="fill: none"/>
    <path d="M 285.76 278.016 
L 295.68 278.016 
L 295.68 248.448 
L 285.76 248.448 
L 285.76 278.016 
" clip-path="url(#pc4b95cfebf)" style="fill: none"/>
    <path d="M 295.68 278.016 
L 305.6 278.016 
L 305.6 248.448 
L 295.68 248.448 
L 295.68 278.016 
" clip-path="url(#pc4b95cfebf)" style="fill: none"/>
    <path d="M 305.6 278.016 
L 315.52 278.016 
L 315.52 248.448 
L 305.6 248.448 
L 305.6 278.016 
" clip-path="url(#pc4b95cfebf)" style="fill: none"/>
    <path d="M 315.52 278.016 
L 325.44 278.016 
L 325.44 248.448 
L 315.52 248.448 
L 315.52 278.016 
" clip-path="url(#pc4b95cfebf)" style="fill: none"/>
    <path d="M 325.44 278.016 
L 335.36 278.016 
L 335.36 248.448 
L 325.44 248.448 
L 325.44 278.016 
" clip-path="url(#pc4b95cfebf)" style="fill: none"/>
    <path d="M 335.36 278.016 
L 345.28 278.016 
L 345.28 248.448 
L 335.36 248.448 
L 335.36 278.016 
" clip-path="url(#pc4b95cfebf)" style="fill: none"/>
    <path d="M 345.28 278.016 
L 355.2 278.016 
L 355.2 248.448 
L 345.28 248.448 
L 345.28 278.016 
" clip-path="url(#pc4b95cfebf)" style="fill: none"/>
    <path d="M 355.2 278.016 
L 365.12 278.016 
L 365.12 248.448 
L 355.2 248.448 
L 355.2 278.016 
" clip-path="url(#pc4b95cfebf)" style="fill: none"/>
    <path d="M 365.12 278.016 
L 375.04 278.016 
L 375.04 248.448 
L 365.12 248.448 
L 365.12 278.016 
" clip-path="url(#pc4b95cfebf)" style="fill: none"/>
    <path d="M 375.04 278.016 
L 384.96 278.016 
L 384.96 248.448 
L 375.04 248.448 
L 375.04 278.016 
" clip-path="url(#pc4b95cfebf)" style="fill: none"/>
    <path d="M 384.96 278.016 
L 394.88 278.016 
L 394.88 248.448 
L 384.96 248.448 
L 384.96 278.016 
" clip-path="url(#pc4b95cfebf)" style="fill: none"/>
    <path d="M 394.88 278.016 
L 404.8 278.016 
L 404.8 248.448 
L 394.88 248.448 
L 394.88 278.016 
" clip-path="url(#pc4b95cfebf)" style="fill: none"/>
    <path d="M 404.8 278.016 
L 414.72 278.016 
L 414.72 248.448 
L 404.8 248.448 
L 404.8 278.016 
" clip-path="url(#pc4b95cfebf)" style="fill: none"/>
    <path d="M 57.6 248.448 
L 67.52 248.448 
L 67.52 218.88 
L 57.6 218.88 
L 57.6 248.448 
" clip-path="url(#pc4b95cfebf)" style="fill: none"/>
    <path d="M 67.52 248.448 
L 77.44 248.448 
L 77.44 218.88 
L 67.52 218.88 
L 67.52 248.448 
" clip-path="url(#pc4b95cfebf)" style="fill: none"/>
    <path d="M 77.44 248.448 
L 87.36 248.448 
L 87.36 218.88 
L 77.44 218.88 
L 77.44 248.448 
" clip-path="url(#pc4b95cfebf)" style="fill: none"/>
    <path d="M 87.36 248.448 
L 97.28 248.448 
L 97.28 218.88 
L 87.36 218.88 
L 87.36 248.448 
" clip-path="url(#pc4b95cfebf)" style="fill: none"/>
    <path d="M 97.28 248.448 
L 107.2 248.448 
L 107.2 218.88 
L 97.28 218.88 
L 97.28 248.448 
" clip-path="url(#pc4b95cfebf)" style="fill: none"/>
    <path d="M 107.2 248.448 
L 117.12 248.448 
L 117.12 218.88 
L 107.2 218.88 
L 107.2 248.448 
" clip-path="url(#pc4b95cfebf)" style="fill: none"/>
    <path d="M 117.12 248.448 
L 127.04 248.448 
L 127.04 218.88 
L 117.12 218.88 
L 117.12 248.448 
" clip-path="url(#pc4b95cfebf)" style="fill: none"/>
    <path d="M 127.04 248.448 
L 136.96 248.448 
L 136.96 218.88 
L 127.04 218.88 
L 127.04 248.448 
" clip-path="url(#pc4b95cfebf)" style="fill: none"/>
    <path d="M 136.96 248.448 
L 146.88 248.448 
L 146.88 218.88 
L 136.96 218.88 
L 136.96 248.448 
" clip-path="url(#pc4b95cfebf)" style="fill: none"/>
    <path d="M 146.88 248.448 
L 156.8 248.448 
L 156.8 218.88 
L 146.88 218.88 
L 146.88 248.448 
" clip-path="url(#pc4b95cfebf)" style="fill: none"/>
    <path d="M 156.8 248.448 
L 166.72 248.448 
L 166.72 218.88 
L 156.8 218.88 
L 156.8 248.448 
" clip-path="url(#pc4b95cfebf)" style="fill: none"/>
    <path d="M 166.72 248.448 
L 176.64 248.448 
L 176.64 218.88 
L 166.72 218.88 
L 166.72 248.448 
" clip-path="url(#pc4b95cfebf)" style="fill: none"/>
    <path d="M 176.64 248.448 
L 186.56 248.448 
L 186.56 218.88 
L 176.64 218.88 
L 176.64 248.448 
" clip-path="url(#pc4b95cfebf)" style="fill: none"/>
    <path d="M 186.56 248.448 
L 196.48 248.448 
L 196.48 218.88 
L 186.56 218.88 
L 186.56 248.448 
" clip-path="url(#pc4b95cfebf)" style="fill: none"/>
    <path d="M 196.48 248.448 
L 206.4 248.448 
L 206.4 218.88 
L 196.48 218.88 
L 196.48 248.448 
" clip-path="url(#pc4b95cfebf)" style="fill: none"/>
    <path d="M 206.4 248.448 
L 216.32 248.448 
L 216.32 218.88 
L 206.4 218.88 
L 206.4 248.448 
" clip-path="url(#pc4b95cfebf)" style="fill: none"/>
    <path d="M 216.32 248.448 
L 226.24 248.448 
L 226.24 218.88 
L 216.32 218.88 
L 216.32 248.448 
" clip-path="url(#pc4b95cfebf)" style="fill: none"/>
    <path d="M 226.24 248.448 
L 236.16 248.448 
L 236.16 218.88 
L 226.24 218.88 
L 226.24 248.448 
" clip-path="url(#pc4b95cfebf)" style="fill: none"/>
    <path d="M 236.16 248.448 
L 246.08 248.448 
L 246.08 218.88 
L 236.16 218.88 
L 236.16 248.448 
" clip-path="url(#pc4b95cfebf)" style="fill: none"/>
    <path d="M 246.08 248.448 
L 256 248.448 
L 256 218.88 
L 246.08 218.88 
L 246.08 248.448 
" clip-path="url(#pc4b95cfebf)" style="fill: none"/>
    <path d="M 256 248.448 
L 265.92 248.448 
L 265.92 218.88 
L 256 218.88 
L 256 248.448 
" clip-path="url(#pc4b95cfebf)" style="fill: none"/>
    <path d="M 265.92 248.448 
L 275.84 248.448 
L 275.84 218.88 
L 265.92 218.88 
L 265.92 248.448 
" clip-path="url(#pc4b95cfebf)" style="fill: none"/>
    <path d="M 275.84 248.448 
L 285.76 248.448 
L 285.76 218.88 
L 275.84 218.88 
L 275.84 248.448 
" clip-path="url(#pc4b95cfebf)" style="fill: none"/>
    <path d="M 285.76 248.448 
L 295.68 248.448 
L 295.68 218.88 
L 285.76 218.88 
L 285.76 248.448 
" clip-path="url(#pc4b95cfebf)" style="fill: none"/>
    <path d="M 295.68 248.448 
L 305.6 248.448 
L 305.6 218.88 
L 295.68 218.88 
L 295.68 248.448 
" clip-path="url(#pc4b95cfebf)" style="fill: none"/>
    <path d="M 305.6 248.448 
L 315.52 248.448 
L 315.52 218.88 
L 305.6 218.88 
L 305.6 248.448 
" clip-path="url(#pc4b95cfebf)" style="fill: none"/>
    <path d="M 315.52 248.448 
L 325.44 248.448 
L 325.44 218.88 
L 315.52 218.88 
L 315.52 248.448 
" clip-path="url(#pc4b95cfebf)" style="fill: none"/>
    <path d="M 325.44 248.448 
L 335.36 248.448 
L 335.36 218.88 
L 325.44 218.88 
L 325.44 248.448 
" clip-path="url(#pc4b95cfebf)" style="fill: none"/>
    <path d="M 335.36 248.448 
L 345.28 248.448 
L 345.28 218.88 
L 335.36 218.88 
L 335.36 248.448 
" clip-path="url(#pc4b95cfebf)" style="fill: none"/>
    <path d="M 345.28 248.448 
L 355.2 248.448 
L 355.2 218.88 
L 345.28 218.88 
L 345.28 248.448 
" clip-path="url(#pc4b95cfebf)" style="fill: none"/>
    <path d="M 355.2 248.448 
L 365.12 248.448 
L 365.12 218.88 
L 355.2 218.88 
L 355.2 248.448 
" clip-path="url(#pc4b95cfebf)" style="fill: none"/>
    <path d="M 365.12 248.448 
L 375.04 248.448 
L 375.04 218.88 
L 365.12 218.88 
L 365.12 248.448 
" clip-path="url(#pc4b95cfebf)" style="fill: none"/>
    <path d="M 375.04 248.448 
L 384.96 248.448 
L 384.96 218.88 
L 375.04 218.88 
L 375.04 248.448 
" clip-path="url(#pc4b95cfebf)" style="fill: none"/>
    <path d="M 384.96 248.448 
L 394.88 248.448 
L 394.88 218.88 
L 384.96 218.88 
L 384.96 248.448 
" clip-path="url(#pc4b95cfebf)" style="fill: none"/>
    <path d="M 394.88 248.448 
L 404.8 248.448 
L 404.8 218.88 
L 394.88 218.88 
L 394.88 248.448 
" clip-path="url(#pc4b95cfebf)" style="fill: none"/>
    <path d="M 404.8 248.448 
L 414.72 248.448 
L 414.72 218.88 
L 404.8 218.88 
L 404.8 248.448 
" clip-path="url(#pc4b95cfebf)" style="fill: none"/>
    <path d="M 57.6 218.88 
L 67.52 218.88 
L 67.52 189.312 
L 57.6 189.312 
L 57.6 218.88 
" clip-path="url(#pc4b95cfebf)" style="fill: none"/>
    <path d="M 67.52 218.88 
L 77.44 218.88 
L 77.44 189.312 
L 67.52 189.312 
L 67.52 218.88 
" clip-path="url(#pc4b95cfebf)" style="fill: none"/>
    <path d="M 77.44 218.88 
L 87.36 218.88 
L 87.36 189.312 
L 77.44 189.312 
L 77.44 218.88 
" clip-path="url(#pc4b95cfebf)" style="fill: none"/>
    <path d="M 87.36 218.88 
L 97.28 218.88 
L 97.28 189.312 
L 87.36 189.312 
L 87.36 218.88 
" clip-path="url(#pc4b95cfebf)" style="fill: none"/>
    <path d="M 97.28 218.88 
L 107.2 218.88 
L 107.2 189.312 
L 97.28 189.312 
L 97.28 218.88 
" clip-path="url(#pc4b95cfebf)" style="fill: none"/>
    <path d="M 107.2 218.88 
L 117.12 218.88 
L 117.12 189.312 
L 107.2 189.312 
L 107.2 218.88 
" clip-path="url(#pc4b95cfebf)" style="fill: none"/>
    <path d="M 117.12 218.88 
L 127.04 218.88 
L 127.04 189.312 
L 117.12 189.312 
L 117.12 218.88 
" clip-path="url(#pc4b95cfebf)" style="fill: none"/>
    <path d="M 127.04 218.88 
L 136.96 218.88 
L 136.96 189.312 
L 127.04 189.312 
L 127.04 218.88 
" clip-path="url(#pc4b95cfebf)" style="fill: none"/>
    <path d="M 136.96 218.88 
L 146.88 218.88 
L 146.88 189.312 
L 136.96 189.312 
L 136.96 218.88 
" clip-path="url(#pc4b95cfebf)" style="fill: none"/>
    <path d="M 146.88 218.88 
L 156.8 218.88 
L 156.8 189.312 
L 146.88 189.312 
L 146.88 218.88 
" clip-path="url(#pc4b95cfebf)" style="fill: none"/>
    <path d="M 156.8 218.88 
L 166.72 218.88 
L 166.72 189.312 
L 156.8 189.312 
L 156.8 218.88 
" clip-path="url(#pc4b95cfebf)" style="fill: none"/>
    <path d="M 166.72 218.88 
L 176.64 218.88 
L 176.64 189.312 
L 166.72 189.312 
L 166.72 218.88 
" clip-path="url(#pc4b95cfebf)" style="fill: none"/>
    <path d="M 176.64 218.88 
L 186.56 218.88 
L 186.56 189.312 
L 176.64 189.312 
L 176.64 218.88 
" clip-path="url(#pc4b95cfebf)" style="fill: none"/>
    <path d="M 186.56 218.88 
L 196.48 218.88 
L 196.48 189.312 
L 186.56 189.312 
L 186.56 218.88 
" clip-path="url(#pc4b95cfebf)" style="fill: none"/>
    <path d="M 196.48 218.88 
L 206.4 218.88 
L 206.4 189.312 
L 196.48 189.312 
L 196.48 218.88 
" clip-path="url(#pc4b95cfebf)" style="fill: none"/>
    <path d="M 206.4 218.88 
L 216.32 218.88 
L 216.32 189.312 
L 206.4 189.312 
L 206.4 218.88 
" clip-path="url(#pc4b95cfebf)" style="fill: none"/>
    <path d="M 216.32 218.88 
L 226.24 218.88 
L 226.24 189.312 
L 216.32 189.312 
L 216.32 218.88 
" clip-path="url(#pc4b95cfebf)" style="fill: none"/>
    <path d="M 226.24 218.88 
L 236.16 218.88 
L 236.16 189.312 
L 226.24 189.312 
L 226.24 218.88 
" clip-path="url(#pc4b95cfebf)" style="fill: none"/>
    <path d="M 236.16 218.88 
L 246.08 218.88 
L 246.08 189.312 
L 236.16 189.312 
L 236.16 218.88 
" clip-path="url(#pc4b95cfebf)" style="fill: none"/>
    <path d="M 246.08 218.88 
L 256 218.88 
L 256 189.312 
L 246.08 189.312 
L 246.08 218.88 
" clip-path="url(#pc4b95cfebf)" style="fill: none"/>
    <path d="M 256 218.88 
L 265.92 218.88 
L 265.92 189.312 
L 256 189.312 
L 256 218.88 
" clip-path="url(#pc4b95cfebf)" style="fill: none"/>
    <path d="M 265.92 218.88 
L 275.84 218.88 
L 275.84 189.312 
L 265.92 189.312 
L 265.92 218.88 
" clip-path="url(#pc4b95cfebf)" style="fill: none"/>
    <path d="M 275.84 218.88 
L 285.76 218.88 
L 285.76 189.312 
L 275.84 189.312 
L 275.84 218.88 
" clip-path="url(#pc4b95cfebf)" style="fill: none"/>
    <path d="M 285.76 218.88 
L 295.68 218.88 
L 295.68 189.312 
L 285.76 189.312 
L 285.76 218.88 
" clip-path="url(#pc4b95cfebf)" style="fill: none"/>
    <path d="M 295.68 218.88 
L 305.6 218.88 
L 305.6 189.312 
L 295.68 189.312 
L 295.68 218.88 
" clip-path="url(#pc4b95cfebf)" style="fill: none"/>
    <path d="M 305.6 218.88 
L 315.52 218.88 
L 315.52 189.312 
L 305.6 189.312 
L 305.6 218.88 
" clip-path="url(#pc4b95cfebf)" style="fill: none"/>
    <path d="M 315.52 218.88 
L 325.44 218.88 
L 325.44 189.312 
L 315.52 189.312 
L 315.52 218.88 
" clip-path="url(#pc4b95cfebf)" style="fill: none"/>
    <path d="M 325.44 218.88 
L 335.36 218.88 
L 335.36 189.312 
L 325.44 189.312 
L 325.44 218.88 
" clip-path="url(#pc4b95cfebf)" style="fill: none"/>
    <path d="M 335.36 218.88 
L 345.28 218.88 
L 345.28 189.312 
L 335.36 189.312 
L 335.36 218.88 
" clip-path="url(#pc4b95cfebf)" style="fill: none"/>
    <path d="M 345.28 218.88 
L 355.2 218.88 
L 355.2 189.312 
L 345.28 189.312 
L 345.28 218.88 
" clip-path="url(#pc4b95cfebf)" style="fill: none"/>
    <path d="M 355.2 218.88 
L 365.12 218.88 
L 365.12 189.312 
L 355.2 189.312 
L 355.2 218.88 
" clip-path="url(#pc4b95cfebf)" style="fill: none"/>
    <path d="M 365.12 218.88 
L 375.04 218.88 
L 375.04 189.312 
L 365.12 189.312 
L 365.12 218.88 
" clip-path="url(#pc4b95cfebf)" style="fill: none"/>
    <path d="M 375.04 218.88 
L 384.96 218.88 
L 384.96 189.312 
L 375.04 189.312 
L 375.04 218.88 
" clip-path="url(#pc4b95cfebf)" style="fill: none"/>
    <path d="M 384.96 218.88 
L 394.88 218.88 
L 394.88 189.312 
L 384.96 189.312 
L 384.96 218.88 
" clip-path="url(#pc4b95cfebf)" style="fill: none"/>
    <path d="M 394.88 218.88 
L 404.8 218.88 
L 404.8 189.312 
L 394.88 189.312 
L 394.88 218.88 
" clip-path="url(#pc4b95cfebf)" style="fill: none"/>
    <path d="M 404.8 218.88 
L 414.72 218.88 
L 414.72 189.312 
L 404.8 189.312 
L 404.8 218.88 
" clip-path="url(#pc4b95cfebf)" style="fill: none"/>
    <path d="M 57.6 189.312 
L 67.52 189.312 
L 67.52 159.744 
L 57.6 159.744 
L 57.6 189.312 
" clip-path="url(#pc4b95cfebf)" style="fill: none"/>
    <path d="M 67.52 189.312 
L 77.44 189.312 
L 77.44 159.744 
L 67.52 159.744 
L 67.52 189.312 
" clip-path="url(#pc4b95cfebf)" style="fill: none"/>
    <path d="M 77.44 189.312 
L 87.36 189.312 
L 87.36 159.744 
L 77.44 159.744 
L 77.44 189.312 
" clip-path="url(#pc4b95cfebf)" style="fill: none"/>
    <path d="M 87.36 189.312 
L 97.28 189.312 
L 97.28 159.744 
L 87.36 159.744 
L 87.36 189.312 
" clip-path="url(#pc4b95cfebf)" style="fill: none"/>
    <path d="M 97.28 189.312 
L 107.2 189.312 
L 107.2 159.744 
L 97.28 159.744 
L 97.28 189.312 
" clip-path="url(#pc4b95cfebf)" style="fill: none"/>
    <path d="M 107.2 189.312 
L 117.12 189.312 
L 117.12 159.744 
L 107.2 159.744 
L 107.2 189.312 
" clip-path="url(#pc4b95cfebf)" style="fill: none"/>
    <path d="M 117.12 189.312 
L 127.04 189.312 
L 127.04 159.744 
L 117.12 159.744 
L 117.12 189.312 
" clip-path="url(#pc4b95cfebf)" style="fill: none"/>
    <path d="M 127.04 189.312 
L 136.96 189.312 
L 136.96 159.744 
L 127.04 159.744 
L 127.04 189.312 
" clip-path="url(#pc4b95cfebf)" style="fill: none"/>
    <path d="M 136.96 189.312 
L 146.88 189.312 
L 146.88 159.744 
L 136.96 159.744 
L 136.96 189.312 
" clip-path="url(#pc4b95cfebf)" style="fill: none"/>
    <path d="M 146.88 189.312 
L 156.8 189.312 
L 156.8 159.744 
L 146.88 159.744 
L 146.88 189.312 
" clip-path="url(#pc4b95cfebf)" style="fill: none"/>
    <path d="M 156.8 189.312 
L 166.72 189.312 
L 166.72 159.744 
L 156.8 159.744 
L 156.8 189.312 
" clip-path="url(#pc4b95cfebf)" style="fill: none"/>
    <path d="M 166.72 189.312 
L 176.64 189.312 
L 176.64 159.744 
L 166.72 159.744 
L 166.72 189.312 
" clip-path="url(#pc4b95cfebf)" style="fill: none"/>
    <path d="M 176.64 189.312 
L 186.56 189.312 
L 186.56 159.744 
L 176.64 159.744 
L 176.64 189.312 
" clip-path="url(#pc4b95cfebf)" style="fill: none"/>
    <path d="M 186.56 189.312 
L 196.48 189.312 
L 196.48 159.744 
L 186.56 159.744 
L 186.56 189.312 
" clip-path="url(#pc4b95cfebf)" style="fill: none"/>
    <path d="M 196.48 189.312 
L 206.4 189.312 
L 206.4 159.744 
L 196.48 159.744 
L 196.48 189.312 
" clip-path="url(#pc4b95cfebf)" style="fill: none"/>
    <path d="M 206.4 189.312 
L 216.32 189.312 
L 216.32 159.744 
L 206.4 159.744 
L 206.4 189.312 
" clip-path="url(#pc4b95cfebf)" style="fill: #440154"/>
    <path d="M 216.32 189.312 
L 226.24 189.312 
L 226.24 159.744 
L 216.32 159.744 
L 216.32 189.312 
" clip-path="url(#pc4b95cfebf)" style="fill: #8bd646"/>
    <path d="M 226.24 189.312 
L 236.16 189.312 
L 236.16 159.744 
L 226.24 159.744 
L 226.24 189.312 
" clip-path="url(#pc4b95cfebf)" style="fill: none"/>
    <path d="M 236.16 189.312 
L 246.08 189.312 
L 246.08 159.744 
L 236.16 159.744 
L 236.16 189.312 
" clip-path="url(#pc4b95cfebf)" style="fill: none"/>
    <path d="M 246.08 189.312 
L 256 189.312 
L 256 159.744 
L 246.08 159.744 
L 246.08 189.312 
" clip-path="url(#pc4b95cfebf)" style="fill: none"/>
    <path d="M 256 189.312 
L 265.92 189.312 
L 265.92 159.744 
L 256 159.744 
L 256 189.312 
" clip-path="url(#pc4b95cfebf)" style="fill: none"/>
    <path d="M 265.92 189.312 
L 275.84 189.312 
L 275.84 159.744 
L 265.92 159.744 
L 265.92 189.312 
" clip-path="url(#pc4b95cfebf)" style="fill: none"/>
    <path d="M 275.84 189.312 
L 285.76 189.312 
L 285.76 159.744 
L 275.84 159.744 
L 275.84 189.312 
" clip-path="url(#pc4b95cfebf)" style="fill: none"/>
    <path d="M 285.76 189.312 
L 295.68 189.312 
L 295.68 159.744 
L 285.76 159.744 
L 285.76 189.312 
" clip-path="url(#pc4b95cfebf)" style="fill: none"/>
    <path d="M 295.68 189.312 
L 305.6 189.312 
L 305.6 159.744 
L 295.68 159.744 
L 295.68 189.312 
" clip-path="url(#pc4b95cfebf)" style="fill: none"/>
    <path d="M 305.6 189.312 
L 315.52 189.312 
L 315.52 159.744 
L 305.6 159.744 
L 305.6 189.312 
" clip-path="url(#pc4b95cfebf)" style="fill: none"/>
    <path d="M 315.52 189.312 
L 325.44 189.312 
L 325.44 159.744 
L 315.52 159.744 
L 315.52 189.312 
" clip-path="url(#pc4b95cfebf)" style="fill: none"/>
    <path d="M 325.44 189.312 
L 335.36 189.312 
L 335.36 159.744 
L 325.44 159.744 
L 325.44 189.312 
" clip-path="url(#pc4b95cfebf)" style="fill: none"/>
    <path d="M 335.36 189.312 
L 345.28 189.312 
L 345.28 159.744 
L 335.36 159.744 
L 335.36 189.312 
" clip-path="url(#pc4b95cfebf)" style="fill: none"/>
    <path d="M 345.28 189.312 
L 355.2 189.312 
L 355.2 159.744 
L 345.28 159.744 
L 345.28 189.312 
" clip-path="url(#pc4b95cfebf)" style="fill: none"/>
    <path d="M 355.2 189.312 
L 365.12 189.312 
L 365.12 159.744 
L 355.2 159.744 
L 355.2 189.312 
" clip-path="url(#pc4b95cfebf)" style="fill: none"/>
    <path d="M 365.12 189.312 
L 375.04 189.312 
L 375.04 159.744 
L 365.12 159.744 
L 365.12 189.312 
" clip-path="url(#pc4b95cfebf)" style="fill: none"/>
    <path d="M 375.04 189.312 
L 384.96 189.312 
L 384.96 159.744 
L 375.04 159.744 
L 375.04 189.312 
" clip-path="url(#pc4b95cfebf)" style="fill: none"/>
    <path d="M 384.96 189.312 
L 394.88 189.312 
L 394.88 159.744 
L 384.96 159.744 
L 384.96 189.312 
" clip-path="url(#pc4b95cfebf)" style="fill: none"/>
    <path d="M 394.88 189.312 
L 404.8 189.312 
L 404.8 159.744 
L 394.88 159.744 
L 394.88 189.312 
" clip-path="url(#pc4b95cfebf)" style="fill: none"/>
    <path d="M 404.8 189.312 
L 414.72 189.312 
L 414.72 159.744 
L 404.8 159.744 
L 404.8 189.312 
" clip-path="url(#pc4b95cfebf)" style="fill: none"/>
    <path d="M 57.6 159.744 
L 67.52 159.744 
L 67.52 130.176 
L 57.6 130.176 
L 57.6 159.744 
" clip-path="url(#pc4b95cfebf)" style="fill: none"/>
    <path d="M 67.52 159.744 
L 77.44 159.744 
L 77.44 130.176 
L 67.52 130.176 
L 67.52 159.744 
" clip-path="url(#pc4b95cfebf)" style="fill: none"/>
    <path d="M 77.44 159.744 
L 87.36 159.744 
L 87.36 130.176 
L 77.44 130.176 
L 77.44 159.744 
" clip-path="url(#pc4b95cfebf)" style="fill: none"/>
    <path d="M 87.36 159.744 
L 97.28 159.744 
L 97.28 130.176 
L 87.36 130.176 
L 87.36 159.744 
" clip-path="url(#pc4b95cfebf)" style="fill: none"/>
    <path d="M 97.28 159.744 
L 107.2 159.744 
L 107.2 130.176 
L 97.28 130.176 
L 97.28 159.744 
" clip-path="url(#pc4b95cfebf)" style="fill: none"/>
    <path d="M 107.2 159.744 
L 117.12 159.744 
L 117.12 130.176 
L 107.2 130.176 
L 107.2 159.744 
" clip-path="url(#pc4b95cfebf)" style="fill: none"/>
    <path d="M 117.12 159.744 
L 127.04 159.744 
L 127.04 130.176 
L 117.12 130.176 
L 117.12 159.744 
" clip-path="url(#pc4b95cfebf)" style="fill: none"/>
    <path d="M 127.04 159.744 
L 136.96 159.744 
L 136.96 130.176 
L 127.04 130.176 
L 127.04 159.744 
" clip-path="url(#pc4b95cfebf)" style="fill: none"/>
    <path d="M 136.96 159.744 
L 146.88 159.744 
L 146.88 130.176 
L 136.96 130.176 
L 136.96 159.744 
" clip-path="url(#pc4b95cfebf)" style="fill: none"/>
    <path d="M 146.88 159.744 
L 156.8 159.744 
L 156.8 130.176 
L 146.88 130.176 
L 146.88 159.744 
" clip-path="url(#pc4b95cfebf)" style="fill: none"/>
    <path d="M 156.8 159.744 
L 166.72 159.744 
L 166.72 130.176 
L 156.8 130.176 
L 156.8 159.744 
" clip-path="url(#pc4b95cfebf)" style="fill: none"/>
    <path d="M 166.72 159.744 
L 176.64 159.744 
L 176.64 130.176 
L 166.72 130.176 
L 166.72 159.744 
" clip-path="url(#pc4b95cfebf)" style="fill: none"/>
    <path d="M 176.64 159.744 
L 186.56 159.744 
L 186.56 130.176 
L 176.64 130.176 
L 176.64 159.744 
" clip-path="url(#pc4b95cfebf)" style="fill: none"/>
    <path d="M 186.56 159.744 
L 196.48 159.744 
L 196.48 130.176 
L 186.56 130.176 
L 186.56 159.744 
" clip-path="url(#pc4b95cfebf)" style="fill: none"/>
    <path d="M 196.48 159.744 
L 206.4 159.744 
L 206.4 130.176 
L 196.48 130.176 
L 196.48 159.744 
" clip-path="url(#pc4b95cfebf)" style="fill: none"/>
    <path d="M 206.4 159.744 
L 216.32 159.744 
L 216.32 130.176 
L 206.4 130.176 
L 206.4 159.744 
" clip-path="url(#pc4b95cfebf)" style="fill: #fde725"/>
    <path d="M 216.32 159.744 
L 226.24 159.744 
L 226.24 130.176 
L 216.32 130.176 
L 216.32 159.744 
" clip-path="url(#pc4b95cfebf)" style="fill: #cae11f"/>
    <path d="M 226.24 159.744 
L 236.16 159.744 
L 236.16 130.176 
L 226.24 130.176 
L 226.24 159.744 
" clip-path="url(#pc4b95cfebf)" style="fill: #440154"/>
    <path d="M 236.16 159.744 
L 246.08 159.744 
L 246.08 130.176 
L 236.16 130.176 
L 236.16 159.744 
" clip-path="url(#pc4b95cfebf)" style="fill: none"/>
    <path d="M 246.08 159.744 
L 256 159.744 
L 256 130.176 
L 246.08 130.176 
L 246.08 159.744 
" clip-path="url(#pc4b95cfebf)" style="fill: none"/>
    <path d="M 256 159.744 
L 265.92 159.744 
L 265.92 130.176 
L 256 130.176 
L 256 159.744 
" clip-path="url(#pc4b95cfebf)" style="fill: none"/>
    <path d="M 265.92 159.744 
L 275.84 159.744 
L 275.84 130.176 
L 265.92 130.176 
L 265.92 159.744 
" clip-path="url(#pc4b95cfebf)" style="fill: none"/>
    <path d="M 275.84 159.744 
L 285.76 159.744 
L 285.76 130.176 
L 275.84 130.176 
L 275.84 159.744 
" clip-path="url(#pc4b95cfebf)" style="fill: none"/>
    <path d="M 285.76 159.744 
L 295.68 159.744 
L 295.68 130.176 
L 285.76 130.176 
L 285.76 159.744 
" clip-path="url(#pc4b95cfebf)" style="fill: none"/>
    <path d="M 295.68 159.744 
L 305.6 159.744 
L 305.6 130.176 
L 295.68 130.176 
L 295.68 159.744 
" clip-path="url(#pc4b95cfebf)" style="fill: none"/>
    <path d="M 305.6 159.744 
L 315.52 159.744 
L 315.52 130.176 
L 305.6 130.176 
L 305.6 159.744 
" clip-path="url(#pc4b95cfebf)" style="fill: none"/>
    <path d="M 315.52 159.744 
L 325.44 159.744 
L 325.44 130.176 
L 315.52 130.176 
L 315.52 159.744 
" clip-path="url(#pc4b95cfebf)" style="fill: none"/>
    <path d="M 325.44 159.744 
L 335.36 159.744 
L 335.36 130.176 
L 325.44 130.176 
L 325.44 159.744 
" clip-path="url(#pc4b95cfebf)" style="fill: none"/>
    <path d="M 335.36 159.744 
L 345.28 159.744 
L 345.28 130.176 
L 335.36 130.176 
L 335.36 159.744 
" clip-path="url(#pc4b95cfebf)" style="fill: none"/>
    <path d="M 345.28 159.744 
L 355.2 159.744 
L 355.2 130.176 
L 345.28 130.176 
L 345.28 159.744 
" clip-path="url(#pc4b95cfebf)" style="fill: none"/>
    <path d="M 355.2 159.744 
L 365.12 159.744 
L 365.12 130.176 
L 355.2 130.176 
L 355.2 159.744 
" clip-path="url(#pc4b95cfebf)" style="fill: none"/>
    <path d="M 365.12 159.744 
L 375.04 159.744 
L 375.04 130.176 
L 365.12 130.176 
L 365.12 159.744 
" clip-path="url(#pc4b95cfebf)" style="fill: none"/>
    <path d="M 375.04 159.744 
L 384.96 159.744 
L 384.96 130.176 
L 375.04 130.176 
L 375.04 159.744 
" clip-path="url(#pc4b95cfebf)" style="fill: none"/>
    <path d="M 384.96 159.744 
L 394.88 159.744 
L 394.88 130.176 
L 384.96 130.176 
L 384.96 159.744 
" clip-path="url(#pc4b95cfebf)" style="fill: none"/>
    <path d="M 394.88 159.744 
L 404.8 159.744 
L 404.8 130.176 
L 394.88 130.176 
L 394.88 159.744 
" clip-path="url(#pc4b95cfebf)" style="fill: none"/>
    <path d="M 404.8 159.744 
L 414.72 159.744 
L 414.72 130.176 
L 404.8 130.176 
L 404.8 159.744 
" clip-path="url(#pc4b95cfebf)" style="fill: none"/>
    <path d="M 57.6 130.176 
L 67.52 130.176 
L 67.52 100.608 
L 57.6 100.608 
L 57.6 130.176 
" clip-path="url(#pc4b95cfebf)" style="fill: none"/>
    <path d="M 67.52 130.176 
L 77.44 130.176 
L 77.44 100.608 
L 67.52 100.608 
L 67.52 130.176 
" clip-path="url(#pc4b95cfebf)" style="fill: none"/>
    <path d="M 77.44 130.176 
L 87.36 130.176 
L 87.36 100.608 
L 77.44 100.608 
L 77.44 130.176 
" clip-path="url(#pc4b95cfebf)" style="fill: none"/>
    <path d="M 87.36 130.176 
L 97.28 130.176 
L 97.28 100.608 
L 87.36 100.608 
L 87.36 130.176 
" clip-path="url(#pc4b95cfebf)" style="fill: none"/>
    <path d="M 97.28 130.176 
L 107.2 130.176 
L 107.2 100.608 
L 97.28 100.608 
L 97.28 130.176 
" clip-path="url(#pc4b95cfebf)" style="fill: none"/>
    <path d="M 107.2 130.176 
L 117.12 130.176 
L 117.12 100.608 
L 107.2 100.608 
L 107.2 130.176 
" clip-path="url(#pc4b95cfebf)" style="fill: none"/>
    <path d="M 117.12 130.176 
L 127.04 130.176 
L 127.04 100.608 
L 117.12 100.608 
L 117.12 130.176 
" clip-path="url(#pc4b95cfebf)" style="fill: none"/>
    <path d="M 127.04 130.176 
L 136.96 130.176 
L 136.96 100.608 
L 127.04 100.608 
L 127.04 130.176 
" clip-path="url(#pc4b95cfebf)" style="fill: none"/>
    <path d="M 136.96 130.176 
L 146.88 130.176 
L 146.88 100.608 
L 136.96 100.608 
L 136.96 130.176 
" clip-path="url(#pc4b95cfebf)" style="fill: none"/>
    <path d="M 146.88 130.176 
L 156.8 130.176 
L 156.8 100.608 
L 146.88 100.608 
L 146.88 130.176 
" clip-path="url(#pc4b95cfebf)" style="fill: none"/>
    <path d="M 156.8 130.176 
L 166.72 130.176 
L 166.72 100.608 
L 156.8 100.608 
L 156.8 130.176 
" clip-path="url(#pc4b95cfebf)" style="fill: none"/>
    <path d="M 166.72 130.176 
L 176.64 130.176 
L 176.64 100.608 
L 166.72 100.608 
L 166.72 130.176 
" clip-path="url(#pc4b95cfebf)" style="fill: none"/>
    <path d="M 176.64 130.176 
L 186.56 130.176 
L 186.56 100.608 
L 176.64 100.608 
L 176.64 130.176 
" clip-path="url(#pc4b95cfebf)" style="fill: none"/>
    <path d="M 186.56 130.176 
L 196.48 130.176 
L 196.48 100.608 
L 186.56 100.608 
L 186.56 130.176 
" clip-path="url(#pc4b95cfebf)" style="fill: none"/>
    <path d="M 196.48 130.176 
L 206.4 130.176 
L 206.4 100.608 
L 196.48 100.608 
L 196.48 130.176 
" clip-path="url(#pc4b95cfebf)" style="fill: none"/>
    <path d="M 206.4 130.176 
L 216.32 130.176 
L 216.32 100.608 
L 206.4 100.608 
L 206.4 130.176 
" clip-path="url(#pc4b95cfebf)" style="fill: none"/>
    <path d="M 216.32 130.176 
L 226.24 130.176 
L 226.24 100.608 
L 216.32 100.608 
L 216.32 130.176 
" clip-path="url(#pc4b95cfebf)" style="fill: none"/>
    <path d="M 226.24 130.176 
L 236.16 130.176 
L 236.16 100.608 
L 226.24 100.608 
L 226.24 130.176 
" clip-path="url(#pc4b95cfebf)" style="fill: none"/>
    <path d="M 236.16 130.176 
L 246.08 130.176 
L 246.08 100.608 
L 236.16 100.608 
L 236.16 130.176 
" clip-path="url(#pc4b95cfebf)" style="fill: none"/>
    <path d="M 246.08 130.176 
L 256 130.176 
L 256 100.608 
L 246.08 100.608 
L 246.08 130.176 
" clip-path="url(#pc4b95cfebf)" style="fill: none"/>
    <path d="M 256 130.176 
L 265.92 130.176 
L 265.92 100.608 
L 256 100.608 
L 256 130.176 
" clip-path="url(#pc4b95cfebf)" style="fill: none"/>
    <path d="M 265.92 130.176 
L 275.84 130.176 
L 275.84 100.608 
L 265.92 100.608 
L 265.92 130.176 
" clip-path="url(#pc4b95cfebf)" style="fill: none"/>
    <path d="M 275.84 130.176 
L 285.76 130.176 
L 285.76 100.608 
L 275.84 100.608 
L 275.84 130.176 
" clip-path="url(#pc4b95cfebf)" style="fill: none"/>
    <path d="M 285.76 130.176 
L 295.68 130.176 
L 295.68 100.608 
L 285.76 100.608 
L 285.76 130.176 
" clip-path="url(#pc4b95cfebf)" style="fill: none"/>
    <path d="M 295.68 130.176 
L 305.6 130.176 
L 305.6 100.608 
L 295.68 100.608 
L 295.68 130.176 
" clip-path="url(#pc4b95cfebf)" style="fill: none"/>
    <path d="M 305.6 130.176 
L 315.52 130.176 
L 315.52 100.608 
L 305.6 100.608 
L 305.6 130.176 
" clip-path="url(#pc4b95cfebf)" style="fill: none"/>
    <path d="M 315.52 130.176 
L 325.44 130.176 
L 325.44 100.608 
L 315.52 100.608 
L 315.52 130.176 
" clip-path="url(#pc4b95cfebf)" style="fill: none"/>
    <path d="M 325.44 130.176 
L 335.36 130.176 
L 335.36 100.608 
L 325.44 100.608 
L 325.44 130.176 
" clip-path="url(#pc4b95cfebf)" style="fill: none"/>
    <path d="M 335.36 130.176 
L 345.28 130.176 
L 345.28 100.608 
L 335.36 100.608 
L 335.36 130.176 
" clip-path="url(#pc4b95cfebf)" style="fill: none"/>
    <path d="M 345.28 130.176 
L 355.2 130.176 
L 355.2 100.608 
L 345.28 100.608 
L 345.28 130.176 
" clip-path="url(#pc4b95cfebf)" style="fill: none"/>
    <path d="M 355.2 130.176 
L 365.12 130.176 
L 365.12 100.608 
L 355.2 100.608 
L 355.2 130.176 
" clip-path="url(#pc4b95cfebf)" style="fill: none"/>
    <path d="M 365.12 130.176 
L 375.04 130.176 
L 375.04 100.608 
L 365.12 100.608 
L 365.12 130.176 
" clip-path="url(#pc4b95cfebf)" style="fill: none"/>
    <path d="M 375.04 130.176 
L 384.96 130.176 
L 384.96 100.608 
L 375.04 100.608 
L 375.04 130.176 
" clip-path="url(#pc4b95cfebf)" style="fill: none"/>
    <path d="M 384.96 130.176 
L 394.88 130.176 
L 394.88 100.608 
L 384.96 100.608 
L 384.96 130.176 
" clip-path="url(#pc4b95cfebf)" style="fill: none"/>
    <path d="M 394.88 130.176 
L 404.8 130.176 
L 404.8 100.608 
L 394.88 100.608 
L 394.88 130.176 
" clip-path="url(#pc4b95cfebf)" style="fill: none"/>
    <path d="M 404.8 130.176 
L 414.72 130.176 
L 414.72 100.608 
L 404.8 100.608 
L 404.8 130.176 
" clip-path="url(#pc4b95cfebf)" style="fill: none"/>
    <path d="M 57.6 100.608 
L 67.52 100.608 
L 67.52 71.04 
L 57.6 71.04 
L 57.6 100.608 
" clip-path="url(#pc4b95cfebf)" style="fill: none"/>
    <path d="M 67.52 100.608 
L 77.44 100.608 
L 77.44 71.04 
L 67.52 71.04 
L 67.52 100.608 
" clip-path="url(#pc4b95cfebf)" style="fill: none"/>
    <path d="M 77.44 100.608 
L 87.36 100.608 
L 87.36 71.04 
L 77.44 71.04 
L 77.44 100.608 
" clip-path="url(#pc4b95cfebf)" style="fill: none"/>
    <path d="M 87.36 100.608 
L 97.28 100.608 
L 97.28 71.04 
L 87.36 71.04 
L 87.36 100.608 
" clip-path="url(#pc4b95cfebf)" style="fill: none"/>
    <path d="M 97.28 100.608 
L 107.2 100.608 
L 107.2 71.04 
L 97.28 71.04 
L 97.28 100.608 
" clip-path="url(#pc4b95cfebf)" style="fill: none"/>
    <path d="M 107.2 100.608 
L 117.12 100.608 
L 117.12 71.04 
L 107.2 71.04 
L 107.2 100.608 
" clip-path="url(#pc4b95cfebf)" style="fill: none"/>
    <path d="M 117.12 100.608 
L 127.04 100.608 
L 127.04 71.04 
L 117.12 71.04 
L 117.12 100.608 
" clip-path="url(#pc4b95cfebf)" style="fill: none"/>
    <path d="M 127.04 100.608 
L 136.96 100.608 
L 136.96 71.04 
L 127.04 71.04 
L 127.04 100.608 
" clip-path="url(#pc4b95cfebf)" style="fill: none"/>
    <path d="M 136.96 100.608 
L 146.88 100.608 
L 146.88 71.04 
L 136.96 71.04 
L 136.96 100.608 
" clip-path="url(#pc4b95cfebf)" style="fill: none"/>
    <path d="M 146.88 100.608 
L 156.8 100.608 
L 156.8 71.04 
L 146.88 71.04 
L 146.88 100.608 
" clip-path="url(#pc4b95cfebf)" style="fill: none"/>
    <path d="M 156.8 100.608 
L 166.72 100.608 
L 166.72 71.04 
L 156.8 71.04 
L 156.8 100.608 
" clip-path="url(#pc4b95cfebf)" style="fill: none"/>
    <path d="M 166.72 100.608 
L 176.64 100.608 
L 176.64 71.04 
L 166.72 71.04 
L 166.72 100.608 
" clip-path="url(#pc4b95cfebf)" style="fill: none"/>
    <path d="M 176.64 100.608 
L 186.56 100.608 
L 186.56 71.04 
L 176.64 71.04 
L 176.64 100.608 
" clip-path="url(#pc4b95cfebf)" style="fill: none"/>
    <path d="M 186.56 100.608 
L 196.48 100.608 
L 196.48 71.04 
L 186.56 71.04 
L 186.56 100.608 
" clip-path="url(#pc4b95cfebf)" style="fill: none"/>
    <path d="M 196.48 100.608 
L 206.4 100.608 
L 206.4 71.04 
L 196.48 71.04 
L 196.48 100.608 
" clip-path="url(#pc4b95cfebf)" style="fill: none"/>
    <path d="M 206.4 100.608 
L 216.32 100.608 
L 216.32 71.04 
L 206.4 71.04 
L 206.4 100.608 
" clip-path="url(#pc4b95cfebf)" style="fill: none"/>
    <path d="M 216.32 100.608 
L 226.24 100.608 
L 226.24 71.04 
L 216.32 71.04 
L 216.32 100.608 
" clip-path="url(#pc4b95cfebf)" style="fill: none"/>
    <path d="M 226.24 100.608 
L 236.16 100.608 
L 236.16 71.04 
L 226.24 71.04 
L 226.24 100.608 
" clip-path="url(#pc4b95cfebf)" style="fill: none"/>
    <path d="M 236.16 100.608 
L 246.08 100.608 
L 246.08 71.04 
L 236.16 71.04 
L 236.16 100.608 
" clip-path="url(#pc4b95cfebf)" style="fill: none"/>
    <path d="M 246.08 100.608 
L 256 100.608 
L 256 71.04 
L 246.08 71.04 
L 246.08 100.608 
" clip-path="url(#pc4b95cfebf)" style="fill: none"/>
    <path d="M 256 100.608 
L 265.92 100.608 
L 265.92 71.04 
L 256 71.04 
L 256 100.608 
" clip-path="url(#pc4b95cfebf)" style="fill: none"/>
    <path d="M 265.92 100.608 
L 275.84 100.608 
L 275.84 71.04 
L 265.92 71.04 
L 265.92 100.608 
" clip-path="url(#pc4b95cfebf)" style="fill: none"/>
    <path d="M 275.84 100.608 
L 285.76 100.608 
L 285.76 71.04 
L 275.84 71.04 
L 275.84 100.608 
" clip-path="url(#pc4b95cfebf)" style="fill: none"/>
    <path d="M 285.76 100.608 
L 295.68 100.608 
L 295.68 71.04 
L 285.76 71.04 
L 285.76 100.608 
" clip-path="url(#pc4b95cfebf)" style="fill: none"/>
    <path d="M 295.68 100.608 
L 305.6 100.608 
L 305.6 71.04 
L 295.68 71.04 
L 295.68 100.608 
" clip-path="url(#pc4b95cfebf)" style="fill: none"/>
    <path d="M 305.6 100.608 
L 315.52 100.608 
L 315.52 71.04 
L 305.6 71.04 
L 305.6 100.608 
" clip-path="url(#pc4b95cfebf)" style="fill: none"/>
    <path d="M 315.52 100.608 
L 325.44 100.608 
L 325.44 71.04 
L 315.52 71.04 
L 315.52 100.608 
" clip-path="url(#pc4b95cfebf)" style="fill: none"/>
    <path d="M 325.44 100.608 
L 335.36 100.608 
L 335.36 71.04 
L 325.44 71.04 
L 325.44 100.608 
" clip-path="url(#pc4b95cfebf)" style="fill: none"/>
    <path d="M 335.36 100.608 
L 345.28 100.608 
L 345.28 71.04 
L 335.36 71.04 
L 335.36 100.608 
" clip-path="url(#pc4b95cfebf)" style="fill: none"/>
    <path d="M 345.28 100.608 
L 355.2 100.608 
L 355.2 71.04 
L 345.28 71.04 
L 345.28 100.608 
" clip-path="url(#pc4b95cfebf)" style="fill: none"/>
    <path d="M 355.2 100.608 
L 365.12 100.608 
L 365.12 71.04 
L 355.2 71.04 
L 355.2 100.608 
" clip-path="url(#pc4b95cfebf)" style="fill: none"/>
    <path d="M 365.12 100.608 
L 375.04 100.608 
L 375.04 71.04 
L 365.12 71.04 
L 365.12 100.608 
" clip-path="url(#pc4b95cfebf)" style="fill: none"/>
    <path d="M 375.04 100.608 
L 384.96 100.608 
L 384.96 71.04 
L 375.04 71.04 
L 375.04 100.608 
" clip-path="url(#pc4b95cfebf)" style="fill: none"/>
    <path d="M 384.96 100.608 
L 394.88 100.608 
L 394.88 71.04 
L 384.96 71.04 
L 384.96 100.608 
" clip-path="url(#pc4b95cfebf)" style="fill: none"/>
    <path d="M 394.88 100.608 
L 404.8 100.608 
L 404.8 71.04 
L 394.88 71.04 
L 394.88 100.608 
" clip-path="url(#pc4b95cfebf)" style="fill: none"/>
    <path d="M 404.8 100.608 
L 414.72 100.608 
L 414.72 71.04 
L 404.8 71.04 
L 404.8 100.608 
" clip-path="url(#pc4b95cfebf)" style="fill: none"/>
    <path d="M 57.6 71.04 
L 67.52 71.04 
L 67.52 41.472 
L 57.6 41.472 
L 57.6 71.04 
" clip-path="url(#pc4b95cfebf)" style="fill: none"/>
    <path d="M 67.52 71.04 
L 77.44 71.04 
L 77.44 41.472 
L 67.52 41.472 
L 67.52 71.04 
" clip-path="url(#pc4b95cfebf)" style="fill: none"/>
    <path d="M 77.44 71.04 
L 87.36 71.04 
L 87.36 41.472 
L 77.44 41.472 
L 77.44 71.04 
" clip-path="url(#pc4b95cfebf)" style="fill: none"/>
    <path d="M 87.36 71.04 
L 97.28 71.04 
L 97.28 41.472 
L 87.36 41.472 
L 87.36 71.04 
" clip-path="url(#pc4b95cfebf)" style="fill: none"/>
    <path d="M 97.28 71.04 
L 107.2 71.04 
L 107.2 41.472 
L 97.28 41.472 
L 97.28 71.04 
" clip-path="url(#pc4b95cfebf)" style="fill: none"/>
    <path d="M 107.2 71.04 
L 117.12 71.04 
L 117.12 41.472 
L 107.2 41.472 
L 107.2 71.04 
" clip-path="url(#pc4b95cfebf)" style="fill: none"/>
    <path d="M 117.12 71.04 
L 127.04 71.04 
L 127.04 41.472 
L 117.12 41.472 
L 117.12 71.04 
" clip-path="url(#pc4b95cfebf)" style="fill: none"/>
    <path d="M 127.04 71.04 
L 136.96 71.04 
L 136.96 41.472 
L 127.04 41.472 
L 127.04 71.04 
" clip-path="url(#pc4b95cfebf)" style="fill: none"/>
    <path d="M 136.96 71.04 
L 146.88 71.04 
L 146.88 41.472 
L 136.96 41.472 
L 136.96 71.04 
" clip-path="url(#pc4b95cfebf)" style="fill: none"/>
    <path d="M 146.88 71.04 
L 156.8 71.04 
L 156.8 41.472 
L 146.88 41.472 
L 146.88 71.04 
" clip-path="url(#pc4b95cfebf)" style="fill: none"/>
    <path d="M 156.8 71.04 
L 166.72 71.04 
L 166.72 41.472 
L 156.8 41.472 
L 156.8 71.04 
" clip-path="url(#pc4b95cfebf)" style="fill: none"/>
    <path d="M 166.72 71.04 
L 176.64 71.04 
L 176.64 41.472 
L 166.72 41.472 
L 166.72 71.04 
" clip-path="url(#pc4b95cfebf)" style="fill: none"/>
    <path d="M 176.64 71.04 
L 186.56 71.04 
L 186.56 41.472 
L 176.64 41.472 
L 176.64 71.04 
" clip-path="url(#pc4b95cfebf)" style="fill: none"/>
    <path d="M 186.56 71.04 
L 196.48 71.04 
L 196.48 41.472 
L 186.56 41.472 
L 186.56 71.04 
" clip-path="url(#pc4b95cfebf)" style="fill: none"/>
    <path d="M 196.48 71.04 
L 206.4 71.04 
L 206.4 41.472 
L 196.48 41.472 
L 196.48 71.04 
" clip-path="url(#pc4b95cfebf)" style="fill: none"/>
    <path d="M 206.4 71.04 
L 216.32 71.04 
L 216.32 41.472 
L 206.4 41.472 
L 206.4 71.04 
" clip-path="url(#pc4b95cfebf)" style="fill: none"/>
    <path d="M 216.32 71.04 
L 226.24 71.04 
L 226.24 41.472 
L 216.32 41.472 
L 216.32 71.04 
" clip-path="url(#pc4b95cfebf)" style="fill: none"/>
    <path d="M 226.24 71.04 
L 236.16 71.04 
L 236.16 41.472 
L 226.24 41.472 
L 226.24 71.04 
" clip-path="url(#pc4b95cfebf)" style="fill: none"/>
    <path d="M 236.16 71.04 
L 246.08 71.04 
L 246.08 41.472 
L 236.16 41.472 
L 236.16 71.04 
" clip-path="url(#pc4b95cfebf)" style="fill: none"/>
    <path d="M 246.08 71.04 
L 256 71.04 
L 256 41.472 
L 246.08 41.472 
L 246.08 71.04 
" clip-path="url(#pc4b95cfebf)" style="fill: none"/>
    <path d="M 256 71.04 
L 265.92 71.04 
L 265.92 41.472 
L 256 41.472 
L 256 71.04 
" clip-path="url(#pc4b95cfebf)" style="fill: none"/>
    <path d="M 265.92 71.04 
L 275.84 71.04 
L 275.84 41.472 
L 265.92 41.472 
L 265.92 71.04 
" clip-path="url(#pc4b95cfebf)" style="fill: none"/>
    <path d="M 275.84 71.04 
L 285.76 71.04 
L 285.76 41.472 
L 275.84 41.472 
L 275.84 71.04 
" clip-path="url(#pc4b95cfebf)" style="fill: none"/>
    <path d="M 285.76 71.04 
L 295.68 71.04 
L 295.68 41.472 
L 285.76 41.472 
L 285.76 71.04 
" clip-path="url(#pc4b95cfebf)" style="fill: none"/>
    <path d="M 295.68 71.04 
L 305.6 71.04 
L 305.6 41.472 
L 295.68 41.472 
L 295.68 71.04 
" clip-path="url(#pc4b95cfebf)" style="fill: none"/>
    <path d="M 305.6 71.04 
L 315.52 71.04 
L 315.52 41.472 
L 305.6 41.472 
L 305.6 71.04 
" clip-path="url(#pc4b95cfebf)" style="fill: none"/>
    <path d="M 315.52 71.04 
L 325.44 71.04 
L 325.44 41.472 
L 315.52 41.472 
L 315.52 71.04 
" clip-path="url(#pc4b95cfebf)" style="fill: none"/>
    <path d="M 325.44 71.04 
L 335.36 71.04 
L 335.36 41.472 
L 325.44 41.472 
L 325.44 71.04 
" clip-path="url(#pc4b95cfebf)" style="fill: none"/>
    <path d="M 335.36 71.04 
L 345.28 71.04 
L 345.28 41.472 
L 335.36 41.472 
L 335.36 71.04 
" clip-path="url(#pc4b95cfebf)" style="fill: none"/>
    <path d="M 345.28 71.04 
L 355.2 71.04 
L 355.2 41.472 
L 345.28 41.472 
L 345.28 71.04 
" clip-path="url(#pc4b95cfebf)" style="fill: none"/>
    <path d="M 355.2 71.04 
L 365.12 71.04 
L 365.12 41.472 
L 355.2 41.472 
L 355.2 71.04 
" clip-path="url(#pc4b95cfebf)" style="fill: none"/>
    <path d="M 365.12 71.04 
L 375.04 71.04 
L 375.04 41.472 
L 365.12 41.472 
L 365.12 71.04 
" clip-path="url(#pc4b95cfebf)" style="fill: none"/>
    <path d="M 375.04 71.04 
L 384.96 71.04 
L 384.96 41.472 
L 375.04 41.472 
L 375.04 71.04 
" clip-path="url(#pc4b95cfebf)" style="fill: none"/>
    <path d="M 384.96 71.04 
L 394.88 71.04 
L 394.88 41.472 
L 384.96 41.472 
L 384.96 71.04 
" clip-path="url(#pc4b95cfebf)" style="fill: none"/>
    <path d="M 394.88 71.04 
L 404.8 71.04 
L 404.8 41.472 
L 394.88 41.472 
L 394.88 71.04 
" clip-path="url(#pc4b95cfebf)" style="fill: none"/>
    <path d="M 404.8 71.04 
L 414.72 71.04 
L 414.72 41.472 
L 404.8 41.472 
L 404.8 71.04 
" clip-path="url(#pc4b95cfebf)" style="fill: none"/>
   </g>
   <g id="matplotlib.axis_1">
    <g id="xtick_1">
     <g id="line2d_1">
      <path d="M 57.6 307.584 
L 57.6 41.472 
" clip-path="url(#pc4b95cfebf)" style="fill: none; stroke: #b0b0b0; stroke-width: 0.8; stroke-linecap: square"/>
     </g>
     <g id="line2d_2">
      <defs>
       <path id="m1c1ece5677" d="M 0 0 
L 0 3.5 
" style="stroke: #000000; stroke-width: 0.8"/>
      </defs>
      <g>
       <use xlink:href="#m1c1ece5677" x="57.6" y="307.584" style="stroke: #000000; stroke-width: 0.8"/>
      </g>
     </g>
     <g id="text_1">
      <!-- 0 -->
      <g transform="translate(54.41875 322.182437) scale(0.1 -0.1)">
       <defs>
        <path id="DejaVuSans-30" d="M 2034 4250 
Q 1547 4250 1301 3770 
Q 1056 3291 1056 2328 
Q 1056 1369 1301 889 
Q 1547 409 2034 409 
Q 2525 409 2770 889 
Q 3016 1369 3016 2328 
Q 3016 3291 2770 3770 
Q 2525 4250 2034 4250 
z
M 2034 4750 
Q 2819 4750 3233 4129 
Q 3647 3509 3647 2328 
Q 3647 1150 3233 529 
Q 2819 -91 2034 -91 
Q 1250 -91 836 529 
Q 422 1150 422 2328 
Q 422 3509 836 4129 
Q 1250 4750 2034 4750 
z
" transform="scale(0.015625)"/>
       </defs>
       <use xlink:href="#DejaVuSans-30"/>
      </g>
     </g>
    </g>
    <g id="xtick_2">
     <g id="line2d_3">
      <path d="M 87.36 307.584 
L 87.36 41.472 
" clip-path="url(#pc4b95cfebf)" style="fill: none; stroke: #b0b0b0; stroke-width: 0.8; stroke-linecap: square"/>
     </g>
     <g id="line2d_4">
      <g>
       <use xlink:href="#m1c1ece5677" x="87.36" y="307.584" style="stroke: #000000; stroke-width: 0.8"/>
      </g>
     </g>
     <g id="text_2">
      <!-- 30 -->
      <g transform="translate(80.9975 322.182437) scale(0.1 -0.1)">
       <defs>
        <path id="DejaVuSans-33" d="M 2597 2516 
Q 3050 2419 3304 2112 
Q 3559 1806 3559 1356 
Q 3559 666 3084 287 
Q 2609 -91 1734 -91 
Q 1441 -91 1130 -33 
Q 819 25 488 141 
L 488 750 
Q 750 597 1062 519 
Q 1375 441 1716 441 
Q 2309 441 2620 675 
Q 2931 909 2931 1356 
Q 2931 1769 2642 2001 
Q 2353 2234 1838 2234 
L 1294 2234 
L 1294 2753 
L 1863 2753 
Q 2328 2753 2575 2939 
Q 2822 3125 2822 3475 
Q 2822 3834 2567 4026 
Q 2313 4219 1838 4219 
Q 1578 4219 1281 4162 
Q 984 4106 628 3988 
L 628 4550 
Q 988 4650 1302 4700 
Q 1616 4750 1894 4750 
Q 2613 4750 3031 4423 
Q 3450 4097 3450 3541 
Q 3450 3153 3228 2886 
Q 3006 2619 2597 2516 
z
" transform="scale(0.015625)"/>
       </defs>
       <use xlink:href="#DejaVuSans-33"/>
       <use xlink:href="#DejaVuSans-30" x="63.623047"/>
      </g>
     </g>
    </g>
    <g id="xtick_3">
     <g id="line2d_5">
      <path d="M 117.12 307.584 
L 117.12 41.472 
" clip-path="url(#pc4b95cfebf)" style="fill: none; stroke: #b0b0b0; stroke-width: 0.8; stroke-linecap: square"/>
     </g>
     <g id="line2d_6">
      <g>
       <use xlink:href="#m1c1ece5677" x="117.12" y="307.584" style="stroke: #000000; stroke-width: 0.8"/>
      </g>
     </g>
     <g id="text_3">
      <!-- 60 -->
      <g transform="translate(110.7575 322.182437) scale(0.1 -0.1)">
       <defs>
        <path id="DejaVuSans-36" d="M 2113 2584 
Q 1688 2584 1439 2293 
Q 1191 2003 1191 1497 
Q 1191 994 1439 701 
Q 1688 409 2113 409 
Q 2538 409 2786 701 
Q 3034 994 3034 1497 
Q 3034 2003 2786 2293 
Q 2538 2584 2113 2584 
z
M 3366 4563 
L 3366 3988 
Q 3128 4100 2886 4159 
Q 2644 4219 2406 4219 
Q 1781 4219 1451 3797 
Q 1122 3375 1075 2522 
Q 1259 2794 1537 2939 
Q 1816 3084 2150 3084 
Q 2853 3084 3261 2657 
Q 3669 2231 3669 1497 
Q 3669 778 3244 343 
Q 2819 -91 2113 -91 
Q 1303 -91 875 529 
Q 447 1150 447 2328 
Q 447 3434 972 4092 
Q 1497 4750 2381 4750 
Q 2619 4750 2861 4703 
Q 3103 4656 3366 4563 
z
" transform="scale(0.015625)"/>
       </defs>
       <use xlink:href="#DejaVuSans-36"/>
       <use xlink:href="#DejaVuSans-30" x="63.623047"/>
      </g>
     </g>
    </g>
    <g id="xtick_4">
     <g id="line2d_7">
      <path d="M 146.88 307.584 
L 146.88 41.472 
" clip-path="url(#pc4b95cfebf)" style="fill: none; stroke: #b0b0b0; stroke-width: 0.8; stroke-linecap: square"/>
     </g>
     <g id="line2d_8">
      <g>
       <use xlink:href="#m1c1ece5677" x="146.88" y="307.584" style="stroke: #000000; stroke-width: 0.8"/>
      </g>
     </g>
     <g id="text_4">
      <!-- 90 -->
      <g transform="translate(140.5175 322.182437) scale(0.1 -0.1)">
       <defs>
        <path id="DejaVuSans-39" d="M 703 97 
L 703 672 
Q 941 559 1184 500 
Q 1428 441 1663 441 
Q 2288 441 2617 861 
Q 2947 1281 2994 2138 
Q 2813 1869 2534 1725 
Q 2256 1581 1919 1581 
Q 1219 1581 811 2004 
Q 403 2428 403 3163 
Q 403 3881 828 4315 
Q 1253 4750 1959 4750 
Q 2769 4750 3195 4129 
Q 3622 3509 3622 2328 
Q 3622 1225 3098 567 
Q 2575 -91 1691 -91 
Q 1453 -91 1209 -44 
Q 966 3 703 97 
z
M 1959 2075 
Q 2384 2075 2632 2365 
Q 2881 2656 2881 3163 
Q 2881 3666 2632 3958 
Q 2384 4250 1959 4250 
Q 1534 4250 1286 3958 
Q 1038 3666 1038 3163 
Q 1038 2656 1286 2365 
Q 1534 2075 1959 2075 
z
" transform="scale(0.015625)"/>
       </defs>
       <use xlink:href="#DejaVuSans-39"/>
       <use xlink:href="#DejaVuSans-30" x="63.623047"/>
      </g>
     </g>
    </g>
    <g id="xtick_5">
     <g id="line2d_9">
      <path d="M 176.64 307.584 
L 176.64 41.472 
" clip-path="url(#pc4b95cfebf)" style="fill: none; stroke: #b0b0b0; stroke-width: 0.8; stroke-linecap: square"/>
     </g>
     <g id="line2d_10">
      <g>
       <use xlink:href="#m1c1ece5677" x="176.64" y="307.584" style="stroke: #000000; stroke-width: 0.8"/>
      </g>
     </g>
     <g id="text_5">
      <!-- 120 -->
      <g transform="translate(167.09625 322.182437) scale(0.1 -0.1)">
       <defs>
        <path id="DejaVuSans-31" d="M 794 531 
L 1825 531 
L 1825 4091 
L 703 3866 
L 703 4441 
L 1819 4666 
L 2450 4666 
L 2450 531 
L 3481 531 
L 3481 0 
L 794 0 
L 794 531 
z
" transform="scale(0.015625)"/>
        <path id="DejaVuSans-32" d="M 1228 531 
L 3431 531 
L 3431 0 
L 469 0 
L 469 531 
Q 828 903 1448 1529 
Q 2069 2156 2228 2338 
Q 2531 2678 2651 2914 
Q 2772 3150 2772 3378 
Q 2772 3750 2511 3984 
Q 2250 4219 1831 4219 
Q 1534 4219 1204 4116 
Q 875 4013 500 3803 
L 500 4441 
Q 881 4594 1212 4672 
Q 1544 4750 1819 4750 
Q 2544 4750 2975 4387 
Q 3406 4025 3406 3419 
Q 3406 3131 3298 2873 
Q 3191 2616 2906 2266 
Q 2828 2175 2409 1742 
Q 1991 1309 1228 531 
z
" transform="scale(0.015625)"/>
       </defs>
       <use xlink:href="#DejaVuSans-31"/>
       <use xlink:href="#DejaVuSans-32" x="63.623047"/>
       <use xlink:href="#DejaVuSans-30" x="127.246094"/>
      </g>
     </g>
    </g>
    <g id="xtick_6">
     <g id="line2d_11">
      <path d="M 206.4 307.584 
L 206.4 41.472 
" clip-path="url(#pc4b95cfebf)" style="fill: none; stroke: #b0b0b0; stroke-width: 0.8; stroke-linecap: square"/>
     </g>
     <g id="line2d_12">
      <g>
       <use xlink:href="#m1c1ece5677" x="206.4" y="307.584" style="stroke: #000000; stroke-width: 0.8"/>
      </g>
     </g>
     <g id="text_6">
      <!-- 150 -->
      <g transform="translate(196.85625 322.182437) scale(0.1 -0.1)">
       <defs>
        <path id="DejaVuSans-35" d="M 691 4666 
L 3169 4666 
L 3169 4134 
L 1269 4134 
L 1269 2991 
Q 1406 3038 1543 3061 
Q 1681 3084 1819 3084 
Q 2600 3084 3056 2656 
Q 3513 2228 3513 1497 
Q 3513 744 3044 326 
Q 2575 -91 1722 -91 
Q 1428 -91 1123 -41 
Q 819 9 494 109 
L 494 744 
Q 775 591 1075 516 
Q 1375 441 1709 441 
Q 2250 441 2565 725 
Q 2881 1009 2881 1497 
Q 2881 1984 2565 2268 
Q 2250 2553 1709 2553 
Q 1456 2553 1204 2497 
Q 953 2441 691 2322 
L 691 4666 
z
" transform="scale(0.015625)"/>
       </defs>
       <use xlink:href="#DejaVuSans-31"/>
       <use xlink:href="#DejaVuSans-35" x="63.623047"/>
       <use xlink:href="#DejaVuSans-30" x="127.246094"/>
      </g>
     </g>
    </g>
    <g id="xtick_7">
     <g id="line2d_13">
      <path d="M 236.16 307.584 
L 236.16 41.472 
" clip-path="url(#pc4b95cfebf)" style="fill: none; stroke: #b0b0b0; stroke-width: 0.8; stroke-linecap: square"/>
     </g>
     <g id="line2d_14">
      <g>
       <use xlink:href="#m1c1ece5677" x="236.16" y="307.584" style="stroke: #000000; stroke-width: 0.8"/>
      </g>
     </g>
     <g id="text_7">
      <!-- 180 -->
      <g transform="translate(226.61625 322.182437) scale(0.1 -0.1)">
       <defs>
        <path id="DejaVuSans-38" d="M 2034 2216 
Q 1584 2216 1326 1975 
Q 1069 1734 1069 1313 
Q 1069 891 1326 650 
Q 1584 409 2034 409 
Q 2484 409 2743 651 
Q 3003 894 3003 1313 
Q 3003 1734 2745 1975 
Q 2488 2216 2034 2216 
z
M 1403 2484 
Q 997 2584 770 2862 
Q 544 3141 544 3541 
Q 544 4100 942 4425 
Q 1341 4750 2034 4750 
Q 2731 4750 3128 4425 
Q 3525 4100 3525 3541 
Q 3525 3141 3298 2862 
Q 3072 2584 2669 2484 
Q 3125 2378 3379 2068 
Q 3634 1759 3634 1313 
Q 3634 634 3220 271 
Q 2806 -91 2034 -91 
Q 1263 -91 848 271 
Q 434 634 434 1313 
Q 434 1759 690 2068 
Q 947 2378 1403 2484 
z
M 1172 3481 
Q 1172 3119 1398 2916 
Q 1625 2713 2034 2713 
Q 2441 2713 2670 2916 
Q 2900 3119 2900 3481 
Q 2900 3844 2670 4047 
Q 2441 4250 2034 4250 
Q 1625 4250 1398 4047 
Q 1172 3844 1172 3481 
z
" transform="scale(0.015625)"/>
       </defs>
       <use xlink:href="#DejaVuSans-31"/>
       <use xlink:href="#DejaVuSans-38" x="63.623047"/>
       <use xlink:href="#DejaVuSans-30" x="127.246094"/>
      </g>
     </g>
    </g>
    <g id="xtick_8">
     <g id="line2d_15">
      <path d="M 265.92 307.584 
L 265.92 41.472 
" clip-path="url(#pc4b95cfebf)" style="fill: none; stroke: #b0b0b0; stroke-width: 0.8; stroke-linecap: square"/>
     </g>
     <g id="line2d_16">
      <g>
       <use xlink:href="#m1c1ece5677" x="265.92" y="307.584" style="stroke: #000000; stroke-width: 0.8"/>
      </g>
     </g>
     <g id="text_8">
      <!-- 210 -->
      <g transform="translate(256.37625 322.182437) scale(0.1 -0.1)">
       <use xlink:href="#DejaVuSans-32"/>
       <use xlink:href="#DejaVuSans-31" x="63.623047"/>
       <use xlink:href="#DejaVuSans-30" x="127.246094"/>
      </g>
     </g>
    </g>
    <g id="xtick_9">
     <g id="line2d_17">
      <path d="M 295.68 307.584 
L 295.68 41.472 
" clip-path="url(#pc4b95cfebf)" style="fill: none; stroke: #b0b0b0; stroke-width: 0.8; stroke-linecap: square"/>
     </g>
     <g id="line2d_18">
      <g>
       <use xlink:href="#m1c1ece5677" x="295.68" y="307.584" style="stroke: #000000; stroke-width: 0.8"/>
      </g>
     </g>
     <g id="text_9">
      <!-- 240 -->
      <g transform="translate(286.13625 322.182437) scale(0.1 -0.1)">
       <defs>
        <path id="DejaVuSans-34" d="M 2419 4116 
L 825 1625 
L 2419 1625 
L 2419 4116 
z
M 2253 4666 
L 3047 4666 
L 3047 1625 
L 3713 1625 
L 3713 1100 
L 3047 1100 
L 3047 0 
L 2419 0 
L 2419 1100 
L 313 1100 
L 313 1709 
L 2253 4666 
z
" transform="scale(0.015625)"/>
       </defs>
       <use xlink:href="#DejaVuSans-32"/>
       <use xlink:href="#DejaVuSans-34" x="63.623047"/>
       <use xlink:href="#DejaVuSans-30" x="127.246094"/>
      </g>
     </g>
    </g>
    <g id="xtick_10">
     <g id="line2d_19">
      <path d="M 325.44 307.584 
L 325.44 41.472 
" clip-path="url(#pc4b95cfebf)" style="fill: none; stroke: #b0b0b0; stroke-width: 0.8; stroke-linecap: square"/>
     </g>
     <g id="line2d_20">
      <g>
       <use xlink:href="#m1c1ece5677" x="325.44" y="307.584" style="stroke: #000000; stroke-width: 0.8"/>
      </g>
     </g>
     <g id="text_10">
      <!-- 270 -->
      <g transform="translate(315.89625 322.182437) scale(0.1 -0.1)">
       <defs>
        <path id="DejaVuSans-37" d="M 525 4666 
L 3525 4666 
L 3525 4397 
L 1831 0 
L 1172 0 
L 2766 4134 
L 525 4134 
L 525 4666 
z
" transform="scale(0.015625)"/>
       </defs>
       <use xlink:href="#DejaVuSans-32"/>
       <use xlink:href="#DejaVuSans-37" x="63.623047"/>
       <use xlink:href="#DejaVuSans-30" x="127.246094"/>
      </g>
     </g>
    </g>
    <g id="xtick_11">
     <g id="line2d_21">
      <path d="M 355.2 307.584 
L 355.2 41.472 
" clip-path="url(#pc4b95cfebf)" style="fill: none; stroke: #b0b0b0; stroke-width: 0.8; stroke-linecap: square"/>
     </g>
     <g id="line2d_22">
      <g>
       <use xlink:href="#m1c1ece5677" x="355.2" y="307.584" style="stroke: #000000; stroke-width: 0.8"/>
      </g>
     </g>
     <g id="text_11">
      <!-- 300 -->
      <g transform="translate(345.65625 322.182437) scale(0.1 -0.1)">
       <use xlink:href="#DejaVuSans-33"/>
       <use xlink:href="#DejaVuSans-30" x="63.623047"/>
       <use xlink:href="#DejaVuSans-30" x="127.246094"/>
      </g>
     </g>
    </g>
    <g id="xtick_12">
     <g id="line2d_23">
      <path d="M 384.96 307.584 
L 384.96 41.472 
" clip-path="url(#pc4b95cfebf)" style="fill: none; stroke: #b0b0b0; stroke-width: 0.8; stroke-linecap: square"/>
     </g>
     <g id="line2d_24">
      <g>
       <use xlink:href="#m1c1ece5677" x="384.96" y="307.584" style="stroke: #000000; stroke-width: 0.8"/>
      </g>
     </g>
     <g id="text_12">
      <!-- 330 -->
      <g transform="translate(375.41625 322.182437) scale(0.1 -0.1)">
       <use xlink:href="#DejaVuSans-33"/>
       <use xlink:href="#DejaVuSans-33" x="63.623047"/>
       <use xlink:href="#DejaVuSans-30" x="127.246094"/>
      </g>
     </g>
    </g>
    <g id="xtick_13">
     <g id="line2d_25">
      <path d="M 414.72 307.584 
L 414.72 41.472 
" clip-path="url(#pc4b95cfebf)" style="fill: none; stroke: #b0b0b0; stroke-width: 0.8; stroke-linecap: square"/>
     </g>
     <g id="line2d_26">
      <g>
       <use xlink:href="#m1c1ece5677" x="414.72" y="307.584" style="stroke: #000000; stroke-width: 0.8"/>
      </g>
     </g>
     <g id="text_13">
      <!-- 360 -->
      <g transform="translate(405.17625 322.182437) scale(0.1 -0.1)">
       <use xlink:href="#DejaVuSans-33"/>
       <use xlink:href="#DejaVuSans-36" x="63.623047"/>
       <use xlink:href="#DejaVuSans-30" x="127.246094"/>
      </g>
     </g>
    </g>
    <g id="text_14">
     <!-- Panel Azimuth [] -->
     <g transform="translate(192.490469 335.860562) scale(0.1 -0.1)">
      <defs>
       <path id="DejaVuSans-50" d="M 1259 4147 
L 1259 2394 
L 2053 2394 
Q 2494 2394 2734 2622 
Q 2975 2850 2975 3272 
Q 2975 3691 2734 3919 
Q 2494 4147 2053 4147 
L 1259 4147 
z
M 628 4666 
L 2053 4666 
Q 2838 4666 3239 4311 
Q 3641 3956 3641 3272 
Q 3641 2581 3239 2228 
Q 2838 1875 2053 1875 
L 1259 1875 
L 1259 0 
L 628 0 
L 628 4666 
z
" transform="scale(0.015625)"/>
       <path id="DejaVuSans-61" d="M 2194 1759 
Q 1497 1759 1228 1600 
Q 959 1441 959 1056 
Q 959 750 1161 570 
Q 1363 391 1709 391 
Q 2188 391 2477 730 
Q 2766 1069 2766 1631 
L 2766 1759 
L 2194 1759 
z
M 3341 1997 
L 3341 0 
L 2766 0 
L 2766 531 
Q 2569 213 2275 61 
Q 1981 -91 1556 -91 
Q 1019 -91 701 211 
Q 384 513 384 1019 
Q 384 1609 779 1909 
Q 1175 2209 1959 2209 
L 2766 2209 
L 2766 2266 
Q 2766 2663 2505 2880 
Q 2244 3097 1772 3097 
Q 1472 3097 1187 3025 
Q 903 2953 641 2809 
L 641 3341 
Q 956 3463 1253 3523 
Q 1550 3584 1831 3584 
Q 2591 3584 2966 3190 
Q 3341 2797 3341 1997 
z
" transform="scale(0.015625)"/>
       <path id="DejaVuSans-6e" d="M 3513 2113 
L 3513 0 
L 2938 0 
L 2938 2094 
Q 2938 2591 2744 2837 
Q 2550 3084 2163 3084 
Q 1697 3084 1428 2787 
Q 1159 2491 1159 1978 
L 1159 0 
L 581 0 
L 581 3500 
L 1159 3500 
L 1159 2956 
Q 1366 3272 1645 3428 
Q 1925 3584 2291 3584 
Q 2894 3584 3203 3211 
Q 3513 2838 3513 2113 
z
" transform="scale(0.015625)"/>
       <path id="DejaVuSans-65" d="M 3597 1894 
L 3597 1613 
L 953 1613 
Q 991 1019 1311 708 
Q 1631 397 2203 397 
Q 2534 397 2845 478 
Q 3156 559 3463 722 
L 3463 178 
Q 3153 47 2828 -22 
Q 2503 -91 2169 -91 
Q 1331 -91 842 396 
Q 353 884 353 1716 
Q 353 2575 817 3079 
Q 1281 3584 2069 3584 
Q 2775 3584 3186 3129 
Q 3597 2675 3597 1894 
z
M 3022 2063 
Q 3016 2534 2758 2815 
Q 2500 3097 2075 3097 
Q 1594 3097 1305 2825 
Q 1016 2553 972 2059 
L 3022 2063 
z
" transform="scale(0.015625)"/>
       <path id="DejaVuSans-6c" d="M 603 4863 
L 1178 4863 
L 1178 0 
L 603 0 
L 603 4863 
z
" transform="scale(0.015625)"/>
       <path id="DejaVuSans-20" transform="scale(0.015625)"/>
       <path id="DejaVuSans-41" d="M 2188 4044 
L 1331 1722 
L 3047 1722 
L 2188 4044 
z
M 1831 4666 
L 2547 4666 
L 4325 0 
L 3669 0 
L 3244 1197 
L 1141 1197 
L 716 0 
L 50 0 
L 1831 4666 
z
" transform="scale(0.015625)"/>
       <path id="DejaVuSans-7a" d="M 353 3500 
L 3084 3500 
L 3084 2975 
L 922 459 
L 3084 459 
L 3084 0 
L 275 0 
L 275 525 
L 2438 3041 
L 353 3041 
L 353 3500 
z
" transform="scale(0.015625)"/>
       <path id="DejaVuSans-69" d="M 603 3500 
L 1178 3500 
L 1178 0 
L 603 0 
L 603 3500 
z
M 603 4863 
L 1178 4863 
L 1178 4134 
L 603 4134 
L 603 4863 
z
" transform="scale(0.015625)"/>
       <path id="DejaVuSans-6d" d="M 3328 2828 
Q 3544 3216 3844 3400 
Q 4144 3584 4550 3584 
Q 5097 3584 5394 3201 
Q 5691 2819 5691 2113 
L 5691 0 
L 5113 0 
L 5113 2094 
Q 5113 2597 4934 2840 
Q 4756 3084 4391 3084 
Q 3944 3084 3684 2787 
Q 3425 2491 3425 1978 
L 3425 0 
L 2847 0 
L 2847 2094 
Q 2847 2600 2669 2842 
Q 2491 3084 2119 3084 
Q 1678 3084 1418 2786 
Q 1159 2488 1159 1978 
L 1159 0 
L 581 0 
L 581 3500 
L 1159 3500 
L 1159 2956 
Q 1356 3278 1631 3431 
Q 1906 3584 2284 3584 
Q 2666 3584 2933 3390 
Q 3200 3197 3328 2828 
z
" transform="scale(0.015625)"/>
       <path id="DejaVuSans-75" d="M 544 1381 
L 544 3500 
L 1119 3500 
L 1119 1403 
Q 1119 906 1312 657 
Q 1506 409 1894 409 
Q 2359 409 2629 706 
Q 2900 1003 2900 1516 
L 2900 3500 
L 3475 3500 
L 3475 0 
L 2900 0 
L 2900 538 
Q 2691 219 2414 64 
Q 2138 -91 1772 -91 
Q 1169 -91 856 284 
Q 544 659 544 1381 
z
M 1991 3584 
L 1991 3584 
z
" transform="scale(0.015625)"/>
       <path id="DejaVuSans-74" d="M 1172 4494 
L 1172 3500 
L 2356 3500 
L 2356 3053 
L 1172 3053 
L 1172 1153 
Q 1172 725 1289 603 
Q 1406 481 1766 481 
L 2356 481 
L 2356 0 
L 1766 0 
Q 1100 0 847 248 
Q 594 497 594 1153 
L 594 3053 
L 172 3053 
L 172 3500 
L 594 3500 
L 594 4494 
L 1172 4494 
z
" transform="scale(0.015625)"/>
       <path id="DejaVuSans-68" d="M 3513 2113 
L 3513 0 
L 2938 0 
L 2938 2094 
Q 2938 2591 2744 2837 
Q 2550 3084 2163 3084 
Q 1697 3084 1428 2787 
Q 1159 2491 1159 1978 
L 1159 0 
L 581 0 
L 581 4863 
L 1159 4863 
L 1159 2956 
Q 1366 3272 1645 3428 
Q 1925 3584 2291 3584 
Q 2894 3584 3203 3211 
Q 3513 2838 3513 2113 
z
" transform="scale(0.015625)"/>
       <path id="DejaVuSans-5b" d="M 550 4863 
L 1875 4863 
L 1875 4416 
L 1125 4416 
L 1125 -397 
L 1875 -397 
L 1875 -844 
L 550 -844 
L 550 4863 
z
" transform="scale(0.015625)"/>
       <path id="DejaVuSans-b0" d="M 1600 4347 
Q 1350 4347 1178 4173 
Q 1006 4000 1006 3750 
Q 1006 3503 1178 3333 
Q 1350 3163 1600 3163 
Q 1850 3163 2022 3333 
Q 2194 3503 2194 3750 
Q 2194 3997 2020 4172 
Q 1847 4347 1600 4347 
z
M 1600 4750 
Q 1800 4750 1984 4673 
Q 2169 4597 2303 4453 
Q 2447 4313 2519 4134 
Q 2591 3956 2591 3750 
Q 2591 3338 2302 3052 
Q 2013 2766 1594 2766 
Q 1172 2766 890 3047 
Q 609 3328 609 3750 
Q 609 4169 896 4459 
Q 1184 4750 1600 4750 
z
" transform="scale(0.015625)"/>
       <path id="DejaVuSans-5d" d="M 1947 4863 
L 1947 -844 
L 622 -844 
L 622 -397 
L 1369 -397 
L 1369 4416 
L 622 4416 
L 622 4863 
L 1947 4863 
z
" transform="scale(0.015625)"/>
      </defs>
      <use xlink:href="#DejaVuSans-50"/>
      <use xlink:href="#DejaVuSans-61" x="55.802734"/>
      <use xlink:href="#DejaVuSans-6e" x="117.082031"/>
      <use xlink:href="#DejaVuSans-65" x="180.460938"/>
      <use xlink:href="#DejaVuSans-6c" x="241.984375"/>
      <use xlink:href="#DejaVuSans-20" x="269.767578"/>
      <use xlink:href="#DejaVuSans-41" x="301.554688"/>
      <use xlink:href="#DejaVuSans-7a" x="369.962891"/>
      <use xlink:href="#DejaVuSans-69" x="422.453125"/>
      <use xlink:href="#DejaVuSans-6d" x="450.236328"/>
      <use xlink:href="#DejaVuSans-75" x="547.648438"/>
      <use xlink:href="#DejaVuSans-74" x="611.027344"/>
      <use xlink:href="#DejaVuSans-68" x="650.236328"/>
      <use xlink:href="#DejaVuSans-20" x="713.615234"/>
      <use xlink:href="#DejaVuSans-5b" x="745.402344"/>
      <use xlink:href="#DejaVuSans-b0" x="784.416016"/>
      <use xlink:href="#DejaVuSans-5d" x="834.416016"/>
     </g>
    </g>
   </g>
   <g id="matplotlib.axis_2">
    <g id="ytick_1">
     <g id="line2d_27">
      <path d="M 57.6 307.584 
L 414.72 307.584 
" clip-path="url(#pc4b95cfebf)" style="fill: none; stroke: #b0b0b0; stroke-width: 0.8; stroke-linecap: square"/>
     </g>
     <g id="line2d_28">
      <defs>
       <path id="m64188ba163" d="M 0 0 
L -3.5 0 
" style="stroke: #000000; stroke-width: 0.8"/>
      </defs>
      <g>
       <use xlink:href="#m64188ba163" x="57.6" y="307.584" style="stroke: #000000; stroke-width: 0.8"/>
      </g>
     </g>
     <g id="text_15">
      <!-- 0 -->
      <g transform="translate(44.2375 311.383219) scale(0.1 -0.1)">
       <use xlink:href="#DejaVuSans-30"/>
      </g>
     </g>
    </g>
    <g id="ytick_2">
     <g id="line2d_29">
      <path d="M 57.6 278.016 
L 414.72 278.016 
" clip-path="url(#pc4b95cfebf)" style="fill: none; stroke: #b0b0b0; stroke-width: 0.8; stroke-linecap: square"/>
     </g>
     <g id="line2d_30">
      <g>
       <use xlink:href="#m64188ba163" x="57.6" y="278.016" style="stroke: #000000; stroke-width: 0.8"/>
      </g>
     </g>
     <g id="text_16">
      <!-- 10 -->
      <g transform="translate(37.875 281.815219) scale(0.1 -0.1)">
       <use xlink:href="#DejaVuSans-31"/>
       <use xlink:href="#DejaVuSans-30" x="63.623047"/>
      </g>
     </g>
    </g>
    <g id="ytick_3">
     <g id="line2d_31">
      <path d="M 57.6 248.448 
L 414.72 248.448 
" clip-path="url(#pc4b95cfebf)" style="fill: none; stroke: #b0b0b0; stroke-width: 0.8; stroke-linecap: square"/>
     </g>
     <g id="line2d_32">
      <g>
       <use xlink:href="#m64188ba163" x="57.6" y="248.448" style="stroke: #000000; stroke-width: 0.8"/>
      </g>
     </g>
     <g id="text_17">
      <!-- 20 -->
      <g transform="translate(37.875 252.247219) scale(0.1 -0.1)">
       <use xlink:href="#DejaVuSans-32"/>
       <use xlink:href="#DejaVuSans-30" x="63.623047"/>
      </g>
     </g>
    </g>
    <g id="ytick_4">
     <g id="line2d_33">
      <path d="M 57.6 218.88 
L 414.72 218.88 
" clip-path="url(#pc4b95cfebf)" style="fill: none; stroke: #b0b0b0; stroke-width: 0.8; stroke-linecap: square"/>
     </g>
     <g id="line2d_34">
      <g>
       <use xlink:href="#m64188ba163" x="57.6" y="218.88" style="stroke: #000000; stroke-width: 0.8"/>
      </g>
     </g>
     <g id="text_18">
      <!-- 30 -->
      <g transform="translate(37.875 222.679219) scale(0.1 -0.1)">
       <use xlink:href="#DejaVuSans-33"/>
       <use xlink:href="#DejaVuSans-30" x="63.623047"/>
      </g>
     </g>
    </g>
    <g id="ytick_5">
     <g id="line2d_35">
      <path d="M 57.6 189.312 
L 414.72 189.312 
" clip-path="url(#pc4b95cfebf)" style="fill: none; stroke: #b0b0b0; stroke-width: 0.8; stroke-linecap: square"/>
     </g>
     <g id="line2d_36">
      <g>
       <use xlink:href="#m64188ba163" x="57.6" y="189.312" style="stroke: #000000; stroke-width: 0.8"/>
      </g>
     </g>
     <g id="text_19">
      <!-- 40 -->
      <g transform="translate(37.875 193.111219) scale(0.1 -0.1)">
       <use xlink:href="#DejaVuSans-34"/>
       <use xlink:href="#DejaVuSans-30" x="63.623047"/>
      </g>
     </g>
    </g>
    <g id="ytick_6">
     <g id="line2d_37">
      <path d="M 57.6 159.744 
L 414.72 159.744 
" clip-path="url(#pc4b95cfebf)" style="fill: none; stroke: #b0b0b0; stroke-width: 0.8; stroke-linecap: square"/>
     </g>
     <g id="line2d_38">
      <g>
       <use xlink:href="#m64188ba163" x="57.6" y="159.744" style="stroke: #000000; stroke-width: 0.8"/>
      </g>
     </g>
     <g id="text_20">
      <!-- 50 -->
      <g transform="translate(37.875 163.543219) scale(0.1 -0.1)">
       <use xlink:href="#DejaVuSans-35"/>
       <use xlink:href="#DejaVuSans-30" x="63.623047"/>
      </g>
     </g>
    </g>
    <g id="ytick_7">
     <g id="line2d_39">
      <path d="M 57.6 130.176 
L 414.72 130.176 
" clip-path="url(#pc4b95cfebf)" style="fill: none; stroke: #b0b0b0; stroke-width: 0.8; stroke-linecap: square"/>
     </g>
     <g id="line2d_40">
      <g>
       <use xlink:href="#m64188ba163" x="57.6" y="130.176" style="stroke: #000000; stroke-width: 0.8"/>
      </g>
     </g>
     <g id="text_21">
      <!-- 60 -->
      <g transform="translate(37.875 133.975219) scale(0.1 -0.1)">
       <use xlink:href="#DejaVuSans-36"/>
       <use xlink:href="#DejaVuSans-30" x="63.623047"/>
      </g>
     </g>
    </g>
    <g id="ytick_8">
     <g id="line2d_41">
      <path d="M 57.6 100.608 
L 414.72 100.608 
" clip-path="url(#pc4b95cfebf)" style="fill: none; stroke: #b0b0b0; stroke-width: 0.8; stroke-linecap: square"/>
     </g>
     <g id="line2d_42">
      <g>
       <use xlink:href="#m64188ba163" x="57.6" y="100.608" style="stroke: #000000; stroke-width: 0.8"/>
      </g>
     </g>
     <g id="text_22">
      <!-- 70 -->
      <g transform="translate(37.875 104.407219) scale(0.1 -0.1)">
       <use xlink:href="#DejaVuSans-37"/>
       <use xlink:href="#DejaVuSans-30" x="63.623047"/>
      </g>
     </g>
    </g>
    <g id="ytick_9">
     <g id="line2d_43">
      <path d="M 57.6 71.04 
L 414.72 71.04 
" clip-path="url(#pc4b95cfebf)" style="fill: none; stroke: #b0b0b0; stroke-width: 0.8; stroke-linecap: square"/>
     </g>
     <g id="line2d_44">
      <g>
       <use xlink:href="#m64188ba163" x="57.6" y="71.04" style="stroke: #000000; stroke-width: 0.8"/>
      </g>
     </g>
     <g id="text_23">
      <!-- 80 -->
      <g transform="translate(37.875 74.839219) scale(0.1 -0.1)">
       <use xlink:href="#DejaVuSans-38"/>
       <use xlink:href="#DejaVuSans-30" x="63.623047"/>
      </g>
     </g>
    </g>
    <g id="ytick_10">
     <g id="line2d_45">
      <path d="M 57.6 41.472 
L 414.72 41.472 
" clip-path="url(#pc4b95cfebf)" style="fill: none; stroke: #b0b0b0; stroke-width: 0.8; stroke-linecap: square"/>
     </g>
     <g id="line2d_46">
      <g>
       <use xlink:href="#m64188ba163" x="57.6" y="41.472" style="stroke: #000000; stroke-width: 0.8"/>
      </g>
     </g>
     <g id="text_24">
      <!-- 90 -->
      <g transform="translate(37.875 45.271219) scale(0.1 -0.1)">
       <use xlink:href="#DejaVuSans-39"/>
       <use xlink:href="#DejaVuSans-30" x="63.623047"/>
      </g>
     </g>
    </g>
    <g id="text_25">
     <!-- Panel Tilt [] -->
     <g transform="translate(31.795312 205.231906) rotate(-90) scale(0.1 -0.1)">
      <defs>
       <path id="DejaVuSans-54" d="M -19 4666 
L 3928 4666 
L 3928 4134 
L 2272 4134 
L 2272 0 
L 1638 0 
L 1638 4134 
L -19 4134 
L -19 4666 
z
" transform="scale(0.015625)"/>
      </defs>
      <use xlink:href="#DejaVuSans-50"/>
      <use xlink:href="#DejaVuSans-61" x="55.802734"/>
      <use xlink:href="#DejaVuSans-6e" x="117.082031"/>
      <use xlink:href="#DejaVuSans-65" x="180.460938"/>
      <use xlink:href="#DejaVuSans-6c" x="241.984375"/>
      <use xlink:href="#DejaVuSans-20" x="269.767578"/>
      <use xlink:href="#DejaVuSans-54" x="301.554688"/>
      <use xlink:href="#DejaVuSans-69" x="359.513672"/>
      <use xlink:href="#DejaVuSans-6c" x="387.296875"/>
      <use xlink:href="#DejaVuSans-74" x="415.080078"/>
      <use xlink:href="#DejaVuSans-20" x="454.289062"/>
      <use xlink:href="#DejaVuSans-5b" x="486.076172"/>
      <use xlink:href="#DejaVuSans-b0" x="525.089844"/>
      <use xlink:href="#DejaVuSans-5d" x="575.089844"/>
     </g>
    </g>
   </g>
   <g id="patch_3">
    <path d="M 57.6 307.584 
L 57.6 41.472 
" style="fill: none; stroke: #000000; stroke-width: 0.8; stroke-linejoin: miter; stroke-linecap: square"/>
   </g>
   <g id="patch_4">
    <path d="M 414.72 307.584 
L 414.72 41.472 
" style="fill: none; stroke: #000000; stroke-width: 0.8; stroke-linejoin: miter; stroke-linecap: square"/>
   </g>
   <g id="patch_5">
    <path d="M 57.6 307.584 
L 414.72 307.584 
" style="fill: none; stroke: #000000; stroke-width: 0.8; stroke-linejoin: miter; stroke-linecap: square"/>
   </g>
   <g id="patch_6">
    <path d="M 57.6 41.472 
L 414.72 41.472 
" style="fill: none; stroke: #000000; stroke-width: 0.8; stroke-linejoin: miter; stroke-linecap: square"/>
   </g>
   <g id="text_26">
    <!-- Distribution of panel orientations -->
    <g transform="translate(137.059687 35.472) scale(0.12 -0.12)">
     <defs>
      <path id="DejaVuSans-44" d="M 1259 4147 
L 1259 519 
L 2022 519 
Q 2988 519 3436 956 
Q 3884 1394 3884 2338 
Q 3884 3275 3436 3711 
Q 2988 4147 2022 4147 
L 1259 4147 
z
M 628 4666 
L 1925 4666 
Q 3281 4666 3915 4102 
Q 4550 3538 4550 2338 
Q 4550 1131 3912 565 
Q 3275 0 1925 0 
L 628 0 
L 628 4666 
z
" transform="scale(0.015625)"/>
      <path id="DejaVuSans-73" d="M 2834 3397 
L 2834 2853 
Q 2591 2978 2328 3040 
Q 2066 3103 1784 3103 
Q 1356 3103 1142 2972 
Q 928 2841 928 2578 
Q 928 2378 1081 2264 
Q 1234 2150 1697 2047 
L 1894 2003 
Q 2506 1872 2764 1633 
Q 3022 1394 3022 966 
Q 3022 478 2636 193 
Q 2250 -91 1575 -91 
Q 1294 -91 989 -36 
Q 684 19 347 128 
L 347 722 
Q 666 556 975 473 
Q 1284 391 1588 391 
Q 1994 391 2212 530 
Q 2431 669 2431 922 
Q 2431 1156 2273 1281 
Q 2116 1406 1581 1522 
L 1381 1569 
Q 847 1681 609 1914 
Q 372 2147 372 2553 
Q 372 3047 722 3315 
Q 1072 3584 1716 3584 
Q 2034 3584 2315 3537 
Q 2597 3491 2834 3397 
z
" transform="scale(0.015625)"/>
      <path id="DejaVuSans-72" d="M 2631 2963 
Q 2534 3019 2420 3045 
Q 2306 3072 2169 3072 
Q 1681 3072 1420 2755 
Q 1159 2438 1159 1844 
L 1159 0 
L 581 0 
L 581 3500 
L 1159 3500 
L 1159 2956 
Q 1341 3275 1631 3429 
Q 1922 3584 2338 3584 
Q 2397 3584 2469 3576 
Q 2541 3569 2628 3553 
L 2631 2963 
z
" transform="scale(0.015625)"/>
      <path id="DejaVuSans-62" d="M 3116 1747 
Q 3116 2381 2855 2742 
Q 2594 3103 2138 3103 
Q 1681 3103 1420 2742 
Q 1159 2381 1159 1747 
Q 1159 1113 1420 752 
Q 1681 391 2138 391 
Q 2594 391 2855 752 
Q 3116 1113 3116 1747 
z
M 1159 2969 
Q 1341 3281 1617 3432 
Q 1894 3584 2278 3584 
Q 2916 3584 3314 3078 
Q 3713 2572 3713 1747 
Q 3713 922 3314 415 
Q 2916 -91 2278 -91 
Q 1894 -91 1617 61 
Q 1341 213 1159 525 
L 1159 0 
L 581 0 
L 581 4863 
L 1159 4863 
L 1159 2969 
z
" transform="scale(0.015625)"/>
      <path id="DejaVuSans-6f" d="M 1959 3097 
Q 1497 3097 1228 2736 
Q 959 2375 959 1747 
Q 959 1119 1226 758 
Q 1494 397 1959 397 
Q 2419 397 2687 759 
Q 2956 1122 2956 1747 
Q 2956 2369 2687 2733 
Q 2419 3097 1959 3097 
z
M 1959 3584 
Q 2709 3584 3137 3096 
Q 3566 2609 3566 1747 
Q 3566 888 3137 398 
Q 2709 -91 1959 -91 
Q 1206 -91 779 398 
Q 353 888 353 1747 
Q 353 2609 779 3096 
Q 1206 3584 1959 3584 
z
" transform="scale(0.015625)"/>
      <path id="DejaVuSans-66" d="M 2375 4863 
L 2375 4384 
L 1825 4384 
Q 1516 4384 1395 4259 
Q 1275 4134 1275 3809 
L 1275 3500 
L 2222 3500 
L 2222 3053 
L 1275 3053 
L 1275 0 
L 697 0 
L 697 3053 
L 147 3053 
L 147 3500 
L 697 3500 
L 697 3744 
Q 697 4328 969 4595 
Q 1241 4863 1831 4863 
L 2375 4863 
z
" transform="scale(0.015625)"/>
      <path id="DejaVuSans-70" d="M 1159 525 
L 1159 -1331 
L 581 -1331 
L 581 3500 
L 1159 3500 
L 1159 2969 
Q 1341 3281 1617 3432 
Q 1894 3584 2278 3584 
Q 2916 3584 3314 3078 
Q 3713 2572 3713 1747 
Q 3713 922 3314 415 
Q 2916 -91 2278 -91 
Q 1894 -91 1617 61 
Q 1341 213 1159 525 
z
M 3116 1747 
Q 3116 2381 2855 2742 
Q 2594 3103 2138 3103 
Q 1681 3103 1420 2742 
Q 1159 2381 1159 1747 
Q 1159 1113 1420 752 
Q 1681 391 2138 391 
Q 2594 391 2855 752 
Q 3116 1113 3116 1747 
z
" transform="scale(0.015625)"/>
     </defs>
     <use xlink:href="#DejaVuSans-44"/>
     <use xlink:href="#DejaVuSans-69" x="77.001953"/>
     <use xlink:href="#DejaVuSans-73" x="104.785156"/>
     <use xlink:href="#DejaVuSans-74" x="156.884766"/>
     <use xlink:href="#DejaVuSans-72" x="196.09375"/>
     <use xlink:href="#DejaVuSans-69" x="237.207031"/>
     <use xlink:href="#DejaVuSans-62" x="264.990234"/>
     <use xlink:href="#DejaVuSans-75" x="328.466797"/>
     <use xlink:href="#DejaVuSans-74" x="391.845703"/>
     <use xlink:href="#DejaVuSans-69" x="431.054688"/>
     <use xlink:href="#DejaVuSans-6f" x="458.837891"/>
     <use xlink:href="#DejaVuSans-6e" x="520.019531"/>
     <use xlink:href="#DejaVuSans-20" x="583.398438"/>
     <use xlink:href="#DejaVuSans-6f" x="615.185547"/>
     <use xlink:href="#DejaVuSans-66" x="676.367188"/>
     <use xlink:href="#DejaVuSans-20" x="711.572266"/>
     <use xlink:href="#DejaVuSans-70" x="743.359375"/>
     <use xlink:href="#DejaVuSans-61" x="806.835938"/>
     <use xlink:href="#DejaVuSans-6e" x="868.115234"/>
     <use xlink:href="#DejaVuSans-65" x="931.494141"/>
     <use xlink:href="#DejaVuSans-6c" x="993.017578"/>
     <use xlink:href="#DejaVuSans-20" x="1020.800781"/>
     <use xlink:href="#DejaVuSans-6f" x="1052.587891"/>
     <use xlink:href="#DejaVuSans-72" x="1113.769531"/>
     <use xlink:href="#DejaVuSans-69" x="1154.882812"/>
     <use xlink:href="#DejaVuSans-65" x="1182.666016"/>
     <use xlink:href="#DejaVuSans-6e" x="1244.189453"/>
     <use xlink:href="#DejaVuSans-74" x="1307.568359"/>
     <use xlink:href="#DejaVuSans-61" x="1346.777344"/>
     <use xlink:href="#DejaVuSans-74" x="1408.056641"/>
     <use xlink:href="#DejaVuSans-69" x="1447.265625"/>
     <use xlink:href="#DejaVuSans-6f" x="1475.048828"/>
     <use xlink:href="#DejaVuSans-6e" x="1536.230469"/>
     <use xlink:href="#DejaVuSans-73" x="1599.609375"/>
    </g>
   </g>
  </g>
 </g>
 <defs>
  <clipPath id="pc4b95cfebf">
   <rect x="57.6" y="41.472" width="357.12" height="266.112"/>
  </clipPath>
 </defs>
</svg>
