<?xml version="1.0" encoding="utf-8" standalone="no"?>
<!DOCTYPE svg PUBLIC "-//W3C//DTD SVG 1.1//EN"
  "http://www.w3.org/Graphics/SVG/1.1/DTD/svg11.dtd">
<svg xmlns:xlink="http://www.w3.org/1999/xlink" width="460.8pt" height="345.6pt" viewBox="0 0 460.8 345.6" xmlns="http://www.w3.org/2000/svg" version="1.1">
 <metadata>
  <rdf:RDF xmlns:dc="http://purl.org/dc/elements/1.1/" xmlns:cc="http://creativecommons.org/ns#" xmlns:rdf="http://www.w3.org/1999/02/22-rdf-syntax-ns#">
   <cc:Work>
    <dc:type rdf:resource="http://purl.org/dc/dcmitype/StillImage"/>
    <dc:date>2024-11-16T21:54:16.144327</dc:date>
    <dc:format>image/svg+xml</dc:format>
    <dc:creator>
     <cc:Agent>
      <dc:title>Matplotlib v3.9.2, https://matplotlib.org/</dc:title>
     </cc:Agent>
    </dc:creator>
   </cc:Work>
  </rdf:RDF>
 </metadata>
 <defs>
  <style type="text/css">*{stroke-linejoin: round; stroke-linecap: butt}</style>
 </defs>
 <g id="figure_1">
  <g id="patch_1">
   <path d="M 0 345.6 
L 460.8 345.6 
L 460.8 0 
L 0 0 
z
" style="fill: #ffffff"/>
  </g>
  <g id="axes_1">
   <g id="patch_2">
    <path d="M 57.6 307.584 
L 414.72 307.584 
L 414.72 41.472 
L 57.6 41.472 
z
" style="fill: #ffffff"/>
   </g>
   <g id="matplotlib.axis_1">
    <g id="xtick_1">
     <g id="line2d_1">
      <path d="M 73.832727 307.584 
L 73.832727 41.472 
" clip-path="url(#peb5a42677e)" style="fill: none; stroke: #b0b0b0; stroke-width: 0.8; stroke-linecap: square"/>
     </g>
     <g id="line2d_2">
      <defs>
       <path id="m9edf3ddc12" d="M 0 0 
L 0 3.5 
" style="stroke: #000000; stroke-width: 0.8"/>
      </defs>
      <g>
       <use xlink:href="#m9edf3ddc12" x="73.832727" y="307.584" style="stroke: #000000; stroke-width: 0.8"/>
      </g>
     </g>
     <g id="text_1">
      <!-- 0 -->
      <g transform="translate(70.651477 322.182437) scale(0.1 -0.1)">
       <defs>
        <path id="DejaVuSans-30" d="M 2034 4250 
Q 1547 4250 1301 3770 
Q 1056 3291 1056 2328 
Q 1056 1369 1301 889 
Q 1547 409 2034 409 
Q 2525 409 2770 889 
Q 3016 1369 3016 2328 
Q 3016 3291 2770 3770 
Q 2525 4250 2034 4250 
z
M 2034 4750 
Q 2819 4750 3233 4129 
Q 3647 3509 3647 2328 
Q 3647 1150 3233 529 
Q 2819 -91 2034 -91 
Q 1250 -91 836 529 
Q 422 1150 422 2328 
Q 422 3509 836 4129 
Q 1250 4750 2034 4750 
z
" transform="scale(0.015625)"/>
       </defs>
       <use xlink:href="#DejaVuSans-30"/>
      </g>
     </g>
    </g>
    <g id="xtick_2">
     <g id="line2d_3">
      <path d="M 141.877359 307.584 
L 141.877359 41.472 
" clip-path="url(#peb5a42677e)" style="fill: none; stroke: #b0b0b0; stroke-width: 0.8; stroke-linecap: square"/>
     </g>
     <g id="line2d_4">
      <g>
       <use xlink:href="#m9edf3ddc12" x="141.877359" y="307.584" style="stroke: #000000; stroke-width: 0.8"/>
      </g>
     </g>
     <g id="text_2">
      <!-- 5 -->
      <g transform="translate(138.696109 322.182437) scale(0.1 -0.1)">
       <defs>
        <path id="DejaVuSans-35" d="M 691 4666 
L 3169 4666 
L 3169 4134 
L 1269 4134 
L 1269 2991 
Q 1406 3038 1543 3061 
Q 1681 3084 1819 3084 
Q 2600 3084 3056 2656 
Q 3513 2228 3513 1497 
Q 3513 744 3044 326 
Q 2575 -91 1722 -91 
Q 1428 -91 1123 -41 
Q 819 9 494 109 
L 494 744 
Q 775 591 1075 516 
Q 1375 441 1709 441 
Q 2250 441 2565 725 
Q 2881 1009 2881 1497 
Q 2881 1984 2565 2268 
Q 2250 2553 1709 2553 
Q 1456 2553 1204 2497 
Q 953 2441 691 2322 
L 691 4666 
z
" transform="scale(0.015625)"/>
       </defs>
       <use xlink:href="#DejaVuSans-35"/>
      </g>
     </g>
    </g>
    <g id="xtick_3">
     <g id="line2d_5">
      <path d="M 209.92199 307.584 
L 209.92199 41.472 
" clip-path="url(#peb5a42677e)" style="fill: none; stroke: #b0b0b0; stroke-width: 0.8; stroke-linecap: square"/>
     </g>
     <g id="line2d_6">
      <g>
       <use xlink:href="#m9edf3ddc12" x="209.92199" y="307.584" style="stroke: #000000; stroke-width: 0.8"/>
      </g>
     </g>
     <g id="text_3">
      <!-- 10 -->
      <g transform="translate(203.55949 322.182437) scale(0.1 -0.1)">
       <defs>
        <path id="DejaVuSans-31" d="M 794 531 
L 1825 531 
L 1825 4091 
L 703 3866 
L 703 4441 
L 1819 4666 
L 2450 4666 
L 2450 531 
L 3481 531 
L 3481 0 
L 794 0 
L 794 531 
z
" transform="scale(0.015625)"/>
       </defs>
       <use xlink:href="#DejaVuSans-31"/>
       <use xlink:href="#DejaVuSans-30" x="63.623047"/>
      </g>
     </g>
    </g>
    <g id="xtick_4">
     <g id="line2d_7">
      <path d="M 277.966622 307.584 
L 277.966622 41.472 
" clip-path="url(#peb5a42677e)" style="fill: none; stroke: #b0b0b0; stroke-width: 0.8; stroke-linecap: square"/>
     </g>
     <g id="line2d_8">
      <g>
       <use xlink:href="#m9edf3ddc12" x="277.966622" y="307.584" style="stroke: #000000; stroke-width: 0.8"/>
      </g>
     </g>
     <g id="text_4">
      <!-- 15 -->
      <g transform="translate(271.604122 322.182437) scale(0.1 -0.1)">
       <use xlink:href="#DejaVuSans-31"/>
       <use xlink:href="#DejaVuSans-35" x="63.623047"/>
      </g>
     </g>
    </g>
    <g id="xtick_5">
     <g id="line2d_9">
      <path d="M 346.011253 307.584 
L 346.011253 41.472 
" clip-path="url(#peb5a42677e)" style="fill: none; stroke: #b0b0b0; stroke-width: 0.8; stroke-linecap: square"/>
     </g>
     <g id="line2d_10">
      <g>
       <use xlink:href="#m9edf3ddc12" x="346.011253" y="307.584" style="stroke: #000000; stroke-width: 0.8"/>
      </g>
     </g>
     <g id="text_5">
      <!-- 20 -->
      <g transform="translate(339.648753 322.182437) scale(0.1 -0.1)">
       <defs>
        <path id="DejaVuSans-32" d="M 1228 531 
L 3431 531 
L 3431 0 
L 469 0 
L 469 531 
Q 828 903 1448 1529 
Q 2069 2156 2228 2338 
Q 2531 2678 2651 2914 
Q 2772 3150 2772 3378 
Q 2772 3750 2511 3984 
Q 2250 4219 1831 4219 
Q 1534 4219 1204 4116 
Q 875 4013 500 3803 
L 500 4441 
Q 881 4594 1212 4672 
Q 1544 4750 1819 4750 
Q 2544 4750 2975 4387 
Q 3406 4025 3406 3419 
Q 3406 3131 3298 2873 
Q 3191 2616 2906 2266 
Q 2828 2175 2409 1742 
Q 1991 1309 1228 531 
z
" transform="scale(0.015625)"/>
       </defs>
       <use xlink:href="#DejaVuSans-32"/>
       <use xlink:href="#DejaVuSans-30" x="63.623047"/>
      </g>
     </g>
    </g>
    <g id="xtick_6">
     <g id="line2d_11">
      <path d="M 414.055884 307.584 
L 414.055884 41.472 
" clip-path="url(#peb5a42677e)" style="fill: none; stroke: #b0b0b0; stroke-width: 0.8; stroke-linecap: square"/>
     </g>
     <g id="line2d_12">
      <g>
       <use xlink:href="#m9edf3ddc12" x="414.055884" y="307.584" style="stroke: #000000; stroke-width: 0.8"/>
      </g>
     </g>
     <g id="text_6">
      <!-- 25 -->
      <g transform="translate(407.693384 322.182437) scale(0.1 -0.1)">
       <use xlink:href="#DejaVuSans-32"/>
       <use xlink:href="#DejaVuSans-35" x="63.623047"/>
      </g>
     </g>
    </g>
    <g id="text_7">
     <!-- Time [day] -->
     <g transform="translate(209.238125 335.860562) scale(0.1 -0.1)">
      <defs>
       <path id="DejaVuSans-54" d="M -19 4666 
L 3928 4666 
L 3928 4134 
L 2272 4134 
L 2272 0 
L 1638 0 
L 1638 4134 
L -19 4134 
L -19 4666 
z
" transform="scale(0.015625)"/>
       <path id="DejaVuSans-69" d="M 603 3500 
L 1178 3500 
L 1178 0 
L 603 0 
L 603 3500 
z
M 603 4863 
L 1178 4863 
L 1178 4134 
L 603 4134 
L 603 4863 
z
" transform="scale(0.015625)"/>
       <path id="DejaVuSans-6d" d="M 3328 2828 
Q 3544 3216 3844 3400 
Q 4144 3584 4550 3584 
Q 5097 3584 5394 3201 
Q 5691 2819 5691 2113 
L 5691 0 
L 5113 0 
L 5113 2094 
Q 5113 2597 4934 2840 
Q 4756 3084 4391 3084 
Q 3944 3084 3684 2787 
Q 3425 2491 3425 1978 
L 3425 0 
L 2847 0 
L 2847 2094 
Q 2847 2600 2669 2842 
Q 2491 3084 2119 3084 
Q 1678 3084 1418 2786 
Q 1159 2488 1159 1978 
L 1159 0 
L 581 0 
L 581 3500 
L 1159 3500 
L 1159 2956 
Q 1356 3278 1631 3431 
Q 1906 3584 2284 3584 
Q 2666 3584 2933 3390 
Q 3200 3197 3328 2828 
z
" transform="scale(0.015625)"/>
       <path id="DejaVuSans-65" d="M 3597 1894 
L 3597 1613 
L 953 1613 
Q 991 1019 1311 708 
Q 1631 397 2203 397 
Q 2534 397 2845 478 
Q 3156 559 3463 722 
L 3463 178 
Q 3153 47 2828 -22 
Q 2503 -91 2169 -91 
Q 1331 -91 842 396 
Q 353 884 353 1716 
Q 353 2575 817 3079 
Q 1281 3584 2069 3584 
Q 2775 3584 3186 3129 
Q 3597 2675 3597 1894 
z
M 3022 2063 
Q 3016 2534 2758 2815 
Q 2500 3097 2075 3097 
Q 1594 3097 1305 2825 
Q 1016 2553 972 2059 
L 3022 2063 
z
" transform="scale(0.015625)"/>
       <path id="DejaVuSans-20" transform="scale(0.015625)"/>
       <path id="DejaVuSans-5b" d="M 550 4863 
L 1875 4863 
L 1875 4416 
L 1125 4416 
L 1125 -397 
L 1875 -397 
L 1875 -844 
L 550 -844 
L 550 4863 
z
" transform="scale(0.015625)"/>
       <path id="DejaVuSans-64" d="M 2906 2969 
L 2906 4863 
L 3481 4863 
L 3481 0 
L 2906 0 
L 2906 525 
Q 2725 213 2448 61 
Q 2172 -91 1784 -91 
Q 1150 -91 751 415 
Q 353 922 353 1747 
Q 353 2572 751 3078 
Q 1150 3584 1784 3584 
Q 2172 3584 2448 3432 
Q 2725 3281 2906 2969 
z
M 947 1747 
Q 947 1113 1208 752 
Q 1469 391 1925 391 
Q 2381 391 2643 752 
Q 2906 1113 2906 1747 
Q 2906 2381 2643 2742 
Q 2381 3103 1925 3103 
Q 1469 3103 1208 2742 
Q 947 2381 947 1747 
z
" transform="scale(0.015625)"/>
       <path id="DejaVuSans-61" d="M 2194 1759 
Q 1497 1759 1228 1600 
Q 959 1441 959 1056 
Q 959 750 1161 570 
Q 1363 391 1709 391 
Q 2188 391 2477 730 
Q 2766 1069 2766 1631 
L 2766 1759 
L 2194 1759 
z
M 3341 1997 
L 3341 0 
L 2766 0 
L 2766 531 
Q 2569 213 2275 61 
Q 1981 -91 1556 -91 
Q 1019 -91 701 211 
Q 384 513 384 1019 
Q 384 1609 779 1909 
Q 1175 2209 1959 2209 
L 2766 2209 
L 2766 2266 
Q 2766 2663 2505 2880 
Q 2244 3097 1772 3097 
Q 1472 3097 1187 3025 
Q 903 2953 641 2809 
L 641 3341 
Q 956 3463 1253 3523 
Q 1550 3584 1831 3584 
Q 2591 3584 2966 3190 
Q 3341 2797 3341 1997 
z
" transform="scale(0.015625)"/>
       <path id="DejaVuSans-79" d="M 2059 -325 
Q 1816 -950 1584 -1140 
Q 1353 -1331 966 -1331 
L 506 -1331 
L 506 -850 
L 844 -850 
Q 1081 -850 1212 -737 
Q 1344 -625 1503 -206 
L 1606 56 
L 191 3500 
L 800 3500 
L 1894 763 
L 2988 3500 
L 3597 3500 
L 2059 -325 
z
" transform="scale(0.015625)"/>
       <path id="DejaVuSans-5d" d="M 1947 4863 
L 1947 -844 
L 622 -844 
L 622 -397 
L 1369 -397 
L 1369 4416 
L 622 4416 
L 622 4863 
L 1947 4863 
z
" transform="scale(0.015625)"/>
      </defs>
      <use xlink:href="#DejaVuSans-54"/>
      <use xlink:href="#DejaVuSans-69" x="57.958984"/>
      <use xlink:href="#DejaVuSans-6d" x="85.742188"/>
      <use xlink:href="#DejaVuSans-65" x="183.154297"/>
      <use xlink:href="#DejaVuSans-20" x="244.677734"/>
      <use xlink:href="#DejaVuSans-5b" x="276.464844"/>
      <use xlink:href="#DejaVuSans-64" x="315.478516"/>
      <use xlink:href="#DejaVuSans-61" x="378.955078"/>
      <use xlink:href="#DejaVuSans-79" x="440.234375"/>
      <use xlink:href="#DejaVuSans-5d" x="499.414062"/>
     </g>
    </g>
   </g>
   <g id="matplotlib.axis_2">
    <g id="ytick_1">
     <g id="line2d_13">
      <path d="M 57.6 295.488 
L 414.72 295.488 
" clip-path="url(#peb5a42677e)" style="fill: none; stroke: #b0b0b0; stroke-width: 0.8; stroke-linecap: square"/>
     </g>
     <g id="line2d_14">
      <defs>
       <path id="md9b7c43dbc" d="M 0 0 
L -3.5 0 
" style="stroke: #000000; stroke-width: 0.8"/>
      </defs>
      <g>
       <use xlink:href="#md9b7c43dbc" x="57.6" y="295.488" style="stroke: #000000; stroke-width: 0.8"/>
      </g>
     </g>
     <g id="text_8">
      <!-- 0 -->
      <g transform="translate(44.2375 299.287219) scale(0.1 -0.1)">
       <use xlink:href="#DejaVuSans-30"/>
      </g>
     </g>
    </g>
    <g id="ytick_2">
     <g id="line2d_15">
      <path d="M 57.6 263.3443 
L 414.72 263.3443 
" clip-path="url(#peb5a42677e)" style="fill: none; stroke: #b0b0b0; stroke-width: 0.8; stroke-linecap: square"/>
     </g>
     <g id="line2d_16">
      <g>
       <use xlink:href="#md9b7c43dbc" x="57.6" y="263.3443" style="stroke: #000000; stroke-width: 0.8"/>
      </g>
     </g>
     <g id="text_9">
      <!-- 500 -->
      <g transform="translate(31.5125 267.143519) scale(0.1 -0.1)">
       <use xlink:href="#DejaVuSans-35"/>
       <use xlink:href="#DejaVuSans-30" x="63.623047"/>
       <use xlink:href="#DejaVuSans-30" x="127.246094"/>
      </g>
     </g>
    </g>
    <g id="ytick_3">
     <g id="line2d_17">
      <path d="M 57.6 231.2006 
L 414.72 231.2006 
" clip-path="url(#peb5a42677e)" style="fill: none; stroke: #b0b0b0; stroke-width: 0.8; stroke-linecap: square"/>
     </g>
     <g id="line2d_18">
      <g>
       <use xlink:href="#md9b7c43dbc" x="57.6" y="231.2006" style="stroke: #000000; stroke-width: 0.8"/>
      </g>
     </g>
     <g id="text_10">
      <!-- 1000 -->
      <g transform="translate(25.15 234.999819) scale(0.1 -0.1)">
       <use xlink:href="#DejaVuSans-31"/>
       <use xlink:href="#DejaVuSans-30" x="63.623047"/>
       <use xlink:href="#DejaVuSans-30" x="127.246094"/>
       <use xlink:href="#DejaVuSans-30" x="190.869141"/>
      </g>
     </g>
    </g>
    <g id="ytick_4">
     <g id="line2d_19">
      <path d="M 57.6 199.056901 
L 414.72 199.056901 
" clip-path="url(#peb5a42677e)" style="fill: none; stroke: #b0b0b0; stroke-width: 0.8; stroke-linecap: square"/>
     </g>
     <g id="line2d_20">
      <g>
       <use xlink:href="#md9b7c43dbc" x="57.6" y="199.056901" style="stroke: #000000; stroke-width: 0.8"/>
      </g>
     </g>
     <g id="text_11">
      <!-- 1500 -->
      <g transform="translate(25.15 202.856119) scale(0.1 -0.1)">
       <use xlink:href="#DejaVuSans-31"/>
       <use xlink:href="#DejaVuSans-35" x="63.623047"/>
       <use xlink:href="#DejaVuSans-30" x="127.246094"/>
       <use xlink:href="#DejaVuSans-30" x="190.869141"/>
      </g>
     </g>
    </g>
    <g id="ytick_5">
     <g id="line2d_21">
      <path d="M 57.6 166.913201 
L 414.72 166.913201 
" clip-path="url(#peb5a42677e)" style="fill: none; stroke: #b0b0b0; stroke-width: 0.8; stroke-linecap: square"/>
     </g>
     <g id="line2d_22">
      <g>
       <use xlink:href="#md9b7c43dbc" x="57.6" y="166.913201" style="stroke: #000000; stroke-width: 0.8"/>
      </g>
     </g>
     <g id="text_12">
      <!-- 2000 -->
      <g transform="translate(25.15 170.71242) scale(0.1 -0.1)">
       <use xlink:href="#DejaVuSans-32"/>
       <use xlink:href="#DejaVuSans-30" x="63.623047"/>
       <use xlink:href="#DejaVuSans-30" x="127.246094"/>
       <use xlink:href="#DejaVuSans-30" x="190.869141"/>
      </g>
     </g>
    </g>
    <g id="ytick_6">
     <g id="line2d_23">
      <path d="M 57.6 134.769501 
L 414.72 134.769501 
" clip-path="url(#peb5a42677e)" style="fill: none; stroke: #b0b0b0; stroke-width: 0.8; stroke-linecap: square"/>
     </g>
     <g id="line2d_24">
      <g>
       <use xlink:href="#md9b7c43dbc" x="57.6" y="134.769501" style="stroke: #000000; stroke-width: 0.8"/>
      </g>
     </g>
     <g id="text_13">
      <!-- 2500 -->
      <g transform="translate(25.15 138.56872) scale(0.1 -0.1)">
       <use xlink:href="#DejaVuSans-32"/>
       <use xlink:href="#DejaVuSans-35" x="63.623047"/>
       <use xlink:href="#DejaVuSans-30" x="127.246094"/>
       <use xlink:href="#DejaVuSans-30" x="190.869141"/>
      </g>
     </g>
    </g>
    <g id="ytick_7">
     <g id="line2d_25">
      <path d="M 57.6 102.625801 
L 414.72 102.625801 
" clip-path="url(#peb5a42677e)" style="fill: none; stroke: #b0b0b0; stroke-width: 0.8; stroke-linecap: square"/>
     </g>
     <g id="line2d_26">
      <g>
       <use xlink:href="#md9b7c43dbc" x="57.6" y="102.625801" style="stroke: #000000; stroke-width: 0.8"/>
      </g>
     </g>
     <g id="text_14">
      <!-- 3000 -->
      <g transform="translate(25.15 106.42502) scale(0.1 -0.1)">
       <defs>
        <path id="DejaVuSans-33" d="M 2597 2516 
Q 3050 2419 3304 2112 
Q 3559 1806 3559 1356 
Q 3559 666 3084 287 
Q 2609 -91 1734 -91 
Q 1441 -91 1130 -33 
Q 819 25 488 141 
L 488 750 
Q 750 597 1062 519 
Q 1375 441 1716 441 
Q 2309 441 2620 675 
Q 2931 909 2931 1356 
Q 2931 1769 2642 2001 
Q 2353 2234 1838 2234 
L 1294 2234 
L 1294 2753 
L 1863 2753 
Q 2328 2753 2575 2939 
Q 2822 3125 2822 3475 
Q 2822 3834 2567 4026 
Q 2313 4219 1838 4219 
Q 1578 4219 1281 4162 
Q 984 4106 628 3988 
L 628 4550 
Q 988 4650 1302 4700 
Q 1616 4750 1894 4750 
Q 2613 4750 3031 4423 
Q 3450 4097 3450 3541 
Q 3450 3153 3228 2886 
Q 3006 2619 2597 2516 
z
" transform="scale(0.015625)"/>
       </defs>
       <use xlink:href="#DejaVuSans-33"/>
       <use xlink:href="#DejaVuSans-30" x="63.623047"/>
       <use xlink:href="#DejaVuSans-30" x="127.246094"/>
       <use xlink:href="#DejaVuSans-30" x="190.869141"/>
      </g>
     </g>
    </g>
    <g id="ytick_8">
     <g id="line2d_27">
      <path d="M 57.6 70.482102 
L 414.72 70.482102 
" clip-path="url(#peb5a42677e)" style="fill: none; stroke: #b0b0b0; stroke-width: 0.8; stroke-linecap: square"/>
     </g>
     <g id="line2d_28">
      <g>
       <use xlink:href="#md9b7c43dbc" x="57.6" y="70.482102" style="stroke: #000000; stroke-width: 0.8"/>
      </g>
     </g>
     <g id="text_15">
      <!-- 3500 -->
      <g transform="translate(25.15 74.28132) scale(0.1 -0.1)">
       <use xlink:href="#DejaVuSans-33"/>
       <use xlink:href="#DejaVuSans-35" x="63.623047"/>
       <use xlink:href="#DejaVuSans-30" x="127.246094"/>
       <use xlink:href="#DejaVuSans-30" x="190.869141"/>
      </g>
     </g>
    </g>
    <g id="text_16">
     <!-- Power [W] -->
     <g transform="translate(19.070312 200.076437) rotate(-90) scale(0.1 -0.1)">
      <defs>
       <path id="DejaVuSans-50" d="M 1259 4147 
L 1259 2394 
L 2053 2394 
Q 2494 2394 2734 2622 
Q 2975 2850 2975 3272 
Q 2975 3691 2734 3919 
Q 2494 4147 2053 4147 
L 1259 4147 
z
M 628 4666 
L 2053 4666 
Q 2838 4666 3239 4311 
Q 3641 3956 3641 3272 
Q 3641 2581 3239 2228 
Q 2838 1875 2053 1875 
L 1259 1875 
L 1259 0 
L 628 0 
L 628 4666 
z
" transform="scale(0.015625)"/>
       <path id="DejaVuSans-6f" d="M 1959 3097 
Q 1497 3097 1228 2736 
Q 959 2375 959 1747 
Q 959 1119 1226 758 
Q 1494 397 1959 397 
Q 2419 397 2687 759 
Q 2956 1122 2956 1747 
Q 2956 2369 2687 2733 
Q 2419 3097 1959 3097 
z
M 1959 3584 
Q 2709 3584 3137 3096 
Q 3566 2609 3566 1747 
Q 3566 888 3137 398 
Q 2709 -91 1959 -91 
Q 1206 -91 779 398 
Q 353 888 353 1747 
Q 353 2609 779 3096 
Q 1206 3584 1959 3584 
z
" transform="scale(0.015625)"/>
       <path id="DejaVuSans-77" d="M 269 3500 
L 844 3500 
L 1563 769 
L 2278 3500 
L 2956 3500 
L 3675 769 
L 4391 3500 
L 4966 3500 
L 4050 0 
L 3372 0 
L 2619 2869 
L 1863 0 
L 1184 0 
L 269 3500 
z
" transform="scale(0.015625)"/>
       <path id="DejaVuSans-72" d="M 2631 2963 
Q 2534 3019 2420 3045 
Q 2306 3072 2169 3072 
Q 1681 3072 1420 2755 
Q 1159 2438 1159 1844 
L 1159 0 
L 581 0 
L 581 3500 
L 1159 3500 
L 1159 2956 
Q 1341 3275 1631 3429 
Q 1922 3584 2338 3584 
Q 2397 3584 2469 3576 
Q 2541 3569 2628 3553 
L 2631 2963 
z
" transform="scale(0.015625)"/>
       <path id="DejaVuSans-57" d="M 213 4666 
L 850 4666 
L 1831 722 
L 2809 4666 
L 3519 4666 
L 4500 722 
L 5478 4666 
L 6119 4666 
L 4947 0 
L 4153 0 
L 3169 4050 
L 2175 0 
L 1381 0 
L 213 4666 
z
" transform="scale(0.015625)"/>
      </defs>
      <use xlink:href="#DejaVuSans-50"/>
      <use xlink:href="#DejaVuSans-6f" x="56.677734"/>
      <use xlink:href="#DejaVuSans-77" x="117.859375"/>
      <use xlink:href="#DejaVuSans-65" x="199.646484"/>
      <use xlink:href="#DejaVuSans-72" x="261.169922"/>
      <use xlink:href="#DejaVuSans-20" x="302.283203"/>
      <use xlink:href="#DejaVuSans-5b" x="334.070312"/>
      <use xlink:href="#DejaVuSans-57" x="373.083984"/>
      <use xlink:href="#DejaVuSans-5d" x="471.960938"/>
     </g>
    </g>
   </g>
   <g id="line2d_29">
    <path d="M 73.832727 269.793191 
L 74.159342 269.793191 
L 74.485956 269.147743 
L 74.81257 267.856846 
L 75.139184 267.211398 
L 75.465798 267.856846 
L 75.792413 267.856846 
L 76.445641 270.43864 
L 78.078712 270.43864 
L 78.405327 271.084088 
L 79.711783 271.084088 
L 80.038398 269.793191 
L 81.01824 269.793191 
L 81.344855 268.502295 
L 81.671469 267.856846 
L 81.998083 267.856846 
L 82.324697 269.147743 
L 82.651312 269.147743 
L 82.977926 269.793191 
L 83.631154 272.374985 
L 84.610997 272.374985 
L 85.264225 269.793191 
L 86.244068 269.793191 
L 86.897297 268.502295 
L 87.223911 267.211398 
L 88.203753 267.211398 
L 88.530368 268.502295 
L 88.856982 269.147743 
L 89.183596 271.084088 
L 89.51021 271.084088 
L 89.836825 273.665881 
L 90.163439 273.665881 
L 90.490053 274.956778 
L 91.469896 274.956778 
L 91.79651 274.31133 
L 92.449738 274.31133 
L 92.776353 273.665881 
L 93.102967 272.374985 
L 93.429581 271.729536 
L 93.756195 272.374985 
L 94.08281 273.665881 
L 94.409424 273.665881 
L 94.736038 274.956778 
L 95.062652 274.956778 
L 95.389267 276.247675 
L 95.715881 276.247675 
L 96.042495 274.956778 
L 96.369109 274.956778 
L 96.695723 273.665881 
L 98.00218 273.665881 
L 98.655409 272.374985 
L 99.308637 272.374985 
L 99.635252 271.729536 
L 99.961866 271.729536 
L 100.28848 271.084088 
L 102.248165 271.084088 
L 102.57478 270.43864 
L 102.901394 269.147743 
L 103.228008 268.502295 
L 103.554622 267.211398 
L 103.881237 267.211398 
L 104.207851 268.502295 
L 104.534465 271.084088 
L 104.861079 271.084088 
L 105.514308 273.665881 
L 105.840922 273.665881 
L 106.167536 274.31133 
L 106.49415 278.18402 
L 106.820765 278.18402 
L 107.147379 285.283951 
L 107.473993 286.574848 
L 107.800607 286.626493 
L 108.127222 286.384705 
L 108.453836 285.901129 
L 108.78045 283.966825 
L 109.107064 283.966825 
L 109.433678 283.725036 
L 109.760293 282.702158 
L 110.086907 282.702158 
L 110.413521 281.411261 
L 110.740135 281.411261 
L 111.06675 280.765813 
L 111.393364 280.765813 
L 112.046592 282.05671 
L 112.373207 283.347606 
L 112.699821 283.725036 
L 114.98612 283.725036 
L 115.312735 283.347606 
L 115.639349 283.347606 
L 115.965963 281.411261 
L 116.292577 281.411261 
L 116.619192 282.702158 
L 117.599034 284.638503 
L 118.252263 284.638503 
L 118.578877 285.283951 
L 119.232105 285.283951 
L 119.55872 285.901129 
L 123.804705 285.901129 
L 124.131319 285.283951 
L 124.784547 282.702158 
L 125.437776 282.702158 
L 125.76439 284.638503 
L 126.091004 284.638503 
L 126.744233 285.9294 
L 127.070847 285.417553 
L 127.397461 286.142917 
L 127.724075 285.283951 
L 129.357147 285.283951 
L 129.683761 285.901129 
L 133.929746 285.901129 
L 134.25636 284.638503 
L 134.909588 284.638503 
L 135.236203 282.702158 
L 135.562817 282.702158 
L 135.889431 283.347606 
L 136.216045 284.638503 
L 136.869274 285.9294 
L 137.522502 285.9294 
L 137.849117 285.283951 
L 138.175731 283.993055 
L 139.482188 283.993055 
L 139.808802 285.283951 
L 140.135416 285.901129 
L 145.361244 285.901129 
L 145.687858 285.283951 
L 146.014472 283.993055 
L 146.341087 283.993055 
L 146.667701 282.702158 
L 146.994315 283.993055 
L 147.320929 283.993055 
L 147.647543 285.283951 
L 149.280615 285.283951 
L 149.607229 283.993055 
L 150.260457 283.993055 
L 150.587072 285.283951 
L 150.913686 285.901129 
L 155.486285 285.901129 
L 155.812899 286.142917 
L 156.139513 286.142917 
L 156.792742 287.351857 
L 157.119356 287.351857 
L 157.44597 270.43864 
L 157.772585 262.69326 
L 158.425813 185.23946 
L 158.752427 185.23946 
L 159.079042 165.87601 
L 159.405656 165.87601 
L 159.73227 169.103252 
L 160.058884 169.103252 
L 160.385498 169.7487 
L 160.712113 169.7487 
L 161.038727 168.457803 
L 161.365341 167.812355 
L 161.691955 167.812355 
L 162.01857 168.457803 
L 162.345184 169.7487 
L 162.671798 169.7487 
L 162.998412 171.685045 
L 163.651641 171.685045 
L 163.978255 170.394148 
L 164.304869 170.394148 
L 164.631483 169.103252 
L 164.958098 170.394148 
L 165.611326 170.394148 
L 165.93794 171.685045 
L 166.917783 171.685045 
L 167.244397 171.039597 
L 167.571012 171.039597 
L 167.897626 171.685045 
L 168.22424 171.685045 
L 168.550854 170.394148 
L 168.877468 169.7487 
L 169.530697 169.7487 
L 169.857311 171.039597 
L 170.183925 171.039597 
L 170.51054 172.330493 
L 170.837154 172.975942 
L 171.163768 172.975942 
L 171.490382 174.266838 
L 173.123453 174.266838 
L 173.776682 172.975942 
L 174.103296 174.912287 
L 174.756525 162.00332 
L 175.083139 162.00332 
L 175.736367 131.0218 
L 176.71621 57.44069 
L 177.042824 57.44069 
L 177.369438 53.568 
L 177.696053 53.568 
L 178.022667 63.895173 
L 178.349281 109.076557 
L 178.675895 136.185387 
L 179.00251 136.185387 
L 179.329124 176.848632 
L 180.635581 176.848632 
L 180.962195 177.49408 
L 181.288809 174.912287 
L 181.615423 180.075873 
L 181.942038 180.075873 
L 182.268652 181.36677 
L 182.595266 182.012218 
L 184.881566 182.012218 
L 185.20818 183.303115 
L 185.861408 183.303115 
L 186.188023 85.194968 
L 186.514637 85.194968 
L 186.841251 83.258623 
L 187.167865 66.476967 
L 187.49448 63.895173 
L 187.821094 63.895173 
L 188.147708 65.18607 
L 188.474322 65.18607 
L 188.800937 168.457803 
L 189.127551 189.11215 
L 189.454165 189.11215 
L 190.107393 186.530357 
L 190.434008 188.466702 
L 190.760622 188.466702 
L 191.087236 189.11215 
L 191.41385 187.821253 
L 191.740465 187.821253 
L 192.393693 190.403047 
L 192.720307 202.021117 
L 193.046922 235.58443 
L 193.373536 226.548153 
L 193.70015 226.548153 
L 194.026764 189.11215 
L 195.006607 189.11215 
L 195.333221 194.275737 
L 195.659835 195.566633 
L 195.98645 192.98484 
L 196.639678 192.98484 
L 196.966292 194.275737 
L 197.292907 202.021117 
L 197.619521 229.129947 
L 198.272749 209.766497 
L 198.599363 191.693943 
L 198.925978 190.403047 
L 199.252592 190.403047 
L 199.579206 204.60291 
L 199.90582 229.129947 
L 200.232435 225.257257 
L 200.559049 202.021117 
L 200.885663 200.73022 
L 201.538892 200.73022 
L 201.865506 216.22098 
L 202.19212 245.911603 
L 202.518734 240.748017 
L 202.845348 222.675463 
L 203.171963 222.675463 
L 203.498577 221.384567 
L 203.825191 233.002637 
L 204.151805 233.002637 
L 204.805034 278.18402 
L 205.131648 284.638503 
L 205.458262 269.147743 
L 205.784877 238.166223 
L 206.111491 238.166223 
L 206.438105 207.184703 
L 206.764719 205.893807 
L 207.091333 205.893807 
L 207.417948 214.930083 
L 207.744562 248.493397 
L 208.071176 248.493397 
L 208.39779 278.18402 
L 208.724405 262.69326 
L 209.051019 262.69326 
L 209.704247 209.766497 
L 210.030862 209.766497 
L 210.357476 205.893807 
L 211.010704 205.893807 
L 211.663933 208.4756 
L 211.990547 222.675463 
L 212.643775 278.18402 
L 212.97039 278.18402 
L 213.297004 282.05671 
L 213.623618 254.94788 
L 213.950232 241.393465 
L 214.276847 213.639187 
L 214.603461 211.057393 
L 215.909918 211.057393 
L 216.236532 212.34829 
L 216.563146 226.548153 
L 217.216375 283.347606 
L 217.542989 274.295303 
L 217.869603 274.295303 
L 218.196217 271.877423 
L 218.849446 192.087373 
L 219.17606 176.612939 
L 219.502674 176.129363 
L 219.829288 176.129363 
L 220.155903 218.684056 
L 220.482517 218.684056 
L 220.809131 260.755174 
L 221.135745 272.360999 
L 221.46236 269.459543 
L 221.788974 241.895707 
L 222.115588 200.308166 
L 222.442202 200.308166 
L 222.768817 175.645787 
L 223.095431 175.645787 
L 223.422045 179.272607 
L 224.401888 293.67478 
L 230.934172 293.67478 
L 231.587401 292.383883 
L 231.914015 284.638503 
L 232.240629 284.638503 
L 232.567243 280.765813 
L 232.893858 272.844575 
L 233.547086 196.439557 
L 233.8737 180.965123 
L 234.853543 180.965123 
L 235.833386 186.28446 
L 236.16 186.28446 
L 236.486614 185.800884 
L 236.813228 185.800884 
L 237.139843 186.768036 
L 237.466457 191.603797 
L 238.119685 198.373862 
L 238.4463 197.406709 
L 238.772914 196.923133 
L 239.099528 196.923133 
L 239.426142 195.955981 
L 240.079371 194.988829 
L 240.405985 195.472405 
L 240.732599 202.24247 
L 241.059213 202.24247 
L 241.385828 204.66035 
L 241.712442 204.66035 
L 242.36567 200.308166 
L 242.692285 197.890286 
L 243.998742 197.890286 
L 244.65197 211.430415 
L 244.978584 214.815448 
L 245.631813 214.815448 
L 245.958427 210.463263 
L 246.285041 201.275318 
L 246.611655 201.275318 
L 246.93827 200.791742 
L 247.918112 200.791742 
L 248.244727 207.078231 
L 248.571341 207.078231 
L 248.897955 226.904849 
L 249.224569 225.454121 
L 249.551183 202.726046 
L 249.877798 192.570949 
L 250.531026 192.570949 
L 250.85764 204.902138 
L 251.184255 253.259745 
L 251.510869 253.259745 
L 251.837483 283.483248 
L 252.164097 253.259745 
L 252.490712 253.259745 
L 252.817326 194.988829 
L 253.14394 183.383004 
L 253.797168 183.383004 
L 254.123783 195.472405 
L 254.450397 224.486969 
L 254.777011 235.36743 
L 255.103625 210.463263 
L 255.43024 210.463263 
L 255.756854 198.857438 
L 256.410082 191.603797 
L 256.736697 190.636645 
L 257.389925 190.636645 
L 257.716539 240.444979 
L 258.043153 263.173054 
L 258.369768 263.173054 
L 258.696382 264.140206 
L 259.022996 261.23875 
L 259.34961 234.15849 
L 259.676225 196.197769 
L 260.002839 196.197769 
L 260.329453 191.603797 
L 260.656067 192.087373 
L 260.982682 203.209622 
L 261.309296 229.32273 
L 261.63591 226.179485 
L 261.962524 195.472405 
L 262.289138 195.472405 
L 262.615753 188.70234 
L 262.942367 188.70234 
L 263.268981 205.627503 
L 263.595595 210.463263 
L 263.92221 280.581792 
L 264.248824 290.253313 
L 264.575438 268.008814 
L 264.902052 268.008814 
L 265.555281 211.913991 
L 265.881895 207.078231 
L 266.208509 206.594655 
L 266.861738 206.594655 
L 267.514966 293.67478 
L 268.821423 293.67478 
L 269.148037 245.764316 
L 269.474652 220.134784 
L 269.801266 220.134784 
L 270.12788 189.185916 
L 270.454494 180.965123 
L 270.781108 180.965123 
L 271.434337 238.994251 
L 271.760951 238.994251 
L 272.087565 249.149348 
L 272.41418 285.417553 
L 272.740794 285.417553 
L 273.394022 265.107358 
L 273.720637 265.107358 
L 274.047251 264.140206 
L 274.373865 268.008814 
L 274.700479 268.008814 
L 275.353708 291.220465 
L 275.680322 293.67478 
L 287.765048 293.67478 
L 288.091663 292.383883 
L 290.051348 292.383883 
L 290.377962 293.029331 
L 290.704577 293.029331 
L 291.031191 292.383883 
L 310.30143 292.383883 
L 310.628045 292.187618 
L 310.954659 291.220465 
L 311.281273 291.220465 
L 311.607887 290.736889 
L 312.58773 290.736889 
L 312.914344 290.978677 
L 313.240958 282.05671 
L 313.894187 252.366087 
L 314.220801 242.038913 
L 314.547415 242.038913 
L 314.87403 239.45712 
L 315.853872 239.45712 
L 316.180487 240.748017 
L 316.833715 278.18402 
L 317.160329 278.18402 
L 317.486943 287.351857 
L 317.813558 286.868281 
L 318.466786 286.868281 
L 318.7934 287.593645 
L 319.120015 287.593645 
L 319.446629 287.835433 
L 319.773243 287.593645 
L 320.099857 287.593645 
L 320.426472 287.110069 
L 320.753086 287.593645 
L 321.0797 287.593645 
L 321.406314 288.077221 
L 321.732928 288.077221 
L 322.059543 288.319009 
L 322.386157 274.31133 
L 323.039385 198.148427 
L 323.366 182.657667 
L 324.019228 182.657667 
L 324.345842 189.11215 
L 325.325685 287.593645 
L 325.652299 287.351857 
L 325.978913 287.351857 
L 326.305528 287.835433 
L 326.632142 267.856846 
L 326.958756 267.856846 
L 327.611985 189.11215 
L 327.938599 177.49408 
L 328.591827 177.49408 
L 328.918442 180.075873 
L 329.898284 282.05671 
L 330.224898 263.984156 
L 330.551513 220.09367 
L 330.878127 220.09367 
L 331.204741 176.203183 
L 331.85797 176.203183 
L 332.184584 183.948563 
L 333.164427 285.901129 
L 334.144269 285.901129 
L 334.797498 285.417553 
L 335.450726 285.417553 
L 336.103955 285.901129 
L 336.430569 285.901129 
L 336.757183 286.142917 
L 337.083797 285.901129 
L 337.410412 285.901129 
L 338.06364 285.417553 
L 338.390254 285.417553 
L 338.716868 285.175765 
L 339.370097 285.659341 
L 340.023325 286.868281 
L 340.34994 286.868281 
L 340.676554 287.351857 
L 341.003168 287.593645 
L 341.329782 287.351857 
L 341.656397 286.868281 
L 341.983011 286.142917 
L 342.962853 286.142917 
L 343.289468 286.384705 
L 344.26931 286.384705 
L 344.595925 286.142917 
L 348.84191 286.142917 
L 349.168524 285.659341 
L 349.821752 285.659341 
L 350.148367 285.417553 
L 351.128209 286.142917 
L 351.781438 286.142917 
L 352.108052 286.384705 
L 352.434666 287.110069 
L 352.76128 287.110069 
L 353.087895 287.351857 
L 353.414509 287.351857 
L 353.741123 246.557052 
L 354.067737 247.847948 
L 354.394352 218.802773 
L 354.720966 218.802773 
L 355.04758 181.36677 
L 355.374194 173.62139 
L 355.700808 173.62139 
L 356.027423 187.821253 
L 356.354037 220.09367 
L 356.680651 208.4756 
L 357.007265 202.021117 
L 357.33388 159.421527 
L 357.987108 159.421527 
L 358.313722 172.330493 
L 358.640337 172.330493 
L 358.966951 252.366087 
L 359.293565 271.084088 
L 360.273408 271.084088 
L 360.600022 271.729536 
L 360.926636 271.084088 
L 361.25325 271.729536 
L 361.906479 271.729536 
L 362.233093 269.793191 
L 362.559707 269.793191 
L 362.886322 268.502295 
L 363.53955 267.211398 
L 364.192778 268.502295 
L 364.519393 268.502295 
L 364.846007 269.793191 
L 365.172621 269.793191 
L 365.499235 268.502295 
L 366.152464 267.211398 
L 366.479078 267.211398 
L 366.805692 265.920501 
L 367.132307 263.338708 
L 367.458921 263.338708 
L 368.112149 168.457803 
L 368.438763 168.457803 
L 368.765378 109.076557 
L 369.091992 109.076557 
L 369.418606 107.78566 
L 369.74522 110.367453 
L 370.398449 107.78566 
L 370.725063 103.91297 
L 371.704906 103.91297 
L 372.03152 112.303798 
L 372.684748 140.058077 
L 373.011363 167.166907 
L 373.337977 167.166907 
L 373.664591 216.749752 
L 373.991205 199.341014 
L 374.31782 152.675924 
L 374.644434 140.344734 
L 374.971048 140.344734 
L 375.297662 162.347445 
L 375.624277 162.347445 
L 376.277505 244.313587 
L 376.604119 267.211398 
L 378.23719 267.211398 
L 378.563805 256.402989 
L 378.890419 241.412131 
L 379.217033 237.543523 
L 379.543647 236.57637 
L 380.850104 236.57637 
L 381.176718 235.609218 
L 381.503333 236.57637 
L 381.829947 237.059947 
L 382.156561 238.027099 
L 382.483175 238.027099 
L 382.80979 237.543523 
L 383.136404 236.092794 
L 383.463018 233.674914 
L 383.789632 233.191338 
L 384.116247 233.191338 
L 384.442861 233.674914 
L 385.422703 233.674914 
L 386.075932 232.707762 
L 386.402546 232.707762 
L 386.72916 233.191338 
L 387.055775 234.642066 
L 387.382389 234.642066 
L 387.709003 236.092794 
L 388.035617 246.731468 
L 388.688846 278.163912 
L 389.668688 278.163912 
L 389.995303 279.61464 
L 390.321917 279.61464 
L 390.975145 280.581792 
L 391.30176 280.581792 
L 391.954988 281.065368 
L 392.281602 281.065368 
L 392.608217 281.548944 
L 393.261445 281.548944 
L 393.588059 281.307156 
L 393.914673 281.548944 
L 394.241288 281.548944 
L 394.567902 280.581792 
L 394.894516 281.411261 
L 395.547745 281.411261 
L 395.874359 282.702158 
L 396.200973 282.702158 
L 396.527587 208.528959 
L 396.854202 208.528959 
L 397.180816 159.204201 
L 397.50743 153.401288 
L 397.834044 152.917712 
L 398.160658 153.401288 
L 398.487273 154.852016 
L 398.487273 154.852016 
" clip-path="url(#peb5a42677e)" style="fill: none; stroke: #1f77b4; stroke-width: 1.5; stroke-linecap: square"/>
   </g>
   <g id="line2d_30">
    <path d="M 73.832727 295.488 
L 146.667701 295.488 
L 146.994315 292.205638 
L 148.300772 291.109592 
L 149.607229 289.740887 
L 150.913686 288.09223 
L 152.546757 285.645742 
L 154.179828 282.79133 
L 156.139513 278.862798 
L 158.099199 274.424571 
L 160.385498 268.654298 
L 162.671798 262.30243 
L 165.284712 254.406311 
L 168.22424 244.818123 
L 171.816997 232.271539 
L 176.062982 216.594821 
L 192.067079 156.581313 
L 195.333221 145.554392 
L 198.272749 136.344245 
L 200.885663 128.82625 
L 203.498577 122.018315 
L 205.784877 116.698973 
L 207.744562 112.646746 
L 209.704247 109.087551 
L 211.337318 106.51311 
L 212.97039 104.305738 
L 214.603461 102.474309 
L 216.236532 101.026197 
L 217.542989 100.14767 
L 218.849446 99.520506 
L 220.155903 99.146334 
L 221.46236 99.026137 
L 222.768817 99.160248 
L 224.075273 99.54835 
L 225.38173 100.189474 
L 226.688187 101.082006 
L 227.994644 102.223688 
L 229.627715 103.996686 
L 231.260787 106.147373 
L 232.893858 108.667203 
L 234.853543 112.164057 
L 236.813228 116.157934 
L 238.772914 120.62594 
L 241.059213 126.403533 
L 243.672127 133.69582 
L 246.285041 141.651911 
L 249.224569 151.294714 
L 252.817326 163.899455 
L 257.063311 179.64276 
L 273.394022 241.132001 
L 276.660165 252.177241 
L 279.599693 261.399276 
L 282.212607 268.926208 
L 284.82552 275.743912 
L 287.11182 281.074904 
L 289.071505 285.141668 
L 290.704577 288.083011 
L 292.337648 290.420027 
L 293.970719 292.185483 
L 295.277176 293.308555 
L 296.583633 294.119362 
L 297.563475 294.587527 
L 299.849775 295.172861 
L 301.482846 295.299225 
L 307.361902 295.488 
L 398.487273 295.488 
L 398.487273 295.488 
" clip-path="url(#peb5a42677e)" style="fill: none; stroke: #ff7f0e; stroke-width: 1.5; stroke-linecap: square"/>
   </g>
   <g id="patch_3">
    <path d="M 57.6 307.584 
L 57.6 41.472 
" style="fill: none; stroke: #000000; stroke-width: 0.8; stroke-linejoin: miter; stroke-linecap: square"/>
   </g>
   <g id="patch_4">
    <path d="M 414.72 307.584 
L 414.72 41.472 
" style="fill: none; stroke: #000000; stroke-width: 0.8; stroke-linejoin: miter; stroke-linecap: square"/>
   </g>
   <g id="patch_5">
    <path d="M 57.6 307.584 
L 414.72 307.584 
" style="fill: none; stroke: #000000; stroke-width: 0.8; stroke-linejoin: miter; stroke-linecap: square"/>
   </g>
   <g id="patch_6">
    <path d="M 57.6 41.472 
L 414.72 41.472 
" style="fill: none; stroke: #000000; stroke-width: 0.8; stroke-linejoin: miter; stroke-linecap: square"/>
   </g>
   <g id="text_17">
    <!-- Power characteristics -->
    <g transform="translate(172.148438 35.472) scale(0.12 -0.12)">
     <defs>
      <path id="DejaVuSans-63" d="M 3122 3366 
L 3122 2828 
Q 2878 2963 2633 3030 
Q 2388 3097 2138 3097 
Q 1578 3097 1268 2742 
Q 959 2388 959 1747 
Q 959 1106 1268 751 
Q 1578 397 2138 397 
Q 2388 397 2633 464 
Q 2878 531 3122 666 
L 3122 134 
Q 2881 22 2623 -34 
Q 2366 -91 2075 -91 
Q 1284 -91 818 406 
Q 353 903 353 1747 
Q 353 2603 823 3093 
Q 1294 3584 2113 3584 
Q 2378 3584 2631 3529 
Q 2884 3475 3122 3366 
z
" transform="scale(0.015625)"/>
      <path id="DejaVuSans-68" d="M 3513 2113 
L 3513 0 
L 2938 0 
L 2938 2094 
Q 2938 2591 2744 2837 
Q 2550 3084 2163 3084 
Q 1697 3084 1428 2787 
Q 1159 2491 1159 1978 
L 1159 0 
L 581 0 
L 581 4863 
L 1159 4863 
L 1159 2956 
Q 1366 3272 1645 3428 
Q 1925 3584 2291 3584 
Q 2894 3584 3203 3211 
Q 3513 2838 3513 2113 
z
" transform="scale(0.015625)"/>
      <path id="DejaVuSans-74" d="M 1172 4494 
L 1172 3500 
L 2356 3500 
L 2356 3053 
L 1172 3053 
L 1172 1153 
Q 1172 725 1289 603 
Q 1406 481 1766 481 
L 2356 481 
L 2356 0 
L 1766 0 
Q 1100 0 847 248 
Q 594 497 594 1153 
L 594 3053 
L 172 3053 
L 172 3500 
L 594 3500 
L 594 4494 
L 1172 4494 
z
" transform="scale(0.015625)"/>
      <path id="DejaVuSans-73" d="M 2834 3397 
L 2834 2853 
Q 2591 2978 2328 3040 
Q 2066 3103 1784 3103 
Q 1356 3103 1142 2972 
Q 928 2841 928 2578 
Q 928 2378 1081 2264 
Q 1234 2150 1697 2047 
L 1894 2003 
Q 2506 1872 2764 1633 
Q 3022 1394 3022 966 
Q 3022 478 2636 193 
Q 2250 -91 1575 -91 
Q 1294 -91 989 -36 
Q 684 19 347 128 
L 347 722 
Q 666 556 975 473 
Q 1284 391 1588 391 
Q 1994 391 2212 530 
Q 2431 669 2431 922 
Q 2431 1156 2273 1281 
Q 2116 1406 1581 1522 
L 1381 1569 
Q 847 1681 609 1914 
Q 372 2147 372 2553 
Q 372 3047 722 3315 
Q 1072 3584 1716 3584 
Q 2034 3584 2315 3537 
Q 2597 3491 2834 3397 
z
" transform="scale(0.015625)"/>
     </defs>
     <use xlink:href="#DejaVuSans-50"/>
     <use xlink:href="#DejaVuSans-6f" x="56.677734"/>
     <use xlink:href="#DejaVuSans-77" x="117.859375"/>
     <use xlink:href="#DejaVuSans-65" x="199.646484"/>
     <use xlink:href="#DejaVuSans-72" x="261.169922"/>
     <use xlink:href="#DejaVuSans-20" x="302.283203"/>
     <use xlink:href="#DejaVuSans-63" x="334.070312"/>
     <use xlink:href="#DejaVuSans-68" x="389.050781"/>
     <use xlink:href="#DejaVuSans-61" x="452.429688"/>
     <use xlink:href="#DejaVuSans-72" x="513.708984"/>
     <use xlink:href="#DejaVuSans-61" x="554.822266"/>
     <use xlink:href="#DejaVuSans-63" x="616.101562"/>
     <use xlink:href="#DejaVuSans-74" x="671.082031"/>
     <use xlink:href="#DejaVuSans-65" x="710.291016"/>
     <use xlink:href="#DejaVuSans-72" x="771.814453"/>
     <use xlink:href="#DejaVuSans-69" x="812.927734"/>
     <use xlink:href="#DejaVuSans-73" x="840.710938"/>
     <use xlink:href="#DejaVuSans-74" x="892.810547"/>
     <use xlink:href="#DejaVuSans-69" x="932.019531"/>
     <use xlink:href="#DejaVuSans-63" x="959.802734"/>
     <use xlink:href="#DejaVuSans-73" x="1014.783203"/>
    </g>
   </g>
   <g id="legend_1">
    <g id="patch_7">
     <path d="M 291.324688 78.82825 
L 407.72 78.82825 
Q 409.72 78.82825 409.72 76.82825 
L 409.72 48.472 
Q 409.72 46.472 407.72 46.472 
L 291.324688 46.472 
Q 289.324688 46.472 289.324688 48.472 
L 289.324688 76.82825 
Q 289.324688 78.82825 291.324688 78.82825 
z
" style="fill: #ffffff; opacity: 0.8; stroke: #cccccc; stroke-linejoin: miter"/>
    </g>
    <g id="line2d_31">
     <path d="M 293.324688 54.570437 
L 303.324688 54.570437 
L 313.324688 54.570437 
" style="fill: none; stroke: #1f77b4; stroke-width: 1.5; stroke-linecap: square"/>
    </g>
    <g id="text_18">
     <!-- Demand curve -->
     <g transform="translate(321.324688 58.070437) scale(0.1 -0.1)">
      <defs>
       <path id="DejaVuSans-44" d="M 1259 4147 
L 1259 519 
L 2022 519 
Q 2988 519 3436 956 
Q 3884 1394 3884 2338 
Q 3884 3275 3436 3711 
Q 2988 4147 2022 4147 
L 1259 4147 
z
M 628 4666 
L 1925 4666 
Q 3281 4666 3915 4102 
Q 4550 3538 4550 2338 
Q 4550 1131 3912 565 
Q 3275 0 1925 0 
L 628 0 
L 628 4666 
z
" transform="scale(0.015625)"/>
       <path id="DejaVuSans-6e" d="M 3513 2113 
L 3513 0 
L 2938 0 
L 2938 2094 
Q 2938 2591 2744 2837 
Q 2550 3084 2163 3084 
Q 1697 3084 1428 2787 
Q 1159 2491 1159 1978 
L 1159 0 
L 581 0 
L 581 3500 
L 1159 3500 
L 1159 2956 
Q 1366 3272 1645 3428 
Q 1925 3584 2291 3584 
Q 2894 3584 3203 3211 
Q 3513 2838 3513 2113 
z
" transform="scale(0.015625)"/>
       <path id="DejaVuSans-75" d="M 544 1381 
L 544 3500 
L 1119 3500 
L 1119 1403 
Q 1119 906 1312 657 
Q 1506 409 1894 409 
Q 2359 409 2629 706 
Q 2900 1003 2900 1516 
L 2900 3500 
L 3475 3500 
L 3475 0 
L 2900 0 
L 2900 538 
Q 2691 219 2414 64 
Q 2138 -91 1772 -91 
Q 1169 -91 856 284 
Q 544 659 544 1381 
z
M 1991 3584 
L 1991 3584 
z
" transform="scale(0.015625)"/>
       <path id="DejaVuSans-76" d="M 191 3500 
L 800 3500 
L 1894 563 
L 2988 3500 
L 3597 3500 
L 2284 0 
L 1503 0 
L 191 3500 
z
" transform="scale(0.015625)"/>
      </defs>
      <use xlink:href="#DejaVuSans-44"/>
      <use xlink:href="#DejaVuSans-65" x="77.001953"/>
      <use xlink:href="#DejaVuSans-6d" x="138.525391"/>
      <use xlink:href="#DejaVuSans-61" x="235.9375"/>
      <use xlink:href="#DejaVuSans-6e" x="297.216797"/>
      <use xlink:href="#DejaVuSans-64" x="360.595703"/>
      <use xlink:href="#DejaVuSans-20" x="424.072266"/>
      <use xlink:href="#DejaVuSans-63" x="455.859375"/>
      <use xlink:href="#DejaVuSans-75" x="510.839844"/>
      <use xlink:href="#DejaVuSans-72" x="574.21875"/>
      <use xlink:href="#DejaVuSans-76" x="615.332031"/>
      <use xlink:href="#DejaVuSans-65" x="674.511719"/>
     </g>
    </g>
    <g id="line2d_32">
     <path d="M 293.324688 69.248562 
L 303.324688 69.248562 
L 313.324688 69.248562 
" style="fill: none; stroke: #ff7f0e; stroke-width: 1.5; stroke-linecap: square"/>
    </g>
    <g id="text_19">
     <!-- Production curve -->
     <g transform="translate(321.324688 72.748562) scale(0.1 -0.1)">
      <use xlink:href="#DejaVuSans-50"/>
      <use xlink:href="#DejaVuSans-72" x="58.552734"/>
      <use xlink:href="#DejaVuSans-6f" x="97.416016"/>
      <use xlink:href="#DejaVuSans-64" x="158.597656"/>
      <use xlink:href="#DejaVuSans-75" x="222.074219"/>
      <use xlink:href="#DejaVuSans-63" x="285.453125"/>
      <use xlink:href="#DejaVuSans-74" x="340.433594"/>
      <use xlink:href="#DejaVuSans-69" x="379.642578"/>
      <use xlink:href="#DejaVuSans-6f" x="407.425781"/>
      <use xlink:href="#DejaVuSans-6e" x="468.607422"/>
      <use xlink:href="#DejaVuSans-20" x="531.986328"/>
      <use xlink:href="#DejaVuSans-63" x="563.773438"/>
      <use xlink:href="#DejaVuSans-75" x="618.753906"/>
      <use xlink:href="#DejaVuSans-72" x="682.132812"/>
      <use xlink:href="#DejaVuSans-76" x="723.246094"/>
      <use xlink:href="#DejaVuSans-65" x="782.425781"/>
     </g>
    </g>
   </g>
  </g>
 </g>
 <defs>
  <clipPath id="peb5a42677e">
   <rect x="57.6" y="41.472" width="357.12" height="266.112"/>
  </clipPath>
 </defs>
</svg>
