<?xml version="1.0" encoding="utf-8" standalone="no"?>
<!DOCTYPE svg PUBLIC "-//W3C//DTD SVG 1.1//EN"
  "http://www.w3.org/Graphics/SVG/1.1/DTD/svg11.dtd">
<svg xmlns:xlink="http://www.w3.org/1999/xlink" width="460.8pt" height="345.6pt" viewBox="0 0 460.8 345.6" xmlns="http://www.w3.org/2000/svg" version="1.1">
 <metadata>
  <rdf:RDF xmlns:dc="http://purl.org/dc/elements/1.1/" xmlns:cc="http://creativecommons.org/ns#" xmlns:rdf="http://www.w3.org/1999/02/22-rdf-syntax-ns#">
   <cc:Work>
    <dc:type rdf:resource="http://purl.org/dc/dcmitype/StillImage"/>
    <dc:date>2024-11-19T01:29:13.318460</dc:date>
    <dc:format>image/svg+xml</dc:format>
    <dc:creator>
     <cc:Agent>
      <dc:title>Matplotlib v3.9.2, https://matplotlib.org/</dc:title>
     </cc:Agent>
    </dc:creator>
   </cc:Work>
  </rdf:RDF>
 </metadata>
 <defs>
  <style type="text/css">*{stroke-linejoin: round; stroke-linecap: butt}</style>
 </defs>
 <g id="figure_1">
  <g id="patch_1">
   <path d="M 0 345.6 
L 460.8 345.6 
L 460.8 0 
L 0 0 
z
" style="fill: #ffffff"/>
  </g>
  <g id="axes_1">
   <g id="patch_2">
    <path d="M 65.81 303.64 
L 450 303.64 
L 450 37.968 
L 65.81 37.968 
z
" style="fill: #ffffff"/>
   </g>
   <g id="matplotlib.axis_1">
    <g id="xtick_1">
     <g id="line2d_1">
      <path d="M 83.273182 303.64 
L 83.273182 37.968 
" clip-path="url(#p16f0a21690)" style="fill: none; stroke: #b0b0b0; stroke-width: 0.8; stroke-linecap: square"/>
     </g>
     <g id="line2d_2">
      <defs>
       <path id="m28c2802041" d="M 0 0 
L 0 3.5 
" style="stroke: #000000; stroke-width: 0.8"/>
      </defs>
      <g>
       <use xlink:href="#m28c2802041" x="83.273182" y="303.64" style="stroke: #000000; stroke-width: 0.8"/>
      </g>
     </g>
     <g id="text_1">
      <!-- 0 -->
      <g transform="translate(80.091932 318.238437) scale(0.1 -0.1)">
       <defs>
        <path id="DejaVuSans-30" d="M 2034 4250 
Q 1547 4250 1301 3770 
Q 1056 3291 1056 2328 
Q 1056 1369 1301 889 
Q 1547 409 2034 409 
Q 2525 409 2770 889 
Q 3016 1369 3016 2328 
Q 3016 3291 2770 3770 
Q 2525 4250 2034 4250 
z
M 2034 4750 
Q 2819 4750 3233 4129 
Q 3647 3509 3647 2328 
Q 3647 1150 3233 529 
Q 2819 -91 2034 -91 
Q 1250 -91 836 529 
Q 422 1150 422 2328 
Q 422 3509 836 4129 
Q 1250 4750 2034 4750 
z
" transform="scale(0.015625)"/>
       </defs>
       <use xlink:href="#DejaVuSans-30"/>
      </g>
     </g>
    </g>
    <g id="xtick_2">
     <g id="line2d_3">
      <path d="M 127.194665 303.64 
L 127.194665 37.968 
" clip-path="url(#p16f0a21690)" style="fill: none; stroke: #b0b0b0; stroke-width: 0.8; stroke-linecap: square"/>
     </g>
     <g id="line2d_4">
      <g>
       <use xlink:href="#m28c2802041" x="127.194665" y="303.64" style="stroke: #000000; stroke-width: 0.8"/>
      </g>
     </g>
     <g id="text_2">
      <!-- 3 -->
      <g transform="translate(124.013415 318.238437) scale(0.1 -0.1)">
       <defs>
        <path id="DejaVuSans-33" d="M 2597 2516 
Q 3050 2419 3304 2112 
Q 3559 1806 3559 1356 
Q 3559 666 3084 287 
Q 2609 -91 1734 -91 
Q 1441 -91 1130 -33 
Q 819 25 488 141 
L 488 750 
Q 750 597 1062 519 
Q 1375 441 1716 441 
Q 2309 441 2620 675 
Q 2931 909 2931 1356 
Q 2931 1769 2642 2001 
Q 2353 2234 1838 2234 
L 1294 2234 
L 1294 2753 
L 1863 2753 
Q 2328 2753 2575 2939 
Q 2822 3125 2822 3475 
Q 2822 3834 2567 4026 
Q 2313 4219 1838 4219 
Q 1578 4219 1281 4162 
Q 984 4106 628 3988 
L 628 4550 
Q 988 4650 1302 4700 
Q 1616 4750 1894 4750 
Q 2613 4750 3031 4423 
Q 3450 4097 3450 3541 
Q 3450 3153 3228 2886 
Q 3006 2619 2597 2516 
z
" transform="scale(0.015625)"/>
       </defs>
       <use xlink:href="#DejaVuSans-33"/>
      </g>
     </g>
    </g>
    <g id="xtick_3">
     <g id="line2d_5">
      <path d="M 171.116149 303.64 
L 171.116149 37.968 
" clip-path="url(#p16f0a21690)" style="fill: none; stroke: #b0b0b0; stroke-width: 0.8; stroke-linecap: square"/>
     </g>
     <g id="line2d_6">
      <g>
       <use xlink:href="#m28c2802041" x="171.116149" y="303.64" style="stroke: #000000; stroke-width: 0.8"/>
      </g>
     </g>
     <g id="text_3">
      <!-- 6 -->
      <g transform="translate(167.934899 318.238437) scale(0.1 -0.1)">
       <defs>
        <path id="DejaVuSans-36" d="M 2113 2584 
Q 1688 2584 1439 2293 
Q 1191 2003 1191 1497 
Q 1191 994 1439 701 
Q 1688 409 2113 409 
Q 2538 409 2786 701 
Q 3034 994 3034 1497 
Q 3034 2003 2786 2293 
Q 2538 2584 2113 2584 
z
M 3366 4563 
L 3366 3988 
Q 3128 4100 2886 4159 
Q 2644 4219 2406 4219 
Q 1781 4219 1451 3797 
Q 1122 3375 1075 2522 
Q 1259 2794 1537 2939 
Q 1816 3084 2150 3084 
Q 2853 3084 3261 2657 
Q 3669 2231 3669 1497 
Q 3669 778 3244 343 
Q 2819 -91 2113 -91 
Q 1303 -91 875 529 
Q 447 1150 447 2328 
Q 447 3434 972 4092 
Q 1497 4750 2381 4750 
Q 2619 4750 2861 4703 
Q 3103 4656 3366 4563 
z
" transform="scale(0.015625)"/>
       </defs>
       <use xlink:href="#DejaVuSans-36"/>
      </g>
     </g>
    </g>
    <g id="xtick_4">
     <g id="line2d_7">
      <path d="M 215.037632 303.64 
L 215.037632 37.968 
" clip-path="url(#p16f0a21690)" style="fill: none; stroke: #b0b0b0; stroke-width: 0.8; stroke-linecap: square"/>
     </g>
     <g id="line2d_8">
      <g>
       <use xlink:href="#m28c2802041" x="215.037632" y="303.64" style="stroke: #000000; stroke-width: 0.8"/>
      </g>
     </g>
     <g id="text_4">
      <!-- 9 -->
      <g transform="translate(211.856382 318.238437) scale(0.1 -0.1)">
       <defs>
        <path id="DejaVuSans-39" d="M 703 97 
L 703 672 
Q 941 559 1184 500 
Q 1428 441 1663 441 
Q 2288 441 2617 861 
Q 2947 1281 2994 2138 
Q 2813 1869 2534 1725 
Q 2256 1581 1919 1581 
Q 1219 1581 811 2004 
Q 403 2428 403 3163 
Q 403 3881 828 4315 
Q 1253 4750 1959 4750 
Q 2769 4750 3195 4129 
Q 3622 3509 3622 2328 
Q 3622 1225 3098 567 
Q 2575 -91 1691 -91 
Q 1453 -91 1209 -44 
Q 966 3 703 97 
z
M 1959 2075 
Q 2384 2075 2632 2365 
Q 2881 2656 2881 3163 
Q 2881 3666 2632 3958 
Q 2384 4250 1959 4250 
Q 1534 4250 1286 3958 
Q 1038 3666 1038 3163 
Q 1038 2656 1286 2365 
Q 1534 2075 1959 2075 
z
" transform="scale(0.015625)"/>
       </defs>
       <use xlink:href="#DejaVuSans-39"/>
      </g>
     </g>
    </g>
    <g id="xtick_5">
     <g id="line2d_9">
      <path d="M 258.959116 303.64 
L 258.959116 37.968 
" clip-path="url(#p16f0a21690)" style="fill: none; stroke: #b0b0b0; stroke-width: 0.8; stroke-linecap: square"/>
     </g>
     <g id="line2d_10">
      <g>
       <use xlink:href="#m28c2802041" x="258.959116" y="303.64" style="stroke: #000000; stroke-width: 0.8"/>
      </g>
     </g>
     <g id="text_5">
      <!-- 12 -->
      <g transform="translate(252.596616 318.238437) scale(0.1 -0.1)">
       <defs>
        <path id="DejaVuSans-31" d="M 794 531 
L 1825 531 
L 1825 4091 
L 703 3866 
L 703 4441 
L 1819 4666 
L 2450 4666 
L 2450 531 
L 3481 531 
L 3481 0 
L 794 0 
L 794 531 
z
" transform="scale(0.015625)"/>
        <path id="DejaVuSans-32" d="M 1228 531 
L 3431 531 
L 3431 0 
L 469 0 
L 469 531 
Q 828 903 1448 1529 
Q 2069 2156 2228 2338 
Q 2531 2678 2651 2914 
Q 2772 3150 2772 3378 
Q 2772 3750 2511 3984 
Q 2250 4219 1831 4219 
Q 1534 4219 1204 4116 
Q 875 4013 500 3803 
L 500 4441 
Q 881 4594 1212 4672 
Q 1544 4750 1819 4750 
Q 2544 4750 2975 4387 
Q 3406 4025 3406 3419 
Q 3406 3131 3298 2873 
Q 3191 2616 2906 2266 
Q 2828 2175 2409 1742 
Q 1991 1309 1228 531 
z
" transform="scale(0.015625)"/>
       </defs>
       <use xlink:href="#DejaVuSans-31"/>
       <use xlink:href="#DejaVuSans-32" x="63.623047"/>
      </g>
     </g>
    </g>
    <g id="xtick_6">
     <g id="line2d_11">
      <path d="M 302.880599 303.64 
L 302.880599 37.968 
" clip-path="url(#p16f0a21690)" style="fill: none; stroke: #b0b0b0; stroke-width: 0.8; stroke-linecap: square"/>
     </g>
     <g id="line2d_12">
      <g>
       <use xlink:href="#m28c2802041" x="302.880599" y="303.64" style="stroke: #000000; stroke-width: 0.8"/>
      </g>
     </g>
     <g id="text_6">
      <!-- 15 -->
      <g transform="translate(296.518099 318.238437) scale(0.1 -0.1)">
       <defs>
        <path id="DejaVuSans-35" d="M 691 4666 
L 3169 4666 
L 3169 4134 
L 1269 4134 
L 1269 2991 
Q 1406 3038 1543 3061 
Q 1681 3084 1819 3084 
Q 2600 3084 3056 2656 
Q 3513 2228 3513 1497 
Q 3513 744 3044 326 
Q 2575 -91 1722 -91 
Q 1428 -91 1123 -41 
Q 819 9 494 109 
L 494 744 
Q 775 591 1075 516 
Q 1375 441 1709 441 
Q 2250 441 2565 725 
Q 2881 1009 2881 1497 
Q 2881 1984 2565 2268 
Q 2250 2553 1709 2553 
Q 1456 2553 1204 2497 
Q 953 2441 691 2322 
L 691 4666 
z
" transform="scale(0.015625)"/>
       </defs>
       <use xlink:href="#DejaVuSans-31"/>
       <use xlink:href="#DejaVuSans-35" x="63.623047"/>
      </g>
     </g>
    </g>
    <g id="xtick_7">
     <g id="line2d_13">
      <path d="M 346.802082 303.64 
L 346.802082 37.968 
" clip-path="url(#p16f0a21690)" style="fill: none; stroke: #b0b0b0; stroke-width: 0.8; stroke-linecap: square"/>
     </g>
     <g id="line2d_14">
      <g>
       <use xlink:href="#m28c2802041" x="346.802082" y="303.64" style="stroke: #000000; stroke-width: 0.8"/>
      </g>
     </g>
     <g id="text_7">
      <!-- 18 -->
      <g transform="translate(340.439582 318.238437) scale(0.1 -0.1)">
       <defs>
        <path id="DejaVuSans-38" d="M 2034 2216 
Q 1584 2216 1326 1975 
Q 1069 1734 1069 1313 
Q 1069 891 1326 650 
Q 1584 409 2034 409 
Q 2484 409 2743 651 
Q 3003 894 3003 1313 
Q 3003 1734 2745 1975 
Q 2488 2216 2034 2216 
z
M 1403 2484 
Q 997 2584 770 2862 
Q 544 3141 544 3541 
Q 544 4100 942 4425 
Q 1341 4750 2034 4750 
Q 2731 4750 3128 4425 
Q 3525 4100 3525 3541 
Q 3525 3141 3298 2862 
Q 3072 2584 2669 2484 
Q 3125 2378 3379 2068 
Q 3634 1759 3634 1313 
Q 3634 634 3220 271 
Q 2806 -91 2034 -91 
Q 1263 -91 848 271 
Q 434 634 434 1313 
Q 434 1759 690 2068 
Q 947 2378 1403 2484 
z
M 1172 3481 
Q 1172 3119 1398 2916 
Q 1625 2713 2034 2713 
Q 2441 2713 2670 2916 
Q 2900 3119 2900 3481 
Q 2900 3844 2670 4047 
Q 2441 4250 2034 4250 
Q 1625 4250 1398 4047 
Q 1172 3844 1172 3481 
z
" transform="scale(0.015625)"/>
       </defs>
       <use xlink:href="#DejaVuSans-31"/>
       <use xlink:href="#DejaVuSans-38" x="63.623047"/>
      </g>
     </g>
    </g>
    <g id="xtick_8">
     <g id="line2d_15">
      <path d="M 390.723566 303.64 
L 390.723566 37.968 
" clip-path="url(#p16f0a21690)" style="fill: none; stroke: #b0b0b0; stroke-width: 0.8; stroke-linecap: square"/>
     </g>
     <g id="line2d_16">
      <g>
       <use xlink:href="#m28c2802041" x="390.723566" y="303.64" style="stroke: #000000; stroke-width: 0.8"/>
      </g>
     </g>
     <g id="text_8">
      <!-- 21 -->
      <g transform="translate(384.361066 318.238437) scale(0.1 -0.1)">
       <use xlink:href="#DejaVuSans-32"/>
       <use xlink:href="#DejaVuSans-31" x="63.623047"/>
      </g>
     </g>
    </g>
    <g id="xtick_9">
     <g id="line2d_17">
      <path d="M 434.645049 303.64 
L 434.645049 37.968 
" clip-path="url(#p16f0a21690)" style="fill: none; stroke: #b0b0b0; stroke-width: 0.8; stroke-linecap: square"/>
     </g>
     <g id="line2d_18">
      <g>
       <use xlink:href="#m28c2802041" x="434.645049" y="303.64" style="stroke: #000000; stroke-width: 0.8"/>
      </g>
     </g>
     <g id="text_9">
      <!-- 24 -->
      <g transform="translate(428.282549 318.238437) scale(0.1 -0.1)">
       <defs>
        <path id="DejaVuSans-34" d="M 2419 4116 
L 825 1625 
L 2419 1625 
L 2419 4116 
z
M 2253 4666 
L 3047 4666 
L 3047 1625 
L 3713 1625 
L 3713 1100 
L 3047 1100 
L 3047 0 
L 2419 0 
L 2419 1100 
L 313 1100 
L 313 1709 
L 2253 4666 
z
" transform="scale(0.015625)"/>
       </defs>
       <use xlink:href="#DejaVuSans-32"/>
       <use xlink:href="#DejaVuSans-34" x="63.623047"/>
      </g>
     </g>
    </g>
    <g id="text_10">
     <!-- Time [hour UTC] -->
     <g transform="translate(217.228438 331.916562) scale(0.1 -0.1)">
      <defs>
       <path id="DejaVuSans-54" d="M -19 4666 
L 3928 4666 
L 3928 4134 
L 2272 4134 
L 2272 0 
L 1638 0 
L 1638 4134 
L -19 4134 
L -19 4666 
z
" transform="scale(0.015625)"/>
       <path id="DejaVuSans-69" d="M 603 3500 
L 1178 3500 
L 1178 0 
L 603 0 
L 603 3500 
z
M 603 4863 
L 1178 4863 
L 1178 4134 
L 603 4134 
L 603 4863 
z
" transform="scale(0.015625)"/>
       <path id="DejaVuSans-6d" d="M 3328 2828 
Q 3544 3216 3844 3400 
Q 4144 3584 4550 3584 
Q 5097 3584 5394 3201 
Q 5691 2819 5691 2113 
L 5691 0 
L 5113 0 
L 5113 2094 
Q 5113 2597 4934 2840 
Q 4756 3084 4391 3084 
Q 3944 3084 3684 2787 
Q 3425 2491 3425 1978 
L 3425 0 
L 2847 0 
L 2847 2094 
Q 2847 2600 2669 2842 
Q 2491 3084 2119 3084 
Q 1678 3084 1418 2786 
Q 1159 2488 1159 1978 
L 1159 0 
L 581 0 
L 581 3500 
L 1159 3500 
L 1159 2956 
Q 1356 3278 1631 3431 
Q 1906 3584 2284 3584 
Q 2666 3584 2933 3390 
Q 3200 3197 3328 2828 
z
" transform="scale(0.015625)"/>
       <path id="DejaVuSans-65" d="M 3597 1894 
L 3597 1613 
L 953 1613 
Q 991 1019 1311 708 
Q 1631 397 2203 397 
Q 2534 397 2845 478 
Q 3156 559 3463 722 
L 3463 178 
Q 3153 47 2828 -22 
Q 2503 -91 2169 -91 
Q 1331 -91 842 396 
Q 353 884 353 1716 
Q 353 2575 817 3079 
Q 1281 3584 2069 3584 
Q 2775 3584 3186 3129 
Q 3597 2675 3597 1894 
z
M 3022 2063 
Q 3016 2534 2758 2815 
Q 2500 3097 2075 3097 
Q 1594 3097 1305 2825 
Q 1016 2553 972 2059 
L 3022 2063 
z
" transform="scale(0.015625)"/>
       <path id="DejaVuSans-20" transform="scale(0.015625)"/>
       <path id="DejaVuSans-5b" d="M 550 4863 
L 1875 4863 
L 1875 4416 
L 1125 4416 
L 1125 -397 
L 1875 -397 
L 1875 -844 
L 550 -844 
L 550 4863 
z
" transform="scale(0.015625)"/>
       <path id="DejaVuSans-68" d="M 3513 2113 
L 3513 0 
L 2938 0 
L 2938 2094 
Q 2938 2591 2744 2837 
Q 2550 3084 2163 3084 
Q 1697 3084 1428 2787 
Q 1159 2491 1159 1978 
L 1159 0 
L 581 0 
L 581 4863 
L 1159 4863 
L 1159 2956 
Q 1366 3272 1645 3428 
Q 1925 3584 2291 3584 
Q 2894 3584 3203 3211 
Q 3513 2838 3513 2113 
z
" transform="scale(0.015625)"/>
       <path id="DejaVuSans-6f" d="M 1959 3097 
Q 1497 3097 1228 2736 
Q 959 2375 959 1747 
Q 959 1119 1226 758 
Q 1494 397 1959 397 
Q 2419 397 2687 759 
Q 2956 1122 2956 1747 
Q 2956 2369 2687 2733 
Q 2419 3097 1959 3097 
z
M 1959 3584 
Q 2709 3584 3137 3096 
Q 3566 2609 3566 1747 
Q 3566 888 3137 398 
Q 2709 -91 1959 -91 
Q 1206 -91 779 398 
Q 353 888 353 1747 
Q 353 2609 779 3096 
Q 1206 3584 1959 3584 
z
" transform="scale(0.015625)"/>
       <path id="DejaVuSans-75" d="M 544 1381 
L 544 3500 
L 1119 3500 
L 1119 1403 
Q 1119 906 1312 657 
Q 1506 409 1894 409 
Q 2359 409 2629 706 
Q 2900 1003 2900 1516 
L 2900 3500 
L 3475 3500 
L 3475 0 
L 2900 0 
L 2900 538 
Q 2691 219 2414 64 
Q 2138 -91 1772 -91 
Q 1169 -91 856 284 
Q 544 659 544 1381 
z
M 1991 3584 
L 1991 3584 
z
" transform="scale(0.015625)"/>
       <path id="DejaVuSans-72" d="M 2631 2963 
Q 2534 3019 2420 3045 
Q 2306 3072 2169 3072 
Q 1681 3072 1420 2755 
Q 1159 2438 1159 1844 
L 1159 0 
L 581 0 
L 581 3500 
L 1159 3500 
L 1159 2956 
Q 1341 3275 1631 3429 
Q 1922 3584 2338 3584 
Q 2397 3584 2469 3576 
Q 2541 3569 2628 3553 
L 2631 2963 
z
" transform="scale(0.015625)"/>
       <path id="DejaVuSans-55" d="M 556 4666 
L 1191 4666 
L 1191 1831 
Q 1191 1081 1462 751 
Q 1734 422 2344 422 
Q 2950 422 3222 751 
Q 3494 1081 3494 1831 
L 3494 4666 
L 4128 4666 
L 4128 1753 
Q 4128 841 3676 375 
Q 3225 -91 2344 -91 
Q 1459 -91 1007 375 
Q 556 841 556 1753 
L 556 4666 
z
" transform="scale(0.015625)"/>
       <path id="DejaVuSans-43" d="M 4122 4306 
L 4122 3641 
Q 3803 3938 3442 4084 
Q 3081 4231 2675 4231 
Q 1875 4231 1450 3742 
Q 1025 3253 1025 2328 
Q 1025 1406 1450 917 
Q 1875 428 2675 428 
Q 3081 428 3442 575 
Q 3803 722 4122 1019 
L 4122 359 
Q 3791 134 3420 21 
Q 3050 -91 2638 -91 
Q 1578 -91 968 557 
Q 359 1206 359 2328 
Q 359 3453 968 4101 
Q 1578 4750 2638 4750 
Q 3056 4750 3426 4639 
Q 3797 4528 4122 4306 
z
" transform="scale(0.015625)"/>
       <path id="DejaVuSans-5d" d="M 1947 4863 
L 1947 -844 
L 622 -844 
L 622 -397 
L 1369 -397 
L 1369 4416 
L 622 4416 
L 622 4863 
L 1947 4863 
z
" transform="scale(0.015625)"/>
      </defs>
      <use xlink:href="#DejaVuSans-54"/>
      <use xlink:href="#DejaVuSans-69" x="57.958984"/>
      <use xlink:href="#DejaVuSans-6d" x="85.742188"/>
      <use xlink:href="#DejaVuSans-65" x="183.154297"/>
      <use xlink:href="#DejaVuSans-20" x="244.677734"/>
      <use xlink:href="#DejaVuSans-5b" x="276.464844"/>
      <use xlink:href="#DejaVuSans-68" x="315.478516"/>
      <use xlink:href="#DejaVuSans-6f" x="378.857422"/>
      <use xlink:href="#DejaVuSans-75" x="440.039062"/>
      <use xlink:href="#DejaVuSans-72" x="503.417969"/>
      <use xlink:href="#DejaVuSans-20" x="544.53125"/>
      <use xlink:href="#DejaVuSans-55" x="576.318359"/>
      <use xlink:href="#DejaVuSans-54" x="649.511719"/>
      <use xlink:href="#DejaVuSans-43" x="704.720703"/>
      <use xlink:href="#DejaVuSans-5d" x="774.544922"/>
     </g>
    </g>
   </g>
   <g id="matplotlib.axis_2">
    <g id="ytick_1">
     <g id="line2d_19">
      <path d="M 65.81 292.071051 
L 450 292.071051 
" clip-path="url(#p16f0a21690)" style="fill: none; stroke: #b0b0b0; stroke-width: 0.8; stroke-linecap: square"/>
     </g>
     <g id="line2d_20">
      <defs>
       <path id="m3ec2564961" d="M 0 0 
L -3.5 0 
" style="stroke: #000000; stroke-width: 0.8"/>
      </defs>
      <g>
       <use xlink:href="#m3ec2564961" x="65.81" y="292.071051" style="stroke: #000000; stroke-width: 0.8"/>
      </g>
     </g>
     <g id="text_11">
      <!-- −3000 -->
      <g transform="translate(24.980313 295.87027) scale(0.1 -0.1)">
       <defs>
        <path id="DejaVuSans-2212" d="M 678 2272 
L 4684 2272 
L 4684 1741 
L 678 1741 
L 678 2272 
z
" transform="scale(0.015625)"/>
       </defs>
       <use xlink:href="#DejaVuSans-2212"/>
       <use xlink:href="#DejaVuSans-33" x="83.789062"/>
       <use xlink:href="#DejaVuSans-30" x="147.412109"/>
       <use xlink:href="#DejaVuSans-30" x="211.035156"/>
       <use xlink:href="#DejaVuSans-30" x="274.658203"/>
      </g>
     </g>
    </g>
    <g id="ytick_2">
     <g id="line2d_21">
      <path d="M 65.81 256.284651 
L 450 256.284651 
" clip-path="url(#p16f0a21690)" style="fill: none; stroke: #b0b0b0; stroke-width: 0.8; stroke-linecap: square"/>
     </g>
     <g id="line2d_22">
      <g>
       <use xlink:href="#m3ec2564961" x="65.81" y="256.284651" style="stroke: #000000; stroke-width: 0.8"/>
      </g>
     </g>
     <g id="text_12">
      <!-- −2000 -->
      <g transform="translate(24.980313 260.08387) scale(0.1 -0.1)">
       <use xlink:href="#DejaVuSans-2212"/>
       <use xlink:href="#DejaVuSans-32" x="83.789062"/>
       <use xlink:href="#DejaVuSans-30" x="147.412109"/>
       <use xlink:href="#DejaVuSans-30" x="211.035156"/>
       <use xlink:href="#DejaVuSans-30" x="274.658203"/>
      </g>
     </g>
    </g>
    <g id="ytick_3">
     <g id="line2d_23">
      <path d="M 65.81 220.498251 
L 450 220.498251 
" clip-path="url(#p16f0a21690)" style="fill: none; stroke: #b0b0b0; stroke-width: 0.8; stroke-linecap: square"/>
     </g>
     <g id="line2d_24">
      <g>
       <use xlink:href="#m3ec2564961" x="65.81" y="220.498251" style="stroke: #000000; stroke-width: 0.8"/>
      </g>
     </g>
     <g id="text_13">
      <!-- −1000 -->
      <g transform="translate(24.980313 224.29747) scale(0.1 -0.1)">
       <use xlink:href="#DejaVuSans-2212"/>
       <use xlink:href="#DejaVuSans-31" x="83.789062"/>
       <use xlink:href="#DejaVuSans-30" x="147.412109"/>
       <use xlink:href="#DejaVuSans-30" x="211.035156"/>
       <use xlink:href="#DejaVuSans-30" x="274.658203"/>
      </g>
     </g>
    </g>
    <g id="ytick_4">
     <g id="line2d_25">
      <path d="M 65.81 184.711851 
L 450 184.711851 
" clip-path="url(#p16f0a21690)" style="fill: none; stroke: #b0b0b0; stroke-width: 0.8; stroke-linecap: square"/>
     </g>
     <g id="line2d_26">
      <g>
       <use xlink:href="#m3ec2564961" x="65.81" y="184.711851" style="stroke: #000000; stroke-width: 0.8"/>
      </g>
     </g>
     <g id="text_14">
      <!-- 0 -->
      <g transform="translate(52.4475 188.51107) scale(0.1 -0.1)">
       <use xlink:href="#DejaVuSans-30"/>
      </g>
     </g>
    </g>
    <g id="ytick_5">
     <g id="line2d_27">
      <path d="M 65.81 148.925451 
L 450 148.925451 
" clip-path="url(#p16f0a21690)" style="fill: none; stroke: #b0b0b0; stroke-width: 0.8; stroke-linecap: square"/>
     </g>
     <g id="line2d_28">
      <g>
       <use xlink:href="#m3ec2564961" x="65.81" y="148.925451" style="stroke: #000000; stroke-width: 0.8"/>
      </g>
     </g>
     <g id="text_15">
      <!-- 1000 -->
      <g transform="translate(33.36 152.724669) scale(0.1 -0.1)">
       <use xlink:href="#DejaVuSans-31"/>
       <use xlink:href="#DejaVuSans-30" x="63.623047"/>
       <use xlink:href="#DejaVuSans-30" x="127.246094"/>
       <use xlink:href="#DejaVuSans-30" x="190.869141"/>
      </g>
     </g>
    </g>
    <g id="ytick_6">
     <g id="line2d_29">
      <path d="M 65.81 113.13905 
L 450 113.13905 
" clip-path="url(#p16f0a21690)" style="fill: none; stroke: #b0b0b0; stroke-width: 0.8; stroke-linecap: square"/>
     </g>
     <g id="line2d_30">
      <g>
       <use xlink:href="#m3ec2564961" x="65.81" y="113.13905" style="stroke: #000000; stroke-width: 0.8"/>
      </g>
     </g>
     <g id="text_16">
      <!-- 2000 -->
      <g transform="translate(33.36 116.938269) scale(0.1 -0.1)">
       <use xlink:href="#DejaVuSans-32"/>
       <use xlink:href="#DejaVuSans-30" x="63.623047"/>
       <use xlink:href="#DejaVuSans-30" x="127.246094"/>
       <use xlink:href="#DejaVuSans-30" x="190.869141"/>
      </g>
     </g>
    </g>
    <g id="ytick_7">
     <g id="line2d_31">
      <path d="M 65.81 77.35265 
L 450 77.35265 
" clip-path="url(#p16f0a21690)" style="fill: none; stroke: #b0b0b0; stroke-width: 0.8; stroke-linecap: square"/>
     </g>
     <g id="line2d_32">
      <g>
       <use xlink:href="#m3ec2564961" x="65.81" y="77.35265" style="stroke: #000000; stroke-width: 0.8"/>
      </g>
     </g>
     <g id="text_17">
      <!-- 3000 -->
      <g transform="translate(33.36 81.151869) scale(0.1 -0.1)">
       <use xlink:href="#DejaVuSans-33"/>
       <use xlink:href="#DejaVuSans-30" x="63.623047"/>
       <use xlink:href="#DejaVuSans-30" x="127.246094"/>
       <use xlink:href="#DejaVuSans-30" x="190.869141"/>
      </g>
     </g>
    </g>
    <g id="ytick_8">
     <g id="line2d_33">
      <path d="M 65.81 41.56625 
L 450 41.56625 
" clip-path="url(#p16f0a21690)" style="fill: none; stroke: #b0b0b0; stroke-width: 0.8; stroke-linecap: square"/>
     </g>
     <g id="line2d_34">
      <g>
       <use xlink:href="#m3ec2564961" x="65.81" y="41.56625" style="stroke: #000000; stroke-width: 0.8"/>
      </g>
     </g>
     <g id="text_18">
      <!-- 4000 -->
      <g transform="translate(33.36 45.365469) scale(0.1 -0.1)">
       <use xlink:href="#DejaVuSans-34"/>
       <use xlink:href="#DejaVuSans-30" x="63.623047"/>
       <use xlink:href="#DejaVuSans-30" x="127.246094"/>
       <use xlink:href="#DejaVuSans-30" x="190.869141"/>
      </g>
     </g>
    </g>
    <g id="text_19">
     <!-- Power [W] -->
     <g transform="translate(18.900625 196.352437) rotate(-90) scale(0.1 -0.1)">
      <defs>
       <path id="DejaVuSans-50" d="M 1259 4147 
L 1259 2394 
L 2053 2394 
Q 2494 2394 2734 2622 
Q 2975 2850 2975 3272 
Q 2975 3691 2734 3919 
Q 2494 4147 2053 4147 
L 1259 4147 
z
M 628 4666 
L 2053 4666 
Q 2838 4666 3239 4311 
Q 3641 3956 3641 3272 
Q 3641 2581 3239 2228 
Q 2838 1875 2053 1875 
L 1259 1875 
L 1259 0 
L 628 0 
L 628 4666 
z
" transform="scale(0.015625)"/>
       <path id="DejaVuSans-77" d="M 269 3500 
L 844 3500 
L 1563 769 
L 2278 3500 
L 2956 3500 
L 3675 769 
L 4391 3500 
L 4966 3500 
L 4050 0 
L 3372 0 
L 2619 2869 
L 1863 0 
L 1184 0 
L 269 3500 
z
" transform="scale(0.015625)"/>
       <path id="DejaVuSans-57" d="M 213 4666 
L 850 4666 
L 1831 722 
L 2809 4666 
L 3519 4666 
L 4500 722 
L 5478 4666 
L 6119 4666 
L 4947 0 
L 4153 0 
L 3169 4050 
L 2175 0 
L 1381 0 
L 213 4666 
z
" transform="scale(0.015625)"/>
      </defs>
      <use xlink:href="#DejaVuSans-50"/>
      <use xlink:href="#DejaVuSans-6f" x="56.677734"/>
      <use xlink:href="#DejaVuSans-77" x="117.859375"/>
      <use xlink:href="#DejaVuSans-65" x="199.646484"/>
      <use xlink:href="#DejaVuSans-72" x="261.169922"/>
      <use xlink:href="#DejaVuSans-20" x="302.283203"/>
      <use xlink:href="#DejaVuSans-5b" x="334.070312"/>
      <use xlink:href="#DejaVuSans-57" x="373.083984"/>
      <use xlink:href="#DejaVuSans-5d" x="471.960938"/>
     </g>
    </g>
   </g>
   <g id="line2d_35">
    <path d="M 83.273182 170.408508 
L 83.624554 170.408508 
L 83.975926 170.049211 
L 84.327297 169.330617 
L 84.678669 168.97132 
L 85.030041 169.330617 
L 85.381413 169.330617 
L 86.084157 170.767805 
L 87.841016 170.767805 
L 88.192388 171.127102 
L 89.597875 171.127102 
L 89.949247 170.408508 
L 91.003363 170.408508 
L 91.354735 169.689914 
L 91.706107 169.330617 
L 92.057479 169.330617 
L 92.40885 170.049211 
L 92.760222 170.049211 
L 93.111594 170.408508 
L 93.814338 171.845696 
L 94.868453 171.845696 
L 95.571197 170.408508 
L 96.625313 170.408508 
L 97.328057 169.689914 
L 97.679428 168.97132 
L 98.733544 168.97132 
L 99.084916 169.689914 
L 99.436288 170.049211 
L 99.78766 171.127102 
L 100.139031 171.127102 
L 100.490403 172.56429 
L 100.841775 172.56429 
L 101.193147 173.282884 
L 102.247263 173.282884 
L 102.598635 172.923587 
L 103.301378 172.923587 
L 103.65275 172.56429 
L 104.004122 171.845696 
L 104.355494 171.486399 
L 104.706866 171.845696 
L 105.058238 172.56429 
L 105.409609 172.56429 
L 105.760981 173.282884 
L 106.112353 173.282884 
L 106.463725 174.001479 
L 106.815097 174.001479 
L 107.166469 173.282884 
L 107.517841 173.282884 
L 107.869213 172.56429 
L 109.2747 172.56429 
L 109.977444 171.845696 
L 110.680187 171.845696 
L 111.031559 171.486399 
L 111.382931 171.486399 
L 111.734303 171.127102 
L 113.842534 171.127102 
L 114.193906 170.767805 
L 114.545278 170.049211 
L 114.89665 169.689914 
L 115.248022 168.97132 
L 115.599394 168.97132 
L 115.950766 169.689914 
L 116.302137 171.127102 
L 116.653509 171.127102 
L 117.356253 172.56429 
L 117.707625 172.56429 
L 118.058997 172.923587 
L 118.410369 175.07937 
L 118.76174 175.07937 
L 119.113112 179.031637 
L 119.464484 179.750231 
L 119.815856 179.77898 
L 120.167228 179.644385 
L 120.5186 179.375197 
L 120.869972 178.298442 
L 121.221344 178.298442 
L 121.572715 178.163847 
L 121.924087 177.594449 
L 122.275459 177.594449 
L 122.626831 176.875855 
L 122.978203 176.875855 
L 123.329575 176.516558 
L 123.680947 176.516558 
L 124.38369 177.235152 
L 124.735062 177.953746 
L 125.086434 178.163847 
L 127.546037 178.163847 
L 127.897409 177.953746 
L 128.248781 177.953746 
L 128.600153 176.875855 
L 128.951525 176.875855 
L 129.302896 177.594449 
L 130.357012 178.67234 
L 131.059756 178.67234 
L 131.411128 179.031637 
L 132.113871 179.031637 
L 132.465243 179.375197 
L 137.033078 179.375197 
L 137.384449 179.031637 
L 138.087193 177.594449 
L 138.789937 177.594449 
L 139.141309 178.67234 
L 139.492681 178.67234 
L 140.195424 179.390934 
L 140.546796 179.106008 
L 140.898168 179.509791 
L 141.24954 179.031637 
L 143.006399 179.031637 
L 143.357771 179.375197 
L 147.925605 179.375197 
L 148.276977 178.67234 
L 148.979721 178.67234 
L 149.331093 177.594449 
L 149.682465 177.594449 
L 150.033837 177.953746 
L 150.385209 178.67234 
L 151.087952 179.390934 
L 151.790696 179.390934 
L 152.142068 179.031637 
L 152.49344 178.313043 
L 153.898927 178.313043 
L 154.250299 179.031637 
L 154.601671 179.375197 
L 160.223621 179.375197 
L 160.574993 179.031637 
L 160.926365 178.313043 
L 161.277736 178.313043 
L 161.629108 177.594449 
L 161.98048 178.313043 
L 162.331852 178.313043 
L 162.683224 179.031637 
L 164.440083 179.031637 
L 164.791455 178.313043 
L 165.494199 178.313043 
L 165.845571 179.031637 
L 166.196943 179.375197 
L 171.116149 179.375197 
L 171.467521 179.509791 
L 171.818892 179.509791 
L 172.521636 180.182763 
L 172.873008 180.182763 
L 173.22438 170.767805 
L 173.575752 166.456241 
L 174.278496 123.340596 
L 174.629867 123.340596 
L 174.981239 112.561685 
L 175.332611 112.561685 
L 175.683983 114.35817 
L 176.035355 114.35817 
L 176.386727 114.717467 
L 176.738099 114.717467 
L 177.08947 113.998873 
L 177.440842 113.639576 
L 177.792214 113.639576 
L 178.143586 113.998873 
L 178.494958 114.717467 
L 178.84633 114.717467 
L 179.197702 115.795358 
L 179.900445 115.795358 
L 180.251817 115.076764 
L 180.603189 115.076764 
L 180.954561 114.35817 
L 181.305933 115.076764 
L 182.008677 115.076764 
L 182.360048 115.795358 
L 183.414164 115.795358 
L 183.765536 115.436061 
L 184.116908 115.436061 
L 184.46828 115.795358 
L 184.819652 115.795358 
L 185.171023 115.076764 
L 185.522395 114.717467 
L 186.225139 114.717467 
L 186.576511 115.436061 
L 186.927883 115.436061 
L 187.279255 116.154655 
L 187.630626 116.513952 
L 187.981998 116.513952 
L 188.33337 117.232546 
L 190.09023 117.232546 
L 190.792973 116.513952 
L 191.144345 117.591843 
L 191.847089 110.405903 
L 192.198461 110.405903 
L 192.901204 93.159645 
L 193.95532 52.199782 
L 194.306692 52.199782 
L 194.658064 50.044 
L 195.009436 50.044 
L 195.360808 55.792753 
L 195.712179 80.943545 
L 196.063551 96.034021 
L 196.414923 96.034021 
L 196.766295 118.669735 
L 198.171783 118.669735 
L 198.523154 119.029032 
L 198.874526 117.591843 
L 199.225898 120.46622 
L 199.57727 120.46622 
L 199.928642 121.184814 
L 200.280014 121.544111 
L 202.739617 121.544111 
L 203.090989 122.262705 
L 203.793732 122.262705 
L 204.145104 67.649555 
L 204.496476 67.649555 
L 204.847848 66.571664 
L 205.19922 57.229941 
L 205.550592 55.792753 
L 205.901964 55.792753 
L 206.253335 56.511347 
L 206.604707 56.511347 
L 206.956079 113.998873 
L 207.307451 125.496378 
L 207.658823 125.496378 
L 208.361567 124.05919 
L 208.712939 125.137081 
L 209.06431 125.137081 
L 209.415682 125.496378 
L 209.767054 124.777784 
L 210.118426 124.777784 
L 210.82117 126.214972 
L 211.172542 132.682319 
L 211.523913 151.365765 
L 211.875285 146.335607 
L 212.226657 146.335607 
L 212.578029 125.496378 
L 213.632145 125.496378 
L 213.983517 128.370755 
L 214.334888 129.089349 
L 214.68626 127.65216 
L 215.389004 127.65216 
L 215.740376 128.370755 
L 216.091748 132.682319 
L 216.44312 147.772795 
L 217.145863 136.993884 
L 217.497235 126.933566 
L 217.848607 126.214972 
L 218.199979 126.214972 
L 218.551351 134.119507 
L 218.902723 147.772795 
L 219.254095 145.617012 
L 219.605466 132.682319 
L 219.956838 131.963725 
L 220.659582 131.963725 
L 221.010954 140.586854 
L 221.362326 157.114518 
L 221.713698 154.240141 
L 222.06507 144.179824 
L 222.416441 144.179824 
L 222.767813 143.46123 
L 223.119185 149.928577 
L 223.470557 149.928577 
L 224.173301 175.07937 
L 224.524673 178.67234 
L 224.876044 170.049211 
L 225.227416 152.802953 
L 225.578788 152.802953 
L 225.93016 135.556695 
L 226.281532 134.838101 
L 226.632904 134.838101 
L 226.984276 139.86826 
L 227.335648 158.551706 
L 227.687019 158.551706 
L 228.038391 175.07937 
L 228.389763 166.456241 
L 228.741135 166.456241 
L 229.443879 136.993884 
L 229.795251 136.993884 
L 230.146622 134.838101 
L 230.849366 134.838101 
L 231.55211 136.275289 
L 231.903482 144.179824 
L 232.606226 175.07937 
L 232.957597 175.07937 
L 233.308969 177.235152 
L 233.660341 162.144676 
L 234.011713 154.599438 
L 234.363085 139.149666 
L 234.714457 137.712478 
L 236.119944 137.712478 
L 236.471316 138.431072 
L 236.822688 146.335607 
L 237.525432 177.953746 
L 237.876804 172.914666 
L 238.228175 172.914666 
L 238.579547 171.568722 
L 239.282291 127.152574 
L 239.633663 118.538533 
L 239.985035 118.269344 
L 240.336407 118.269344 
L 240.687778 141.957957 
L 241.03915 141.957957 
L 241.390522 165.37738 
L 241.741894 171.837911 
L 242.093266 170.222778 
L 242.444638 154.879018 
L 242.79601 131.728783 
L 243.147382 131.728783 
L 243.498753 118.000156 
L 243.850125 118.000156 
L 244.201497 120.019071 
L 245.255613 183.702499 
L 252.28305 183.702499 
L 252.985794 182.983905 
L 253.337166 178.67234 
L 253.688538 178.67234 
L 254.039909 176.516558 
L 254.391281 172.1071 
L 255.094025 129.575273 
L 255.445397 120.961232 
L 256.499513 120.961232 
L 257.553628 123.922309 
L 257.905 123.922309 
L 258.256372 123.65312 
L 258.607744 123.65312 
L 258.959116 124.191497 
L 259.310487 126.883385 
L 259.661859 128.498518 
L 260.013231 130.652028 
L 260.364603 130.113651 
L 260.715975 129.844462 
L 261.067347 129.844462 
L 261.418719 129.306084 
L 262.121462 128.767707 
L 262.472834 129.036895 
L 262.824206 132.805538 
L 263.175578 132.805538 
L 263.52695 134.151482 
L 263.878322 134.151482 
L 264.581065 131.728783 
L 264.932437 130.382839 
L 266.337925 130.382839 
L 267.040669 137.920125 
L 267.39204 139.804447 
L 268.094784 139.804447 
L 268.446156 137.381748 
L 268.797528 132.267161 
L 269.1489 132.267161 
L 269.500272 131.997972 
L 270.554387 131.997972 
L 270.905759 135.497426 
L 271.257131 135.497426 
L 271.608503 146.534166 
L 271.959875 145.7266 
L 272.311247 133.074727 
L 272.662618 127.421763 
L 273.365362 127.421763 
L 273.716734 134.286077 
L 274.068106 161.204954 
L 274.419478 161.204954 
L 274.77085 178.029253 
L 275.122222 161.204954 
L 275.473593 161.204954 
L 275.824965 128.767707 
L 276.176337 122.307176 
L 276.879081 122.307176 
L 277.230453 129.036895 
L 277.581825 145.188222 
L 277.933196 151.24497 
L 278.284568 137.381748 
L 278.63594 137.381748 
L 278.987312 130.921217 
L 279.690056 126.883385 
L 280.041428 126.345008 
L 280.744171 126.345008 
L 281.095543 154.071452 
L 281.446915 166.723324 
L 281.798287 166.723324 
L 282.149659 167.261702 
L 282.501031 165.646569 
L 282.852403 150.571998 
L 283.203774 129.440679 
L 283.555146 129.440679 
L 283.906518 126.883385 
L 284.25789 127.152574 
L 284.609262 133.343916 
L 284.960634 147.88011 
L 285.312006 146.130383 
L 285.663378 129.036895 
L 286.014749 129.036895 
L 286.366121 125.268253 
L 286.717493 125.268253 
L 287.068865 134.68986 
L 287.420237 137.381748 
L 287.771609 176.41412 
L 288.122981 181.797896 
L 288.474352 169.415212 
L 288.825724 169.415212 
L 289.528468 138.189314 
L 289.87984 135.497426 
L 290.231212 135.228237 
L 290.933956 135.228237 
L 291.636699 183.702499 
L 293.042187 183.702499 
L 293.393559 157.032528 
L 293.74493 142.765523 
L 294.096302 142.765523 
L 294.447674 125.537441 
L 294.799046 120.961232 
L 295.150418 120.961232 
L 295.853162 153.263885 
L 296.204534 153.263885 
L 296.555905 158.91685 
L 296.907277 179.106008 
L 297.258649 179.106008 
L 297.961393 167.800079 
L 298.312765 167.800079 
L 298.664137 167.261702 
L 299.015509 169.415212 
L 299.36688 169.415212 
L 300.069624 182.336273 
L 300.420996 183.702499 
L 313.421755 183.702499 
L 313.773127 182.983905 
L 315.881358 182.983905 
L 316.23273 183.343202 
L 316.584102 183.343202 
L 316.935474 182.983905 
L 338.017786 182.874651 
L 338.369158 182.336273 
L 338.72053 182.336273 
L 339.071901 182.067084 
L 340.126017 182.067084 
L 340.477389 182.201679 
L 340.828761 177.235152 
L 341.531504 160.707488 
L 341.882876 154.958735 
L 342.234248 154.958735 
L 342.58562 153.521547 
L 343.639736 153.521547 
L 343.991108 154.240141 
L 344.693851 175.07937 
L 345.045223 175.07937 
L 345.396595 180.182763 
L 345.747967 179.913574 
L 346.450711 179.913574 
L 346.802082 180.317357 
L 347.153454 180.317357 
L 347.504826 180.451952 
L 347.856198 180.317357 
L 348.20757 180.317357 
L 348.558942 180.048169 
L 348.910314 180.317357 
L 349.261686 180.317357 
L 349.613057 180.586546 
L 349.964429 180.586546 
L 350.315801 180.721141 
L 350.667173 172.923587 
L 351.369917 130.526537 
L 351.721289 121.903408 
L 352.424032 121.903408 
L 352.775404 125.496378 
L 353.82952 180.317357 
L 354.180892 180.182763 
L 354.532264 180.182763 
L 354.883635 180.451952 
L 355.235007 169.330617 
L 355.586379 169.330617 
L 356.289123 125.496378 
L 356.640495 119.029032 
L 357.343239 119.029032 
L 357.69461 120.46622 
L 358.748726 177.235152 
L 359.100098 167.174835 
L 359.45147 142.742636 
L 359.802842 142.742636 
L 360.154213 118.310437 
L 360.856957 118.310437 
L 361.208329 122.622002 
L 362.262445 179.375197 
L 363.31656 179.375197 
L 364.019304 179.106008 
L 364.722048 179.106008 
L 365.424791 179.375197 
L 365.776163 179.375197 
L 366.127535 179.509791 
L 366.478907 179.375197 
L 366.830279 179.375197 
L 367.533023 179.106008 
L 367.884395 179.106008 
L 368.235766 178.971414 
L 368.93851 179.240602 
L 369.641254 179.913574 
L 369.992626 179.913574 
L 370.695369 180.317357 
L 371.046741 180.182763 
L 372.100857 179.509791 
L 372.803601 179.509791 
L 373.154973 179.644385 
L 374.209088 179.644385 
L 374.56046 179.509791 
L 379.128294 179.509791 
L 379.479666 179.240602 
L 380.18241 179.240602 
L 380.533782 179.106008 
L 381.587897 179.509791 
L 382.290641 179.509791 
L 382.642013 179.644385 
L 382.993385 180.048169 
L 383.344757 180.048169 
L 383.696129 180.182763 
L 384.0475 180.182763 
L 384.398872 157.473815 
L 384.750244 158.192409 
L 385.101616 142.024042 
L 385.452988 142.024042 
L 385.80436 121.184814 
L 386.155732 116.873249 
L 386.507104 116.873249 
L 386.858475 124.777784 
L 387.209847 142.742636 
L 387.561219 136.275289 
L 387.912591 132.682319 
L 388.263963 108.968714 
L 388.966707 108.968714 
L 389.318078 116.154655 
L 389.66945 116.154655 
L 390.020822 160.707488 
L 390.372194 171.127102 
L 391.42631 171.127102 
L 391.777682 171.486399 
L 392.129053 171.127102 
L 392.480425 171.486399 
L 393.183169 171.486399 
L 393.534541 170.408508 
L 393.885913 170.408508 
L 394.237285 169.689914 
L 394.940028 168.97132 
L 395.642772 169.689914 
L 395.994144 169.689914 
L 396.345516 170.408508 
L 396.696888 170.408508 
L 397.04826 169.689914 
L 397.751003 168.97132 
L 398.102375 168.97132 
L 398.453747 168.252726 
L 398.805119 166.815538 
L 399.156491 166.815538 
L 399.859234 113.998873 
L 400.210606 113.998873 
L 400.561978 80.943545 
L 400.91335 80.943545 
L 401.264722 80.224951 
L 401.616094 81.662139 
L 402.318838 80.224951 
L 402.670209 78.069169 
L 403.724325 78.069169 
L 404.075697 82.740031 
L 404.778441 98.189803 
L 405.129813 113.280279 
L 405.481184 113.280279 
L 405.832556 140.881202 
L 406.183928 131.190406 
L 406.5353 105.213689 
L 406.886672 98.349375 
L 407.238044 98.349375 
L 407.589416 110.597464 
L 407.940787 110.597464 
L 408.643531 156.224962 
L 408.994903 168.97132 
L 410.751762 168.97132 
L 411.103134 162.954681 
L 411.454506 154.609829 
L 411.805878 152.456319 
L 412.15725 151.917941 
L 413.562737 151.917941 
L 413.914109 151.379564 
L 414.265481 151.917941 
L 414.616853 152.18713 
L 414.968225 152.725508 
L 415.319597 152.725508 
L 415.670969 152.456319 
L 416.02234 151.648753 
L 416.373712 150.302809 
L 416.725084 150.03362 
L 417.076456 150.03362 
L 417.427828 150.302809 
L 418.481943 150.302809 
L 419.184687 149.764431 
L 419.536059 149.764431 
L 419.887431 150.03362 
L 420.238803 150.841186 
L 420.590175 150.841186 
L 420.941547 151.648753 
L 421.292918 157.570906 
L 421.995662 175.068176 
L 423.049778 175.068176 
L 423.40115 175.875743 
L 423.752521 175.875743 
L 424.455265 176.41412 
L 424.806637 176.41412 
L 425.509381 176.683309 
L 425.860753 176.683309 
L 426.212125 176.952498 
L 426.914868 176.952498 
L 427.26624 176.817903 
L 427.617612 176.952498 
L 427.968984 176.952498 
L 428.320356 176.41412 
L 428.671728 176.875855 
L 429.374471 176.875855 
L 429.725843 177.594449 
L 430.077215 177.594449 
L 430.428587 136.304992 
L 430.779959 136.304992 
L 431.131331 108.847737 
L 431.482703 105.617472 
L 431.834074 105.348283 
L 432.185446 105.617472 
L 432.536818 106.425038 
L 432.536818 106.425038 
" clip-path="url(#p16f0a21690)" style="fill: none; stroke: #0000ff; stroke-opacity: 0.2; stroke-width: 1.5; stroke-linecap: square"/>
   </g>
   <g id="line2d_36">
    <path d="M 83.273182 184.711851 
L 161.629108 184.711851 
L 161.98048 182.770307 
L 163.737339 181.955882 
L 165.494199 180.897915 
L 167.251058 179.595574 
L 169.359289 177.726547 
L 171.467521 175.547949 
L 173.927124 172.648222 
L 176.386727 169.397301 
L 179.197702 165.295466 
L 182.360048 160.247669 
L 185.873767 154.185673 
L 190.09023 146.421442 
L 195.712179 135.541752 
L 206.956079 113.675137 
L 211.172542 106.019553 
L 214.68626 100.074151 
L 217.848607 95.145546 
L 220.659582 91.154415 
L 223.470557 87.573019 
L 225.93016 84.804431 
L 228.389763 82.39955 
L 230.497994 80.642131 
L 232.606226 79.176048 
L 234.714457 78.009791 
L 236.471316 77.271878 
L 238.228175 76.749886 
L 239.985035 76.445931 
L 241.741894 76.361258 
L 243.498753 76.496234 
L 245.255613 76.850349 
L 247.012472 77.422217 
L 248.769331 78.209581 
L 250.526191 79.209323 
L 252.634422 80.683709 
L 254.742653 82.449728 
L 256.850884 84.49727 
L 259.310487 87.226144 
L 261.770091 90.300882 
L 264.581065 94.207477 
L 267.39204 98.494568 
L 270.554387 103.717797 
L 274.068106 109.939066 
L 278.63594 118.525091 
L 285.312006 131.636441 
L 293.393559 147.429551 
L 297.961393 155.849886 
L 301.475112 161.894992 
L 304.637458 166.926813 
L 307.448433 171.020567 
L 310.259408 174.715179 
L 312.719011 177.592081 
L 314.475871 179.354282 
L 316.584102 181.054842 
L 318.340961 182.207348 
L 320.097821 183.084756 
L 322.557424 183.911379 
L 324.314283 184.27011 
L 327.828002 184.668783 
L 330.638977 184.711851 
L 432.536818 184.711851 
L 432.536818 184.711851 
" clip-path="url(#p16f0a21690)" style="fill: none; stroke: #ffa500; stroke-width: 1.5; stroke-linecap: square"/>
   </g>
   <g id="line2d_37">
    <path d="M 83.273182 170.408508 
L 83.624554 170.408508 
L 83.975926 170.049211 
L 84.327297 169.330617 
L 84.678669 168.97132 
L 85.030041 169.330617 
L 85.381413 169.330617 
L 86.084157 170.767805 
L 87.841016 170.767805 
L 88.192388 171.127102 
L 89.597875 171.127102 
L 89.949247 170.408508 
L 91.003363 170.408508 
L 91.354735 169.689914 
L 91.706107 169.330617 
L 92.057479 169.330617 
L 92.40885 170.049211 
L 92.760222 170.049211 
L 93.111594 170.408508 
L 93.814338 171.845696 
L 94.868453 171.845696 
L 95.571197 170.408508 
L 96.625313 170.408508 
L 97.328057 169.689914 
L 97.679428 168.97132 
L 98.733544 168.97132 
L 99.084916 169.689914 
L 99.436288 170.049211 
L 99.78766 171.127102 
L 100.139031 171.127102 
L 100.490403 172.56429 
L 100.841775 172.56429 
L 101.193147 173.282884 
L 102.247263 173.282884 
L 102.598635 172.923587 
L 103.301378 172.923587 
L 103.65275 172.56429 
L 104.004122 171.845696 
L 104.355494 171.486399 
L 104.706866 171.845696 
L 105.058238 172.56429 
L 105.409609 172.56429 
L 105.760981 173.282884 
L 106.112353 173.282884 
L 106.463725 174.001479 
L 106.815097 174.001479 
L 107.166469 173.282884 
L 107.517841 173.282884 
L 107.869213 172.56429 
L 109.2747 172.56429 
L 109.977444 171.845696 
L 110.680187 171.845696 
L 111.031559 171.486399 
L 111.382931 171.486399 
L 111.734303 171.127102 
L 113.842534 171.127102 
L 114.193906 170.767805 
L 114.545278 170.049211 
L 114.89665 169.689914 
L 115.248022 168.97132 
L 115.599394 168.97132 
L 115.950766 169.689914 
L 116.302137 171.127102 
L 116.653509 171.127102 
L 117.356253 172.56429 
L 117.707625 172.56429 
L 118.058997 172.923587 
L 118.410369 175.07937 
L 118.76174 175.07937 
L 119.113112 179.031637 
L 119.464484 179.750231 
L 119.815856 179.77898 
L 120.167228 179.644385 
L 120.5186 179.375197 
L 120.869972 178.298442 
L 121.221344 178.298442 
L 121.572715 178.163847 
L 121.924087 177.594449 
L 122.275459 177.594449 
L 122.626831 176.875855 
L 122.978203 176.875855 
L 123.329575 176.516558 
L 123.680947 176.516558 
L 124.38369 177.235152 
L 124.735062 177.953746 
L 125.086434 178.163847 
L 127.546037 178.163847 
L 127.897409 177.953746 
L 128.248781 177.953746 
L 128.600153 176.875855 
L 128.951525 176.875855 
L 129.302896 177.594449 
L 130.357012 178.67234 
L 131.059756 178.67234 
L 131.411128 179.031637 
L 132.113871 179.031637 
L 132.465243 179.375197 
L 137.033078 179.375197 
L 137.384449 179.031637 
L 138.087193 177.594449 
L 138.789937 177.594449 
L 139.141309 178.67234 
L 139.492681 178.67234 
L 140.195424 179.390934 
L 140.546796 179.106008 
L 140.898168 179.509791 
L 141.24954 179.031637 
L 143.006399 179.031637 
L 143.357771 179.375197 
L 147.925605 179.375197 
L 148.276977 178.67234 
L 148.979721 178.67234 
L 149.331093 177.594449 
L 149.682465 177.594449 
L 150.033837 177.953746 
L 150.385209 178.67234 
L 151.087952 179.390934 
L 151.790696 179.390934 
L 152.142068 179.031637 
L 152.49344 178.313043 
L 153.898927 178.313043 
L 154.250299 179.031637 
L 154.601671 179.375197 
L 160.223621 179.375197 
L 160.574993 179.031637 
L 160.926365 178.313043 
L 161.277736 178.313043 
L 161.629108 177.594449 
L 161.98048 180.254587 
L 162.331852 180.398721 
L 162.683224 181.270621 
L 164.440083 182.181116 
L 164.791455 181.674119 
L 165.494199 182.126979 
L 165.845571 183.086749 
L 166.196943 183.681225 
L 167.953802 185.078464 
L 170.062033 187.053583 
L 171.116149 188.15559 
L 172.170264 189.868084 
L 172.521636 190.544153 
L 172.873008 190.95861 
L 173.22438 181.965579 
L 173.575752 178.08331 
L 174.278496 135.847948 
L 174.629867 136.298735 
L 174.981239 125.977573 
L 175.332611 126.442188 
L 175.683983 128.710053 
L 176.035355 129.188101 
L 176.386727 130.032017 
L 176.738099 130.523109 
L 177.08947 130.301982 
L 177.440842 130.446432 
L 177.792214 130.956361 
L 178.143586 131.831673 
L 178.494958 133.072269 
L 178.84633 133.600164 
L 179.197702 135.211743 
L 179.900445 136.296113 
L 180.251817 136.128006 
L 180.603189 136.683896 
L 180.954561 136.526497 
L 181.305933 137.811493 
L 182.008677 138.95952 
L 182.360048 140.25954 
L 183.414164 142.032266 
L 183.765536 142.273023 
L 184.116908 142.877481 
L 184.46828 143.845538 
L 184.819652 144.458497 
L 185.171023 144.356958 
L 185.522395 144.618709 
L 186.225139 145.872366 
L 186.576511 147.223361 
L 186.927883 147.859337 
L 187.630626 150.219483 
L 187.981998 150.865549 
L 188.33337 152.23336 
L 190.09023 155.522955 
L 190.792973 156.138487 
L 191.144345 157.886924 
L 191.847089 152.048496 
L 192.198461 152.725243 
L 192.901204 136.837909 
L 193.95532 97.928347 
L 194.306692 98.614514 
L 194.658064 97.14608 
L 195.009436 97.834499 
L 195.360808 104.272628 
L 195.712179 130.113644 
L 196.063551 145.895078 
L 196.414923 146.58666 
L 196.766295 169.914466 
L 198.171783 172.685709 
L 198.523154 173.737976 
L 198.874526 172.993597 
L 199.225898 176.56051 
L 199.57727 177.252663 
L 200.280014 179.713261 
L 202.739617 184.52427 
L 203.090989 185.925059 
L 203.793732 187.284528 
L 204.145104 133.348434 
L 204.496476 134.023558 
L 204.847848 133.618751 
L 205.19922 124.947964 
L 205.550592 124.179456 
L 205.901964 124.845772 
L 206.253335 126.228211 
L 206.604707 126.889478 
L 206.956079 185.035587 
L 207.307451 197.188885 
L 207.658823 197.841783 
L 208.361567 197.701284 
L 208.712939 199.422759 
L 209.06431 200.063031 
L 209.415682 201.059184 
L 209.767054 200.973929 
L 210.118426 201.603648 
L 210.82117 204.289013 
L 211.172542 211.374617 
L 211.523913 230.6723 
L 211.875285 226.25226 
L 212.226657 226.85816 
L 212.578029 206.620519 
L 213.632145 208.39843 
L 213.983517 211.856177 
L 214.334888 213.153351 
L 214.68626 212.28986 
L 215.389004 213.422238 
L 215.740376 214.69933 
L 216.091748 219.564146 
L 216.44312 235.202538 
L 217.145863 225.503101 
L 217.497235 215.974169 
L 217.848607 215.781278 
L 218.199979 216.301214 
L 218.551351 224.719835 
L 218.902723 238.881275 
L 219.254095 237.227632 
L 219.605466 224.788983 
L 219.956838 224.560258 
L 220.659582 225.521161 
L 221.010954 234.615168 
L 221.362326 251.607226 
L 221.713698 249.190687 
L 222.06507 239.581576 
L 222.416441 240.026079 
L 222.767813 239.745212 
L 223.119185 246.643441 
L 223.470557 247.067409 
L 224.173301 273.045122 
L 224.524673 277.040912 
L 224.876044 268.813423 
L 225.227416 251.955561 
L 225.578788 252.336651 
L 225.93016 235.464115 
L 226.281532 235.111816 
L 226.632904 235.470625 
L 226.984276 240.852049 
L 227.335648 259.87916 
L 227.687019 260.215169 
L 228.038391 277.071133 
L 228.389763 268.768541 
L 228.741135 269.081265 
L 229.443879 240.220714 
L 229.795251 240.509699 
L 230.146622 238.634895 
L 230.849366 239.17265 
L 231.55211 241.115038 
L 231.903482 249.259863 
L 232.606226 280.615172 
L 232.957597 280.830574 
L 233.308969 283.193391 
L 233.660341 268.301549 
L 234.011713 260.946513 
L 234.363085 245.678479 
L 234.714457 244.414537 
L 236.119944 245.022058 
L 236.471316 245.871044 
L 236.822688 253.897332 
L 237.525432 285.732979 
L 237.876804 280.78962 
L 238.228175 280.876631 
L 238.579547 279.608973 
L 239.282291 235.323175 
L 239.633663 226.761177 
L 239.985035 226.535264 
L 240.336407 226.569766 
L 240.687778 250.2841 
L 241.03915 250.301037 
L 241.390522 273.728611 
L 241.741894 280.188504 
L 242.093266 278.563944 
L 242.444638 263.201969 
L 242.79601 240.024735 
L 243.147382 239.988955 
L 243.498753 226.215772 
L 243.850125 226.162448 
L 244.201497 228.119281 
L 245.255613 291.564 
L 247.012472 290.992132 
L 248.769331 290.204768 
L 250.526191 289.205026 
L 252.28305 287.996873 
L 252.985794 286.73771 
L 253.337166 282.143747 
L 253.688538 281.853333 
L 254.039909 279.399167 
L 254.391281 274.683402 
L 255.094025 231.515392 
L 255.445397 222.571574 
L 256.499513 221.536142 
L 257.202256 222.961496 
L 257.553628 223.393797 
L 257.905 223.011152 
L 258.256372 222.352 
L 258.607744 221.95478 
L 258.959116 222.088745 
L 259.310487 224.369092 
L 259.661859 225.56562 
L 260.013231 227.29353 
L 260.715975 225.614047 
L 261.067347 225.167869 
L 261.770091 223.447864 
L 262.121462 222.71256 
L 262.472834 222.509135 
L 262.824206 225.798741 
L 263.175578 225.313356 
L 263.52695 226.167646 
L 263.878322 225.669801 
L 264.581065 222.233157 
L 264.932437 220.371274 
L 266.337925 218.249676 
L 267.040669 224.692644 
L 267.39204 226.021729 
L 268.094784 224.895547 
L 268.446156 221.902081 
L 268.797528 216.211732 
L 269.1489 215.631064 
L 269.851643 214.186199 
L 270.554387 212.992026 
L 270.905759 215.887695 
L 271.257131 215.279572 
L 271.608503 225.703949 
L 271.959875 224.279876 
L 272.311247 211.007453 
L 272.662618 204.729991 
L 273.365362 203.46956 
L 273.716734 209.698139 
L 274.068106 235.977739 
L 274.419478 235.33502 
L 274.77085 251.513259 
L 275.122222 234.039665 
L 275.473593 233.387236 
L 275.824965 200.294531 
L 276.176337 193.175619 
L 276.879081 191.850503 
L 277.230453 197.913699 
L 277.581825 213.396 
L 277.933196 218.781328 
L 278.284568 204.244397 
L 278.63594 203.568508 
L 278.987312 196.430015 
L 279.690056 191.030472 
L 280.041428 189.808562 
L 280.744171 188.436691 
L 281.095543 215.475014 
L 281.446915 227.437455 
L 281.798287 226.746822 
L 282.149659 226.593477 
L 282.501031 224.28564 
L 282.852403 208.517495 
L 283.203774 186.691842 
L 283.555146 185.996859 
L 283.906518 182.744045 
L 284.25789 182.317286 
L 284.609262 187.812362 
L 284.960634 201.652085 
L 285.312006 199.205793 
L 285.663378 181.415756 
L 286.014749 180.719333 
L 286.366121 176.254506 
L 286.717493 175.55867 
L 287.068865 184.284902 
L 287.420237 186.281984 
L 287.771609 224.620231 
L 288.122981 229.310673 
L 288.474352 216.235558 
L 288.825724 215.544138 
L 289.528468 182.938876 
L 289.87984 179.559264 
L 290.582584 177.919087 
L 290.933956 177.236042 
L 291.636699 224.349654 
L 293.042187 221.653139 
L 293.393559 194.314828 
L 293.74493 179.382011 
L 294.096302 178.718834 
L 294.447674 160.830314 
L 294.799046 155.59651 
L 295.150418 154.941865 
L 295.853162 185.944487 
L 296.204534 185.299308 
L 296.555905 190.310454 
L 296.907277 209.861257 
L 297.258649 209.226465 
L 297.961393 196.662045 
L 298.312765 196.038544 
L 298.664137 194.880628 
L 299.015509 196.41866 
L 299.36688 195.807339 
L 300.069624 207.518615 
L 300.420996 208.286567 
L 303.583343 203.117438 
L 306.74569 198.381315 
L 309.556665 194.583348 
L 312.016268 191.608955 
L 313.421755 190.087682 
L 313.773127 189.01517 
L 315.178614 187.736832 
L 315.881358 187.169475 
L 316.23273 187.261446 
L 316.584102 187.000211 
L 316.935474 186.385804 
L 318.692333 185.29309 
L 320.449192 184.476958 
L 322.557424 183.784376 
L 324.314283 183.425645 
L 327.828002 183.026972 
L 330.638977 182.983905 
L 338.017786 182.874651 
L 338.369158 182.336273 
L 338.72053 182.336273 
L 339.071901 182.067084 
L 340.126017 182.067084 
L 340.477389 182.201679 
L 340.828761 177.235152 
L 341.531504 160.707488 
L 341.882876 154.958735 
L 342.234248 154.958735 
L 342.58562 153.521547 
L 343.639736 153.521547 
L 343.991108 154.240141 
L 344.693851 175.07937 
L 345.045223 175.07937 
L 345.396595 180.182763 
L 345.747967 179.913574 
L 346.450711 179.913574 
L 346.802082 180.317357 
L 347.153454 180.317357 
L 347.504826 180.451952 
L 347.856198 180.317357 
L 348.20757 180.317357 
L 348.558942 180.048169 
L 348.910314 180.317357 
L 349.261686 180.317357 
L 349.613057 180.586546 
L 349.964429 180.586546 
L 350.315801 180.721141 
L 350.667173 172.923587 
L 351.369917 130.526537 
L 351.721289 121.903408 
L 352.424032 121.903408 
L 352.775404 125.496378 
L 353.82952 180.317357 
L 354.180892 180.182763 
L 354.532264 180.182763 
L 354.883635 180.451952 
L 355.235007 169.330617 
L 355.586379 169.330617 
L 356.289123 125.496378 
L 356.640495 119.029032 
L 357.343239 119.029032 
L 357.69461 120.46622 
L 358.748726 177.235152 
L 359.100098 167.174835 
L 359.45147 142.742636 
L 359.802842 142.742636 
L 360.154213 118.310437 
L 360.856957 118.310437 
L 361.208329 122.622002 
L 362.262445 179.375197 
L 363.31656 179.375197 
L 364.019304 179.106008 
L 364.722048 179.106008 
L 365.424791 179.375197 
L 365.776163 179.375197 
L 366.127535 179.509791 
L 366.478907 179.375197 
L 366.830279 179.375197 
L 367.533023 179.106008 
L 367.884395 179.106008 
L 368.235766 178.971414 
L 368.93851 179.240602 
L 369.641254 179.913574 
L 369.992626 179.913574 
L 370.695369 180.317357 
L 371.046741 180.182763 
L 372.100857 179.509791 
L 372.803601 179.509791 
L 373.154973 179.644385 
L 374.209088 179.644385 
L 374.56046 179.509791 
L 379.128294 179.509791 
L 379.479666 179.240602 
L 380.18241 179.240602 
L 380.533782 179.106008 
L 381.587897 179.509791 
L 382.290641 179.509791 
L 382.642013 179.644385 
L 382.993385 180.048169 
L 383.344757 180.048169 
L 383.696129 180.182763 
L 384.0475 180.182763 
L 384.398872 157.473815 
L 384.750244 158.192409 
L 385.101616 142.024042 
L 385.452988 142.024042 
L 385.80436 121.184814 
L 386.155732 116.873249 
L 386.507104 116.873249 
L 386.858475 124.777784 
L 387.209847 142.742636 
L 387.561219 136.275289 
L 387.912591 132.682319 
L 388.263963 108.968714 
L 388.966707 108.968714 
L 389.318078 116.154655 
L 389.66945 116.154655 
L 390.020822 160.707488 
L 390.372194 171.127102 
L 391.42631 171.127102 
L 391.777682 171.486399 
L 392.129053 171.127102 
L 392.480425 171.486399 
L 393.183169 171.486399 
L 393.534541 170.408508 
L 393.885913 170.408508 
L 394.237285 169.689914 
L 394.940028 168.97132 
L 395.642772 169.689914 
L 395.994144 169.689914 
L 396.345516 170.408508 
L 396.696888 170.408508 
L 397.04826 169.689914 
L 397.751003 168.97132 
L 398.102375 168.97132 
L 398.453747 168.252726 
L 398.805119 166.815538 
L 399.156491 166.815538 
L 399.859234 113.998873 
L 400.210606 113.998873 
L 400.561978 80.943545 
L 400.91335 80.943545 
L 401.264722 80.224951 
L 401.616094 81.662139 
L 402.318838 80.224951 
L 402.670209 78.069169 
L 403.724325 78.069169 
L 404.075697 82.740031 
L 404.778441 98.189803 
L 405.129813 113.280279 
L 405.481184 113.280279 
L 405.832556 140.881202 
L 406.183928 131.190406 
L 406.5353 105.213689 
L 406.886672 98.349375 
L 407.238044 98.349375 
L 407.589416 110.597464 
L 407.940787 110.597464 
L 408.643531 156.224962 
L 408.994903 168.97132 
L 410.751762 168.97132 
L 411.103134 162.954681 
L 411.454506 154.609829 
L 411.805878 152.456319 
L 412.15725 151.917941 
L 413.562737 151.917941 
L 413.914109 151.379564 
L 414.265481 151.917941 
L 414.616853 152.18713 
L 414.968225 152.725508 
L 415.319597 152.725508 
L 415.670969 152.456319 
L 416.02234 151.648753 
L 416.373712 150.302809 
L 416.725084 150.03362 
L 417.076456 150.03362 
L 417.427828 150.302809 
L 418.481943 150.302809 
L 419.184687 149.764431 
L 419.536059 149.764431 
L 419.887431 150.03362 
L 420.238803 150.841186 
L 420.590175 150.841186 
L 420.941547 151.648753 
L 421.292918 157.570906 
L 421.995662 175.068176 
L 423.049778 175.068176 
L 423.40115 175.875743 
L 423.752521 175.875743 
L 424.455265 176.41412 
L 424.806637 176.41412 
L 425.509381 176.683309 
L 425.860753 176.683309 
L 426.212125 176.952498 
L 426.914868 176.952498 
L 427.26624 176.817903 
L 427.617612 176.952498 
L 427.968984 176.952498 
L 428.320356 176.41412 
L 428.671728 176.875855 
L 429.374471 176.875855 
L 429.725843 177.594449 
L 430.077215 177.594449 
L 430.428587 136.304992 
L 430.779959 136.304992 
L 431.131331 108.847737 
L 431.482703 105.617472 
L 431.834074 105.348283 
L 432.185446 105.617472 
L 432.536818 106.425038 
L 432.536818 106.425038 
" clip-path="url(#p16f0a21690)" style="fill: none; stroke: #ff0000; stroke-width: 1.5; stroke-linecap: square"/>
   </g>
   <g id="patch_3">
    <path d="M 65.81 303.64 
L 65.81 37.968 
" style="fill: none; stroke: #000000; stroke-width: 0.8; stroke-linejoin: miter; stroke-linecap: square"/>
   </g>
   <g id="patch_4">
    <path d="M 450 303.64 
L 450 37.968 
" style="fill: none; stroke: #000000; stroke-width: 0.8; stroke-linejoin: miter; stroke-linecap: square"/>
   </g>
   <g id="patch_5">
    <path d="M 65.81 303.64 
L 450 303.64 
" style="fill: none; stroke: #000000; stroke-width: 0.8; stroke-linejoin: miter; stroke-linecap: square"/>
   </g>
   <g id="patch_6">
    <path d="M 65.81 37.968 
L 450 37.968 
" style="fill: none; stroke: #000000; stroke-width: 0.8; stroke-linejoin: miter; stroke-linecap: square"/>
   </g>
   <g id="text_20">
    <!-- Power characteristics -->
    <g transform="translate(193.893438 18.530625) scale(0.12 -0.12)">
     <defs>
      <path id="DejaVuSans-63" d="M 3122 3366 
L 3122 2828 
Q 2878 2963 2633 3030 
Q 2388 3097 2138 3097 
Q 1578 3097 1268 2742 
Q 959 2388 959 1747 
Q 959 1106 1268 751 
Q 1578 397 2138 397 
Q 2388 397 2633 464 
Q 2878 531 3122 666 
L 3122 134 
Q 2881 22 2623 -34 
Q 2366 -91 2075 -91 
Q 1284 -91 818 406 
Q 353 903 353 1747 
Q 353 2603 823 3093 
Q 1294 3584 2113 3584 
Q 2378 3584 2631 3529 
Q 2884 3475 3122 3366 
z
" transform="scale(0.015625)"/>
      <path id="DejaVuSans-61" d="M 2194 1759 
Q 1497 1759 1228 1600 
Q 959 1441 959 1056 
Q 959 750 1161 570 
Q 1363 391 1709 391 
Q 2188 391 2477 730 
Q 2766 1069 2766 1631 
L 2766 1759 
L 2194 1759 
z
M 3341 1997 
L 3341 0 
L 2766 0 
L 2766 531 
Q 2569 213 2275 61 
Q 1981 -91 1556 -91 
Q 1019 -91 701 211 
Q 384 513 384 1019 
Q 384 1609 779 1909 
Q 1175 2209 1959 2209 
L 2766 2209 
L 2766 2266 
Q 2766 2663 2505 2880 
Q 2244 3097 1772 3097 
Q 1472 3097 1187 3025 
Q 903 2953 641 2809 
L 641 3341 
Q 956 3463 1253 3523 
Q 1550 3584 1831 3584 
Q 2591 3584 2966 3190 
Q 3341 2797 3341 1997 
z
" transform="scale(0.015625)"/>
      <path id="DejaVuSans-74" d="M 1172 4494 
L 1172 3500 
L 2356 3500 
L 2356 3053 
L 1172 3053 
L 1172 1153 
Q 1172 725 1289 603 
Q 1406 481 1766 481 
L 2356 481 
L 2356 0 
L 1766 0 
Q 1100 0 847 248 
Q 594 497 594 1153 
L 594 3053 
L 172 3053 
L 172 3500 
L 594 3500 
L 594 4494 
L 1172 4494 
z
" transform="scale(0.015625)"/>
      <path id="DejaVuSans-73" d="M 2834 3397 
L 2834 2853 
Q 2591 2978 2328 3040 
Q 2066 3103 1784 3103 
Q 1356 3103 1142 2972 
Q 928 2841 928 2578 
Q 928 2378 1081 2264 
Q 1234 2150 1697 2047 
L 1894 2003 
Q 2506 1872 2764 1633 
Q 3022 1394 3022 966 
Q 3022 478 2636 193 
Q 2250 -91 1575 -91 
Q 1294 -91 989 -36 
Q 684 19 347 128 
L 347 722 
Q 666 556 975 473 
Q 1284 391 1588 391 
Q 1994 391 2212 530 
Q 2431 669 2431 922 
Q 2431 1156 2273 1281 
Q 2116 1406 1581 1522 
L 1381 1569 
Q 847 1681 609 1914 
Q 372 2147 372 2553 
Q 372 3047 722 3315 
Q 1072 3584 1716 3584 
Q 2034 3584 2315 3537 
Q 2597 3491 2834 3397 
z
" transform="scale(0.015625)"/>
     </defs>
     <use xlink:href="#DejaVuSans-50"/>
     <use xlink:href="#DejaVuSans-6f" x="56.677734"/>
     <use xlink:href="#DejaVuSans-77" x="117.859375"/>
     <use xlink:href="#DejaVuSans-65" x="199.646484"/>
     <use xlink:href="#DejaVuSans-72" x="261.169922"/>
     <use xlink:href="#DejaVuSans-20" x="302.283203"/>
     <use xlink:href="#DejaVuSans-63" x="334.070312"/>
     <use xlink:href="#DejaVuSans-68" x="389.050781"/>
     <use xlink:href="#DejaVuSans-61" x="452.429688"/>
     <use xlink:href="#DejaVuSans-72" x="513.708984"/>
     <use xlink:href="#DejaVuSans-61" x="554.822266"/>
     <use xlink:href="#DejaVuSans-63" x="616.101562"/>
     <use xlink:href="#DejaVuSans-74" x="671.082031"/>
     <use xlink:href="#DejaVuSans-65" x="710.291016"/>
     <use xlink:href="#DejaVuSans-72" x="771.814453"/>
     <use xlink:href="#DejaVuSans-69" x="812.927734"/>
     <use xlink:href="#DejaVuSans-73" x="840.710938"/>
     <use xlink:href="#DejaVuSans-74" x="892.810547"/>
     <use xlink:href="#DejaVuSans-69" x="932.019531"/>
     <use xlink:href="#DejaVuSans-63" x="959.802734"/>
     <use xlink:href="#DejaVuSans-73" x="1014.783203"/>
    </g>
    <!-- Lowest cost: 3€ -->
    <g transform="translate(211.000938 31.968) scale(0.12 -0.12)">
     <defs>
      <path id="DejaVuSans-4c" d="M 628 4666 
L 1259 4666 
L 1259 531 
L 3531 531 
L 3531 0 
L 628 0 
L 628 4666 
z
" transform="scale(0.015625)"/>
      <path id="DejaVuSans-3a" d="M 750 794 
L 1409 794 
L 1409 0 
L 750 0 
L 750 794 
z
M 750 3309 
L 1409 3309 
L 1409 2516 
L 750 2516 
L 750 3309 
z
" transform="scale(0.015625)"/>
      <path id="DejaVuSans-20ac" d="M 3647 4306 
L 3647 3641 
Q 3363 3969 3098 4109 
Q 2834 4250 2516 4250 
Q 2025 4250 1709 3937 
Q 1394 3625 1294 3041 
L 3097 3041 
L 2925 2656 
L 1244 2656 
Q 1238 2581 1236 2509 
Q 1234 2438 1234 2328 
Q 1234 2228 1236 2156 
Q 1238 2084 1244 2009 
L 2638 2009 
L 2463 1625 
L 1294 1625 
Q 1394 1041 1709 725 
Q 2025 409 2516 409 
Q 2834 409 3098 550 
Q 3363 691 3647 1019 
L 3647 359 
Q 3369 134 3080 21 
Q 2791 -91 2491 -91 
Q 1750 -91 1267 362 
Q 784 816 659 1625 
L 0 1625 
L 172 2009 
L 606 2009 
Q 606 2081 604 2154 
Q 603 2228 603 2328 
Q 603 2438 604 2511 
Q 606 2584 606 2656 
L 0 2656 
L 172 3041 
L 659 3041 
Q 784 3844 1268 4297 
Q 1753 4750 2491 4750 
Q 2797 4750 3086 4639 
Q 3375 4528 3647 4306 
z
" transform="scale(0.015625)"/>
     </defs>
     <use xlink:href="#DejaVuSans-4c"/>
     <use xlink:href="#DejaVuSans-6f" x="53.962891"/>
     <use xlink:href="#DejaVuSans-77" x="115.144531"/>
     <use xlink:href="#DejaVuSans-65" x="196.931641"/>
     <use xlink:href="#DejaVuSans-73" x="258.455078"/>
     <use xlink:href="#DejaVuSans-74" x="310.554688"/>
     <use xlink:href="#DejaVuSans-20" x="349.763672"/>
     <use xlink:href="#DejaVuSans-63" x="381.550781"/>
     <use xlink:href="#DejaVuSans-6f" x="436.53125"/>
     <use xlink:href="#DejaVuSans-73" x="497.712891"/>
     <use xlink:href="#DejaVuSans-74" x="549.8125"/>
     <use xlink:href="#DejaVuSans-3a" x="589.021484"/>
     <use xlink:href="#DejaVuSans-20" x="622.712891"/>
     <use xlink:href="#DejaVuSans-33" x="654.5"/>
     <use xlink:href="#DejaVuSans-20ac" x="718.123047"/>
    </g>
   </g>
   <g id="legend_1">
    <g id="patch_7">
     <path d="M 72.81 90.002375 
L 181.305313 90.002375 
Q 183.305313 90.002375 183.305313 88.002375 
L 183.305313 44.968 
Q 183.305313 42.968 181.305313 42.968 
L 72.81 42.968 
Q 70.81 42.968 70.81 44.968 
L 70.81 88.002375 
Q 70.81 90.002375 72.81 90.002375 
z
" style="fill: #ffffff; opacity: 0.8; stroke: #cccccc; stroke-linejoin: miter"/>
    </g>
    <g id="line2d_38">
     <path d="M 74.81 51.066437 
L 84.81 51.066437 
L 94.81 51.066437 
" style="fill: none; stroke: #0000ff; stroke-opacity: 0.2; stroke-width: 1.5; stroke-linecap: square"/>
    </g>
    <g id="text_21">
     <!-- Demand power -->
     <g transform="translate(102.81 54.566437) scale(0.1 -0.1)">
      <defs>
       <path id="DejaVuSans-44" d="M 1259 4147 
L 1259 519 
L 2022 519 
Q 2988 519 3436 956 
Q 3884 1394 3884 2338 
Q 3884 3275 3436 3711 
Q 2988 4147 2022 4147 
L 1259 4147 
z
M 628 4666 
L 1925 4666 
Q 3281 4666 3915 4102 
Q 4550 3538 4550 2338 
Q 4550 1131 3912 565 
Q 3275 0 1925 0 
L 628 0 
L 628 4666 
z
" transform="scale(0.015625)"/>
       <path id="DejaVuSans-6e" d="M 3513 2113 
L 3513 0 
L 2938 0 
L 2938 2094 
Q 2938 2591 2744 2837 
Q 2550 3084 2163 3084 
Q 1697 3084 1428 2787 
Q 1159 2491 1159 1978 
L 1159 0 
L 581 0 
L 581 3500 
L 1159 3500 
L 1159 2956 
Q 1366 3272 1645 3428 
Q 1925 3584 2291 3584 
Q 2894 3584 3203 3211 
Q 3513 2838 3513 2113 
z
" transform="scale(0.015625)"/>
       <path id="DejaVuSans-64" d="M 2906 2969 
L 2906 4863 
L 3481 4863 
L 3481 0 
L 2906 0 
L 2906 525 
Q 2725 213 2448 61 
Q 2172 -91 1784 -91 
Q 1150 -91 751 415 
Q 353 922 353 1747 
Q 353 2572 751 3078 
Q 1150 3584 1784 3584 
Q 2172 3584 2448 3432 
Q 2725 3281 2906 2969 
z
M 947 1747 
Q 947 1113 1208 752 
Q 1469 391 1925 391 
Q 2381 391 2643 752 
Q 2906 1113 2906 1747 
Q 2906 2381 2643 2742 
Q 2381 3103 1925 3103 
Q 1469 3103 1208 2742 
Q 947 2381 947 1747 
z
" transform="scale(0.015625)"/>
       <path id="DejaVuSans-70" d="M 1159 525 
L 1159 -1331 
L 581 -1331 
L 581 3500 
L 1159 3500 
L 1159 2969 
Q 1341 3281 1617 3432 
Q 1894 3584 2278 3584 
Q 2916 3584 3314 3078 
Q 3713 2572 3713 1747 
Q 3713 922 3314 415 
Q 2916 -91 2278 -91 
Q 1894 -91 1617 61 
Q 1341 213 1159 525 
z
M 3116 1747 
Q 3116 2381 2855 2742 
Q 2594 3103 2138 3103 
Q 1681 3103 1420 2742 
Q 1159 2381 1159 1747 
Q 1159 1113 1420 752 
Q 1681 391 2138 391 
Q 2594 391 2855 752 
Q 3116 1113 3116 1747 
z
" transform="scale(0.015625)"/>
      </defs>
      <use xlink:href="#DejaVuSans-44"/>
      <use xlink:href="#DejaVuSans-65" x="77.001953"/>
      <use xlink:href="#DejaVuSans-6d" x="138.525391"/>
      <use xlink:href="#DejaVuSans-61" x="235.9375"/>
      <use xlink:href="#DejaVuSans-6e" x="297.216797"/>
      <use xlink:href="#DejaVuSans-64" x="360.595703"/>
      <use xlink:href="#DejaVuSans-20" x="424.072266"/>
      <use xlink:href="#DejaVuSans-70" x="455.859375"/>
      <use xlink:href="#DejaVuSans-6f" x="519.335938"/>
      <use xlink:href="#DejaVuSans-77" x="580.517578"/>
      <use xlink:href="#DejaVuSans-65" x="662.304688"/>
      <use xlink:href="#DejaVuSans-72" x="723.828125"/>
     </g>
    </g>
    <g id="line2d_39">
     <path d="M 74.81 65.744562 
L 84.81 65.744562 
L 94.81 65.744562 
" style="fill: none; stroke: #ffa500; stroke-width: 1.5; stroke-linecap: square"/>
    </g>
    <g id="text_22">
     <!-- PVS power -->
     <g transform="translate(102.81 69.244562) scale(0.1 -0.1)">
      <defs>
       <path id="DejaVuSans-56" d="M 1831 0 
L 50 4666 
L 709 4666 
L 2188 738 
L 3669 4666 
L 4325 4666 
L 2547 0 
L 1831 0 
z
" transform="scale(0.015625)"/>
       <path id="DejaVuSans-53" d="M 3425 4513 
L 3425 3897 
Q 3066 4069 2747 4153 
Q 2428 4238 2131 4238 
Q 1616 4238 1336 4038 
Q 1056 3838 1056 3469 
Q 1056 3159 1242 3001 
Q 1428 2844 1947 2747 
L 2328 2669 
Q 3034 2534 3370 2195 
Q 3706 1856 3706 1288 
Q 3706 609 3251 259 
Q 2797 -91 1919 -91 
Q 1588 -91 1214 -16 
Q 841 59 441 206 
L 441 856 
Q 825 641 1194 531 
Q 1563 422 1919 422 
Q 2459 422 2753 634 
Q 3047 847 3047 1241 
Q 3047 1584 2836 1778 
Q 2625 1972 2144 2069 
L 1759 2144 
Q 1053 2284 737 2584 
Q 422 2884 422 3419 
Q 422 4038 858 4394 
Q 1294 4750 2059 4750 
Q 2388 4750 2728 4690 
Q 3069 4631 3425 4513 
z
" transform="scale(0.015625)"/>
      </defs>
      <use xlink:href="#DejaVuSans-50"/>
      <use xlink:href="#DejaVuSans-56" x="60.302734"/>
      <use xlink:href="#DejaVuSans-53" x="128.710938"/>
      <use xlink:href="#DejaVuSans-20" x="192.1875"/>
      <use xlink:href="#DejaVuSans-70" x="223.974609"/>
      <use xlink:href="#DejaVuSans-6f" x="287.451172"/>
      <use xlink:href="#DejaVuSans-77" x="348.632812"/>
      <use xlink:href="#DejaVuSans-65" x="430.419922"/>
      <use xlink:href="#DejaVuSans-72" x="491.943359"/>
     </g>
    </g>
    <g id="line2d_40">
     <path d="M 74.81 80.422687 
L 84.81 80.422687 
L 94.81 80.422687 
" style="fill: none; stroke: #ff0000; stroke-width: 1.5; stroke-linecap: square"/>
    </g>
    <g id="text_23">
     <!-- Grid power -->
     <g transform="translate(102.81 83.922687) scale(0.1 -0.1)">
      <defs>
       <path id="DejaVuSans-47" d="M 3809 666 
L 3809 1919 
L 2778 1919 
L 2778 2438 
L 4434 2438 
L 4434 434 
Q 4069 175 3628 42 
Q 3188 -91 2688 -91 
Q 1594 -91 976 548 
Q 359 1188 359 2328 
Q 359 3472 976 4111 
Q 1594 4750 2688 4750 
Q 3144 4750 3555 4637 
Q 3966 4525 4313 4306 
L 4313 3634 
Q 3963 3931 3569 4081 
Q 3175 4231 2741 4231 
Q 1884 4231 1454 3753 
Q 1025 3275 1025 2328 
Q 1025 1384 1454 906 
Q 1884 428 2741 428 
Q 3075 428 3337 486 
Q 3600 544 3809 666 
z
" transform="scale(0.015625)"/>
      </defs>
      <use xlink:href="#DejaVuSans-47"/>
      <use xlink:href="#DejaVuSans-72" x="77.490234"/>
      <use xlink:href="#DejaVuSans-69" x="118.603516"/>
      <use xlink:href="#DejaVuSans-64" x="146.386719"/>
      <use xlink:href="#DejaVuSans-20" x="209.863281"/>
      <use xlink:href="#DejaVuSans-70" x="241.650391"/>
      <use xlink:href="#DejaVuSans-6f" x="305.126953"/>
      <use xlink:href="#DejaVuSans-77" x="366.308594"/>
      <use xlink:href="#DejaVuSans-65" x="448.095703"/>
      <use xlink:href="#DejaVuSans-72" x="509.619141"/>
     </g>
    </g>
   </g>
  </g>
 </g>
 <defs>
  <clipPath id="p16f0a21690">
   <rect x="65.81" y="37.968" width="384.19" height="265.672"/>
  </clipPath>
 </defs>
</svg>
