<?xml version="1.0" encoding="utf-8" standalone="no"?>
<!DOCTYPE svg PUBLIC "-//W3C//DTD SVG 1.1//EN"
  "http://www.w3.org/Graphics/SVG/1.1/DTD/svg11.dtd">
<svg xmlns:xlink="http://www.w3.org/1999/xlink" width="460.8pt" height="345.6pt" viewBox="0 0 460.8 345.6" xmlns="http://www.w3.org/2000/svg" version="1.1">
 <metadata>
  <rdf:RDF xmlns:dc="http://purl.org/dc/elements/1.1/" xmlns:cc="http://creativecommons.org/ns#" xmlns:rdf="http://www.w3.org/1999/02/22-rdf-syntax-ns#">
   <cc:Work>
    <dc:type rdf:resource="http://purl.org/dc/dcmitype/StillImage"/>
    <dc:date>2024-11-17T07:42:16.361230</dc:date>
    <dc:format>image/svg+xml</dc:format>
    <dc:creator>
     <cc:Agent>
      <dc:title>Matplotlib v3.9.2, https://matplotlib.org/</dc:title>
     </cc:Agent>
    </dc:creator>
   </cc:Work>
  </rdf:RDF>
 </metadata>
 <defs>
  <style type="text/css">*{stroke-linejoin: round; stroke-linecap: butt}</style>
 </defs>
 <g id="figure_1">
  <g id="patch_1">
   <path d="M 0 345.6 
L 460.8 345.6 
L 460.8 0 
L 0 0 
z
" style="fill: #ffffff"/>
  </g>
  <g id="axes_1">
   <g id="patch_2">
    <path d="M 57.6 307.584 
L 414.72 307.584 
L 414.72 41.472 
L 57.6 41.472 
z
" style="fill: #ffffff"/>
   </g>
   <g id="matplotlib.axis_1">
    <g id="xtick_1">
     <g id="line2d_1">
      <path d="M 73.832727 307.584 
L 73.832727 41.472 
" clip-path="url(#pdce0336fed)" style="fill: none; stroke: #b0b0b0; stroke-width: 0.8; stroke-linecap: square"/>
     </g>
     <g id="line2d_2">
      <defs>
       <path id="mb282cb6d4b" d="M 0 0 
L 0 3.5 
" style="stroke: #000000; stroke-width: 0.8"/>
      </defs>
      <g>
       <use xlink:href="#mb282cb6d4b" x="73.832727" y="307.584" style="stroke: #000000; stroke-width: 0.8"/>
      </g>
     </g>
     <g id="text_1">
      <!-- 0 -->
      <g transform="translate(70.651477 322.182437) scale(0.1 -0.1)">
       <defs>
        <path id="DejaVuSans-30" d="M 2034 4250 
Q 1547 4250 1301 3770 
Q 1056 3291 1056 2328 
Q 1056 1369 1301 889 
Q 1547 409 2034 409 
Q 2525 409 2770 889 
Q 3016 1369 3016 2328 
Q 3016 3291 2770 3770 
Q 2525 4250 2034 4250 
z
M 2034 4750 
Q 2819 4750 3233 4129 
Q 3647 3509 3647 2328 
Q 3647 1150 3233 529 
Q 2819 -91 2034 -91 
Q 1250 -91 836 529 
Q 422 1150 422 2328 
Q 422 3509 836 4129 
Q 1250 4750 2034 4750 
z
" transform="scale(0.015625)"/>
       </defs>
       <use xlink:href="#DejaVuSans-30"/>
      </g>
     </g>
    </g>
    <g id="xtick_2">
     <g id="line2d_3">
      <path d="M 141.877359 307.584 
L 141.877359 41.472 
" clip-path="url(#pdce0336fed)" style="fill: none; stroke: #b0b0b0; stroke-width: 0.8; stroke-linecap: square"/>
     </g>
     <g id="line2d_4">
      <g>
       <use xlink:href="#mb282cb6d4b" x="141.877359" y="307.584" style="stroke: #000000; stroke-width: 0.8"/>
      </g>
     </g>
     <g id="text_2">
      <!-- 5 -->
      <g transform="translate(138.696109 322.182437) scale(0.1 -0.1)">
       <defs>
        <path id="DejaVuSans-35" d="M 691 4666 
L 3169 4666 
L 3169 4134 
L 1269 4134 
L 1269 2991 
Q 1406 3038 1543 3061 
Q 1681 3084 1819 3084 
Q 2600 3084 3056 2656 
Q 3513 2228 3513 1497 
Q 3513 744 3044 326 
Q 2575 -91 1722 -91 
Q 1428 -91 1123 -41 
Q 819 9 494 109 
L 494 744 
Q 775 591 1075 516 
Q 1375 441 1709 441 
Q 2250 441 2565 725 
Q 2881 1009 2881 1497 
Q 2881 1984 2565 2268 
Q 2250 2553 1709 2553 
Q 1456 2553 1204 2497 
Q 953 2441 691 2322 
L 691 4666 
z
" transform="scale(0.015625)"/>
       </defs>
       <use xlink:href="#DejaVuSans-35"/>
      </g>
     </g>
    </g>
    <g id="xtick_3">
     <g id="line2d_5">
      <path d="M 209.92199 307.584 
L 209.92199 41.472 
" clip-path="url(#pdce0336fed)" style="fill: none; stroke: #b0b0b0; stroke-width: 0.8; stroke-linecap: square"/>
     </g>
     <g id="line2d_6">
      <g>
       <use xlink:href="#mb282cb6d4b" x="209.92199" y="307.584" style="stroke: #000000; stroke-width: 0.8"/>
      </g>
     </g>
     <g id="text_3">
      <!-- 10 -->
      <g transform="translate(203.55949 322.182437) scale(0.1 -0.1)">
       <defs>
        <path id="DejaVuSans-31" d="M 794 531 
L 1825 531 
L 1825 4091 
L 703 3866 
L 703 4441 
L 1819 4666 
L 2450 4666 
L 2450 531 
L 3481 531 
L 3481 0 
L 794 0 
L 794 531 
z
" transform="scale(0.015625)"/>
       </defs>
       <use xlink:href="#DejaVuSans-31"/>
       <use xlink:href="#DejaVuSans-30" x="63.623047"/>
      </g>
     </g>
    </g>
    <g id="xtick_4">
     <g id="line2d_7">
      <path d="M 277.966622 307.584 
L 277.966622 41.472 
" clip-path="url(#pdce0336fed)" style="fill: none; stroke: #b0b0b0; stroke-width: 0.8; stroke-linecap: square"/>
     </g>
     <g id="line2d_8">
      <g>
       <use xlink:href="#mb282cb6d4b" x="277.966622" y="307.584" style="stroke: #000000; stroke-width: 0.8"/>
      </g>
     </g>
     <g id="text_4">
      <!-- 15 -->
      <g transform="translate(271.604122 322.182437) scale(0.1 -0.1)">
       <use xlink:href="#DejaVuSans-31"/>
       <use xlink:href="#DejaVuSans-35" x="63.623047"/>
      </g>
     </g>
    </g>
    <g id="xtick_5">
     <g id="line2d_9">
      <path d="M 346.011253 307.584 
L 346.011253 41.472 
" clip-path="url(#pdce0336fed)" style="fill: none; stroke: #b0b0b0; stroke-width: 0.8; stroke-linecap: square"/>
     </g>
     <g id="line2d_10">
      <g>
       <use xlink:href="#mb282cb6d4b" x="346.011253" y="307.584" style="stroke: #000000; stroke-width: 0.8"/>
      </g>
     </g>
     <g id="text_5">
      <!-- 20 -->
      <g transform="translate(339.648753 322.182437) scale(0.1 -0.1)">
       <defs>
        <path id="DejaVuSans-32" d="M 1228 531 
L 3431 531 
L 3431 0 
L 469 0 
L 469 531 
Q 828 903 1448 1529 
Q 2069 2156 2228 2338 
Q 2531 2678 2651 2914 
Q 2772 3150 2772 3378 
Q 2772 3750 2511 3984 
Q 2250 4219 1831 4219 
Q 1534 4219 1204 4116 
Q 875 4013 500 3803 
L 500 4441 
Q 881 4594 1212 4672 
Q 1544 4750 1819 4750 
Q 2544 4750 2975 4387 
Q 3406 4025 3406 3419 
Q 3406 3131 3298 2873 
Q 3191 2616 2906 2266 
Q 2828 2175 2409 1742 
Q 1991 1309 1228 531 
z
" transform="scale(0.015625)"/>
       </defs>
       <use xlink:href="#DejaVuSans-32"/>
       <use xlink:href="#DejaVuSans-30" x="63.623047"/>
      </g>
     </g>
    </g>
    <g id="xtick_6">
     <g id="line2d_11">
      <path d="M 414.055884 307.584 
L 414.055884 41.472 
" clip-path="url(#pdce0336fed)" style="fill: none; stroke: #b0b0b0; stroke-width: 0.8; stroke-linecap: square"/>
     </g>
     <g id="line2d_12">
      <g>
       <use xlink:href="#mb282cb6d4b" x="414.055884" y="307.584" style="stroke: #000000; stroke-width: 0.8"/>
      </g>
     </g>
     <g id="text_6">
      <!-- 25 -->
      <g transform="translate(407.693384 322.182437) scale(0.1 -0.1)">
       <use xlink:href="#DejaVuSans-32"/>
       <use xlink:href="#DejaVuSans-35" x="63.623047"/>
      </g>
     </g>
    </g>
    <g id="text_7">
     <!-- Time [day] -->
     <g transform="translate(209.238125 335.860562) scale(0.1 -0.1)">
      <defs>
       <path id="DejaVuSans-54" d="M -19 4666 
L 3928 4666 
L 3928 4134 
L 2272 4134 
L 2272 0 
L 1638 0 
L 1638 4134 
L -19 4134 
L -19 4666 
z
" transform="scale(0.015625)"/>
       <path id="DejaVuSans-69" d="M 603 3500 
L 1178 3500 
L 1178 0 
L 603 0 
L 603 3500 
z
M 603 4863 
L 1178 4863 
L 1178 4134 
L 603 4134 
L 603 4863 
z
" transform="scale(0.015625)"/>
       <path id="DejaVuSans-6d" d="M 3328 2828 
Q 3544 3216 3844 3400 
Q 4144 3584 4550 3584 
Q 5097 3584 5394 3201 
Q 5691 2819 5691 2113 
L 5691 0 
L 5113 0 
L 5113 2094 
Q 5113 2597 4934 2840 
Q 4756 3084 4391 3084 
Q 3944 3084 3684 2787 
Q 3425 2491 3425 1978 
L 3425 0 
L 2847 0 
L 2847 2094 
Q 2847 2600 2669 2842 
Q 2491 3084 2119 3084 
Q 1678 3084 1418 2786 
Q 1159 2488 1159 1978 
L 1159 0 
L 581 0 
L 581 3500 
L 1159 3500 
L 1159 2956 
Q 1356 3278 1631 3431 
Q 1906 3584 2284 3584 
Q 2666 3584 2933 3390 
Q 3200 3197 3328 2828 
z
" transform="scale(0.015625)"/>
       <path id="DejaVuSans-65" d="M 3597 1894 
L 3597 1613 
L 953 1613 
Q 991 1019 1311 708 
Q 1631 397 2203 397 
Q 2534 397 2845 478 
Q 3156 559 3463 722 
L 3463 178 
Q 3153 47 2828 -22 
Q 2503 -91 2169 -91 
Q 1331 -91 842 396 
Q 353 884 353 1716 
Q 353 2575 817 3079 
Q 1281 3584 2069 3584 
Q 2775 3584 3186 3129 
Q 3597 2675 3597 1894 
z
M 3022 2063 
Q 3016 2534 2758 2815 
Q 2500 3097 2075 3097 
Q 1594 3097 1305 2825 
Q 1016 2553 972 2059 
L 3022 2063 
z
" transform="scale(0.015625)"/>
       <path id="DejaVuSans-20" transform="scale(0.015625)"/>
       <path id="DejaVuSans-5b" d="M 550 4863 
L 1875 4863 
L 1875 4416 
L 1125 4416 
L 1125 -397 
L 1875 -397 
L 1875 -844 
L 550 -844 
L 550 4863 
z
" transform="scale(0.015625)"/>
       <path id="DejaVuSans-64" d="M 2906 2969 
L 2906 4863 
L 3481 4863 
L 3481 0 
L 2906 0 
L 2906 525 
Q 2725 213 2448 61 
Q 2172 -91 1784 -91 
Q 1150 -91 751 415 
Q 353 922 353 1747 
Q 353 2572 751 3078 
Q 1150 3584 1784 3584 
Q 2172 3584 2448 3432 
Q 2725 3281 2906 2969 
z
M 947 1747 
Q 947 1113 1208 752 
Q 1469 391 1925 391 
Q 2381 391 2643 752 
Q 2906 1113 2906 1747 
Q 2906 2381 2643 2742 
Q 2381 3103 1925 3103 
Q 1469 3103 1208 2742 
Q 947 2381 947 1747 
z
" transform="scale(0.015625)"/>
       <path id="DejaVuSans-61" d="M 2194 1759 
Q 1497 1759 1228 1600 
Q 959 1441 959 1056 
Q 959 750 1161 570 
Q 1363 391 1709 391 
Q 2188 391 2477 730 
Q 2766 1069 2766 1631 
L 2766 1759 
L 2194 1759 
z
M 3341 1997 
L 3341 0 
L 2766 0 
L 2766 531 
Q 2569 213 2275 61 
Q 1981 -91 1556 -91 
Q 1019 -91 701 211 
Q 384 513 384 1019 
Q 384 1609 779 1909 
Q 1175 2209 1959 2209 
L 2766 2209 
L 2766 2266 
Q 2766 2663 2505 2880 
Q 2244 3097 1772 3097 
Q 1472 3097 1187 3025 
Q 903 2953 641 2809 
L 641 3341 
Q 956 3463 1253 3523 
Q 1550 3584 1831 3584 
Q 2591 3584 2966 3190 
Q 3341 2797 3341 1997 
z
" transform="scale(0.015625)"/>
       <path id="DejaVuSans-79" d="M 2059 -325 
Q 1816 -950 1584 -1140 
Q 1353 -1331 966 -1331 
L 506 -1331 
L 506 -850 
L 844 -850 
Q 1081 -850 1212 -737 
Q 1344 -625 1503 -206 
L 1606 56 
L 191 3500 
L 800 3500 
L 1894 763 
L 2988 3500 
L 3597 3500 
L 2059 -325 
z
" transform="scale(0.015625)"/>
       <path id="DejaVuSans-5d" d="M 1947 4863 
L 1947 -844 
L 622 -844 
L 622 -397 
L 1369 -397 
L 1369 4416 
L 622 4416 
L 622 4863 
L 1947 4863 
z
" transform="scale(0.015625)"/>
      </defs>
      <use xlink:href="#DejaVuSans-54"/>
      <use xlink:href="#DejaVuSans-69" x="57.958984"/>
      <use xlink:href="#DejaVuSans-6d" x="85.742188"/>
      <use xlink:href="#DejaVuSans-65" x="183.154297"/>
      <use xlink:href="#DejaVuSans-20" x="244.677734"/>
      <use xlink:href="#DejaVuSans-5b" x="276.464844"/>
      <use xlink:href="#DejaVuSans-64" x="315.478516"/>
      <use xlink:href="#DejaVuSans-61" x="378.955078"/>
      <use xlink:href="#DejaVuSans-79" x="440.234375"/>
      <use xlink:href="#DejaVuSans-5d" x="499.414062"/>
     </g>
    </g>
   </g>
   <g id="matplotlib.axis_2">
    <g id="ytick_1">
     <g id="line2d_13">
      <path d="M 57.6 295.488 
L 414.72 295.488 
" clip-path="url(#pdce0336fed)" style="fill: none; stroke: #b0b0b0; stroke-width: 0.8; stroke-linecap: square"/>
     </g>
     <g id="line2d_14">
      <defs>
       <path id="mf44c06ed83" d="M 0 0 
L -3.5 0 
" style="stroke: #000000; stroke-width: 0.8"/>
      </defs>
      <g>
       <use xlink:href="#mf44c06ed83" x="57.6" y="295.488" style="stroke: #000000; stroke-width: 0.8"/>
      </g>
     </g>
     <g id="text_8">
      <!-- −1000 -->
      <g transform="translate(16.770313 299.287219) scale(0.1 -0.1)">
       <defs>
        <path id="DejaVuSans-2212" d="M 678 2272 
L 4684 2272 
L 4684 1741 
L 678 1741 
L 678 2272 
z
" transform="scale(0.015625)"/>
       </defs>
       <use xlink:href="#DejaVuSans-2212"/>
       <use xlink:href="#DejaVuSans-31" x="83.789062"/>
       <use xlink:href="#DejaVuSans-30" x="147.412109"/>
       <use xlink:href="#DejaVuSans-30" x="211.035156"/>
       <use xlink:href="#DejaVuSans-30" x="274.658203"/>
      </g>
     </g>
    </g>
    <g id="ytick_2">
     <g id="line2d_15">
      <path d="M 57.6 244.697563 
L 414.72 244.697563 
" clip-path="url(#pdce0336fed)" style="fill: none; stroke: #b0b0b0; stroke-width: 0.8; stroke-linecap: square"/>
     </g>
     <g id="line2d_16">
      <g>
       <use xlink:href="#mf44c06ed83" x="57.6" y="244.697563" style="stroke: #000000; stroke-width: 0.8"/>
      </g>
     </g>
     <g id="text_9">
      <!-- 0 -->
      <g transform="translate(44.2375 248.496782) scale(0.1 -0.1)">
       <use xlink:href="#DejaVuSans-30"/>
      </g>
     </g>
    </g>
    <g id="ytick_3">
     <g id="line2d_17">
      <path d="M 57.6 193.907126 
L 414.72 193.907126 
" clip-path="url(#pdce0336fed)" style="fill: none; stroke: #b0b0b0; stroke-width: 0.8; stroke-linecap: square"/>
     </g>
     <g id="line2d_18">
      <g>
       <use xlink:href="#mf44c06ed83" x="57.6" y="193.907126" style="stroke: #000000; stroke-width: 0.8"/>
      </g>
     </g>
     <g id="text_10">
      <!-- 1000 -->
      <g transform="translate(25.15 197.706344) scale(0.1 -0.1)">
       <use xlink:href="#DejaVuSans-31"/>
       <use xlink:href="#DejaVuSans-30" x="63.623047"/>
       <use xlink:href="#DejaVuSans-30" x="127.246094"/>
       <use xlink:href="#DejaVuSans-30" x="190.869141"/>
      </g>
     </g>
    </g>
    <g id="ytick_4">
     <g id="line2d_19">
      <path d="M 57.6 143.116688 
L 414.72 143.116688 
" clip-path="url(#pdce0336fed)" style="fill: none; stroke: #b0b0b0; stroke-width: 0.8; stroke-linecap: square"/>
     </g>
     <g id="line2d_20">
      <g>
       <use xlink:href="#mf44c06ed83" x="57.6" y="143.116688" style="stroke: #000000; stroke-width: 0.8"/>
      </g>
     </g>
     <g id="text_11">
      <!-- 2000 -->
      <g transform="translate(25.15 146.915907) scale(0.1 -0.1)">
       <use xlink:href="#DejaVuSans-32"/>
       <use xlink:href="#DejaVuSans-30" x="63.623047"/>
       <use xlink:href="#DejaVuSans-30" x="127.246094"/>
       <use xlink:href="#DejaVuSans-30" x="190.869141"/>
      </g>
     </g>
    </g>
    <g id="ytick_5">
     <g id="line2d_21">
      <path d="M 57.6 92.326251 
L 414.72 92.326251 
" clip-path="url(#pdce0336fed)" style="fill: none; stroke: #b0b0b0; stroke-width: 0.8; stroke-linecap: square"/>
     </g>
     <g id="line2d_22">
      <g>
       <use xlink:href="#mf44c06ed83" x="57.6" y="92.326251" style="stroke: #000000; stroke-width: 0.8"/>
      </g>
     </g>
     <g id="text_12">
      <!-- 3000 -->
      <g transform="translate(25.15 96.12547) scale(0.1 -0.1)">
       <defs>
        <path id="DejaVuSans-33" d="M 2597 2516 
Q 3050 2419 3304 2112 
Q 3559 1806 3559 1356 
Q 3559 666 3084 287 
Q 2609 -91 1734 -91 
Q 1441 -91 1130 -33 
Q 819 25 488 141 
L 488 750 
Q 750 597 1062 519 
Q 1375 441 1716 441 
Q 2309 441 2620 675 
Q 2931 909 2931 1356 
Q 2931 1769 2642 2001 
Q 2353 2234 1838 2234 
L 1294 2234 
L 1294 2753 
L 1863 2753 
Q 2328 2753 2575 2939 
Q 2822 3125 2822 3475 
Q 2822 3834 2567 4026 
Q 2313 4219 1838 4219 
Q 1578 4219 1281 4162 
Q 984 4106 628 3988 
L 628 4550 
Q 988 4650 1302 4700 
Q 1616 4750 1894 4750 
Q 2613 4750 3031 4423 
Q 3450 4097 3450 3541 
Q 3450 3153 3228 2886 
Q 3006 2619 2597 2516 
z
" transform="scale(0.015625)"/>
       </defs>
       <use xlink:href="#DejaVuSans-33"/>
       <use xlink:href="#DejaVuSans-30" x="63.623047"/>
       <use xlink:href="#DejaVuSans-30" x="127.246094"/>
       <use xlink:href="#DejaVuSans-30" x="190.869141"/>
      </g>
     </g>
    </g>
    <g id="ytick_6">
     <g id="line2d_23">
      <path d="M 57.6 41.535814 
L 414.72 41.535814 
" clip-path="url(#pdce0336fed)" style="fill: none; stroke: #b0b0b0; stroke-width: 0.8; stroke-linecap: square"/>
     </g>
     <g id="line2d_24">
      <g>
       <use xlink:href="#mf44c06ed83" x="57.6" y="41.535814" style="stroke: #000000; stroke-width: 0.8"/>
      </g>
     </g>
     <g id="text_13">
      <!-- 4000 -->
      <g transform="translate(25.15 45.335033) scale(0.1 -0.1)">
       <defs>
        <path id="DejaVuSans-34" d="M 2419 4116 
L 825 1625 
L 2419 1625 
L 2419 4116 
z
M 2253 4666 
L 3047 4666 
L 3047 1625 
L 3713 1625 
L 3713 1100 
L 3047 1100 
L 3047 0 
L 2419 0 
L 2419 1100 
L 313 1100 
L 313 1709 
L 2253 4666 
z
" transform="scale(0.015625)"/>
       </defs>
       <use xlink:href="#DejaVuSans-34"/>
       <use xlink:href="#DejaVuSans-30" x="63.623047"/>
       <use xlink:href="#DejaVuSans-30" x="127.246094"/>
       <use xlink:href="#DejaVuSans-30" x="190.869141"/>
      </g>
     </g>
    </g>
    <g id="text_14">
     <!-- Power [W] -->
     <g transform="translate(10.690625 200.076437) rotate(-90) scale(0.1 -0.1)">
      <defs>
       <path id="DejaVuSans-50" d="M 1259 4147 
L 1259 2394 
L 2053 2394 
Q 2494 2394 2734 2622 
Q 2975 2850 2975 3272 
Q 2975 3691 2734 3919 
Q 2494 4147 2053 4147 
L 1259 4147 
z
M 628 4666 
L 2053 4666 
Q 2838 4666 3239 4311 
Q 3641 3956 3641 3272 
Q 3641 2581 3239 2228 
Q 2838 1875 2053 1875 
L 1259 1875 
L 1259 0 
L 628 0 
L 628 4666 
z
" transform="scale(0.015625)"/>
       <path id="DejaVuSans-6f" d="M 1959 3097 
Q 1497 3097 1228 2736 
Q 959 2375 959 1747 
Q 959 1119 1226 758 
Q 1494 397 1959 397 
Q 2419 397 2687 759 
Q 2956 1122 2956 1747 
Q 2956 2369 2687 2733 
Q 2419 3097 1959 3097 
z
M 1959 3584 
Q 2709 3584 3137 3096 
Q 3566 2609 3566 1747 
Q 3566 888 3137 398 
Q 2709 -91 1959 -91 
Q 1206 -91 779 398 
Q 353 888 353 1747 
Q 353 2609 779 3096 
Q 1206 3584 1959 3584 
z
" transform="scale(0.015625)"/>
       <path id="DejaVuSans-77" d="M 269 3500 
L 844 3500 
L 1563 769 
L 2278 3500 
L 2956 3500 
L 3675 769 
L 4391 3500 
L 4966 3500 
L 4050 0 
L 3372 0 
L 2619 2869 
L 1863 0 
L 1184 0 
L 269 3500 
z
" transform="scale(0.015625)"/>
       <path id="DejaVuSans-72" d="M 2631 2963 
Q 2534 3019 2420 3045 
Q 2306 3072 2169 3072 
Q 1681 3072 1420 2755 
Q 1159 2438 1159 1844 
L 1159 0 
L 581 0 
L 581 3500 
L 1159 3500 
L 1159 2956 
Q 1341 3275 1631 3429 
Q 1922 3584 2338 3584 
Q 2397 3584 2469 3576 
Q 2541 3569 2628 3553 
L 2631 2963 
z
" transform="scale(0.015625)"/>
       <path id="DejaVuSans-57" d="M 213 4666 
L 850 4666 
L 1831 722 
L 2809 4666 
L 3519 4666 
L 4500 722 
L 5478 4666 
L 6119 4666 
L 4947 0 
L 4153 0 
L 3169 4050 
L 2175 0 
L 1381 0 
L 213 4666 
z
" transform="scale(0.015625)"/>
      </defs>
      <use xlink:href="#DejaVuSans-50"/>
      <use xlink:href="#DejaVuSans-6f" x="56.677734"/>
      <use xlink:href="#DejaVuSans-77" x="117.859375"/>
      <use xlink:href="#DejaVuSans-65" x="199.646484"/>
      <use xlink:href="#DejaVuSans-72" x="261.169922"/>
      <use xlink:href="#DejaVuSans-20" x="302.283203"/>
      <use xlink:href="#DejaVuSans-5b" x="334.070312"/>
      <use xlink:href="#DejaVuSans-57" x="373.083984"/>
      <use xlink:href="#DejaVuSans-5d" x="471.960938"/>
     </g>
    </g>
   </g>
   <g id="line2d_25">
    <path d="M 73.832727 224.397309 
L 74.159342 224.397309 
L 74.485956 223.88737 
L 74.81257 222.867494 
L 75.139184 222.357556 
L 75.465798 222.867494 
L 75.792413 222.867494 
L 76.445641 224.907247 
L 78.078712 224.907247 
L 78.405327 225.417185 
L 79.711783 225.417185 
L 80.038398 224.397309 
L 81.01824 224.397309 
L 81.344855 223.377432 
L 81.671469 222.867494 
L 81.998083 222.867494 
L 82.324697 223.88737 
L 82.651312 223.88737 
L 82.977926 224.397309 
L 83.631154 226.437061 
L 84.610997 226.437061 
L 85.264225 224.397309 
L 86.244068 224.397309 
L 86.897297 223.377432 
L 87.223911 222.357556 
L 88.203753 222.357556 
L 88.530368 223.377432 
L 88.856982 223.88737 
L 89.183596 225.417185 
L 89.51021 225.417185 
L 89.836825 227.456938 
L 90.163439 227.456938 
L 90.490053 228.476814 
L 91.469896 228.476814 
L 91.79651 227.966876 
L 92.449738 227.966876 
L 92.776353 227.456938 
L 93.102967 226.437061 
L 93.429581 225.927123 
L 93.756195 226.437061 
L 94.08281 227.456938 
L 94.409424 227.456938 
L 94.736038 228.476814 
L 95.062652 228.476814 
L 95.389267 229.496691 
L 95.715881 229.496691 
L 96.042495 228.476814 
L 96.369109 228.476814 
L 96.695723 227.456938 
L 98.00218 227.456938 
L 98.655409 226.437061 
L 99.308637 226.437061 
L 99.635252 225.927123 
L 99.961866 225.927123 
L 100.28848 225.417185 
L 102.248165 225.417185 
L 102.57478 224.907247 
L 102.901394 223.88737 
L 103.228008 223.377432 
L 103.554622 222.357556 
L 103.881237 222.357556 
L 104.207851 223.377432 
L 104.534465 225.417185 
L 104.861079 225.417185 
L 105.514308 227.456938 
L 105.840922 227.456938 
L 106.167536 227.966876 
L 106.49415 231.026506 
L 106.820765 231.026506 
L 107.147379 236.635826 
L 107.473993 237.655703 
L 107.800607 237.696505 
L 108.127222 237.505479 
L 108.453836 237.123429 
L 108.78045 235.595226 
L 109.107064 235.595226 
L 109.433678 235.404201 
L 109.760293 234.596073 
L 110.086907 234.596073 
L 110.413521 233.576197 
L 110.740135 233.576197 
L 111.06675 233.066258 
L 111.393364 233.066258 
L 112.046592 234.086135 
L 112.373207 235.106011 
L 112.699821 235.404201 
L 114.98612 235.404201 
L 115.312735 235.106011 
L 115.639349 235.106011 
L 115.965963 233.576197 
L 116.292577 233.576197 
L 116.619192 234.596073 
L 117.599034 236.125888 
L 118.252263 236.125888 
L 118.578877 236.635826 
L 119.232105 236.635826 
L 119.55872 237.123429 
L 123.804705 237.123429 
L 124.131319 236.635826 
L 124.784547 234.596073 
L 125.437776 234.596073 
L 125.76439 236.125888 
L 126.091004 236.125888 
L 126.744233 237.145764 
L 127.070847 236.741378 
L 127.397461 237.314454 
L 127.724075 236.635826 
L 129.357147 236.635826 
L 129.683761 237.123429 
L 133.929746 237.123429 
L 134.25636 236.125888 
L 134.909588 236.125888 
L 135.236203 234.596073 
L 135.562817 234.596073 
L 135.889431 235.106011 
L 136.216045 236.125888 
L 136.869274 237.145764 
L 137.522502 237.145764 
L 137.849117 236.635826 
L 138.175731 235.61595 
L 139.482188 235.61595 
L 139.808802 236.635826 
L 140.135416 237.123429 
L 145.361244 237.123429 
L 145.687858 236.635826 
L 146.014472 235.61595 
L 146.341087 235.61595 
L 146.667701 234.596073 
L 146.994315 235.61595 
L 147.320929 235.61595 
L 147.647543 236.635826 
L 149.280615 236.635826 
L 149.607229 235.61595 
L 150.260457 235.61595 
L 150.587072 236.635826 
L 150.913686 237.123429 
L 155.486285 237.123429 
L 155.812899 237.314454 
L 156.139513 237.314454 
L 156.792742 238.269581 
L 157.119356 238.269581 
L 157.44597 224.907247 
L 157.772585 218.787988 
L 158.425813 157.5954 
L 158.752427 157.5954 
L 159.079042 142.297253 
L 159.405656 142.297253 
L 159.73227 144.846944 
L 160.058884 144.846944 
L 160.385498 145.356882 
L 160.712113 145.356882 
L 161.038727 144.337006 
L 161.365341 143.827067 
L 161.691955 143.827067 
L 162.01857 144.337006 
L 162.345184 145.356882 
L 162.671798 145.356882 
L 162.998412 146.886697 
L 163.651641 146.886697 
L 163.978255 145.86682 
L 164.304869 145.86682 
L 164.631483 144.846944 
L 164.958098 145.86682 
L 165.611326 145.86682 
L 165.93794 146.886697 
L 166.917783 146.886697 
L 167.244397 146.376759 
L 167.571012 146.376759 
L 167.897626 146.886697 
L 168.22424 146.886697 
L 168.550854 145.86682 
L 168.877468 145.356882 
L 169.530697 145.356882 
L 169.857311 146.376759 
L 170.183925 146.376759 
L 170.51054 147.396635 
L 170.837154 147.906573 
L 171.163768 147.906573 
L 171.490382 148.92645 
L 173.123453 148.92645 
L 173.776682 147.906573 
L 174.103296 149.436388 
L 174.756525 139.237623 
L 175.083139 139.237623 
L 175.736367 114.760588 
L 176.71621 56.627629 
L 177.042824 56.627629 
L 177.369438 53.568 
L 177.696053 53.568 
L 178.022667 61.727012 
L 178.349281 97.422688 
L 178.675895 118.840094 
L 179.00251 118.840094 
L 179.329124 150.966203 
L 180.635581 150.966203 
L 180.962195 151.476141 
L 181.288809 149.436388 
L 181.615423 153.515894 
L 181.942038 153.515894 
L 182.268652 154.53577 
L 182.595266 155.045709 
L 184.881566 155.045709 
L 185.20818 156.065585 
L 185.861408 156.065585 
L 186.188023 78.554973 
L 186.514637 78.554973 
L 186.841251 77.025159 
L 187.167865 63.766765 
L 187.49448 61.727012 
L 187.821094 61.727012 
L 188.147708 62.746888 
L 188.474322 62.746888 
L 188.800937 144.337006 
L 189.127551 160.655029 
L 189.454165 160.655029 
L 190.107393 158.615276 
L 190.434008 160.145091 
L 190.760622 160.145091 
L 191.087236 160.655029 
L 191.41385 159.635153 
L 191.740465 159.635153 
L 192.393693 161.674906 
L 192.720307 170.853794 
L 193.046922 197.370582 
L 193.373536 190.231447 
L 193.70015 190.231447 
L 194.026764 160.655029 
L 195.006607 160.655029 
L 195.333221 164.734535 
L 195.659835 165.754412 
L 195.98645 163.714659 
L 196.639678 163.714659 
L 196.966292 164.734535 
L 197.292907 170.853794 
L 197.619521 192.2712 
L 198.272749 176.973053 
L 198.599363 162.694782 
L 198.925978 161.674906 
L 199.252592 161.674906 
L 199.579206 172.893547 
L 199.90582 192.2712 
L 200.232435 189.21157 
L 200.559049 170.853794 
L 200.885663 169.833917 
L 201.538892 169.833917 
L 201.865506 182.072435 
L 202.19212 205.529594 
L 202.518734 201.450088 
L 202.845348 187.171817 
L 203.171963 187.171817 
L 203.498577 186.151941 
L 203.825191 195.330829 
L 204.151805 195.330829 
L 204.805034 231.026506 
L 205.131648 236.125888 
L 205.458262 223.88737 
L 205.784877 199.410335 
L 206.111491 199.410335 
L 206.438105 174.9333 
L 206.764719 173.913423 
L 207.091333 173.913423 
L 207.417948 181.052559 
L 207.744562 207.569347 
L 208.071176 207.569347 
L 208.39779 231.026506 
L 208.724405 218.787988 
L 209.051019 218.787988 
L 209.704247 176.973053 
L 210.030862 176.973053 
L 210.357476 173.913423 
L 211.010704 173.913423 
L 211.663933 175.953176 
L 211.990547 187.171817 
L 212.643775 231.026506 
L 212.97039 231.026506 
L 213.297004 234.086135 
L 213.623618 212.668729 
L 213.950232 201.960026 
L 214.276847 180.032682 
L 214.603461 177.992929 
L 215.909918 177.992929 
L 216.236532 179.012806 
L 216.563146 190.231447 
L 217.216375 235.106011 
L 217.542989 227.954214 
L 217.869603 227.954214 
L 218.196217 226.043961 
L 218.849446 163.005612 
L 219.17606 150.779993 
L 219.502674 150.397942 
L 219.829288 150.397942 
L 220.155903 184.018395 
L 220.482517 184.018395 
L 220.809131 217.256798 
L 221.135745 226.426012 
L 221.46236 224.133708 
L 221.788974 202.356824 
L 222.115588 169.500472 
L 222.442202 169.500472 
L 222.768817 150.015892 
L 223.095431 150.015892 
L 223.422045 152.881271 
L 224.401888 243.265023 
L 230.934172 243.265023 
L 231.587401 242.245147 
L 231.914015 236.125888 
L 232.240629 236.125888 
L 232.567243 233.066258 
L 232.893858 226.808063 
L 233.547086 166.444068 
L 233.8737 154.218448 
L 234.853543 154.218448 
L 235.833386 158.421005 
L 236.16 158.421005 
L 236.486614 158.038954 
L 236.813228 158.038954 
L 237.139843 158.803056 
L 237.466457 162.623562 
L 238.119685 167.97227 
L 238.4463 167.208169 
L 238.772914 166.826118 
L 239.099528 166.826118 
L 239.426142 166.062017 
L 240.079371 165.297916 
L 240.405985 165.679966 
L 240.732599 171.028675 
L 241.059213 171.028675 
L 241.385828 172.938928 
L 241.712442 172.938928 
L 242.36567 169.500472 
L 242.692285 167.590219 
L 243.998742 167.590219 
L 244.65197 178.287636 
L 244.978584 180.96199 
L 245.631813 180.96199 
L 245.958427 177.523535 
L 246.285041 170.264574 
L 246.611655 170.264574 
L 246.93827 169.882523 
L 247.918112 169.882523 
L 248.244727 174.849181 
L 248.571341 174.849181 
L 248.897955 190.513255 
L 249.224569 189.367104 
L 249.551183 171.410725 
L 249.877798 163.387663 
L 250.531026 163.387663 
L 250.85764 173.129953 
L 251.184255 211.335013 
L 251.510869 211.335013 
L 251.837483 235.213176 
L 252.164097 211.335013 
L 252.490712 211.335013 
L 252.817326 165.297916 
L 253.14394 156.128701 
L 253.797168 156.128701 
L 254.123783 165.679966 
L 254.450397 188.603002 
L 254.777011 197.199141 
L 255.103625 177.523535 
L 255.43024 177.523535 
L 255.756854 168.354321 
L 256.410082 162.623562 
L 256.736697 161.85946 
L 257.389925 161.85946 
L 257.716539 201.210672 
L 258.043153 219.167051 
L 258.369768 219.167051 
L 258.696382 219.931152 
L 259.022996 217.638848 
L 259.34961 196.244014 
L 259.676225 166.253042 
L 260.002839 166.253042 
L 260.329453 162.623562 
L 260.656067 163.005612 
L 260.982682 171.792776 
L 261.309296 192.423508 
L 261.63591 189.94018 
L 261.962524 165.679966 
L 262.289138 165.679966 
L 262.615753 160.331258 
L 262.942367 160.331258 
L 263.268981 173.703029 
L 263.595595 177.523535 
L 263.92221 232.920872 
L 264.248824 240.561884 
L 264.575438 222.987557 
L 264.902052 222.987557 
L 265.555281 178.669687 
L 265.881895 174.849181 
L 266.208509 174.46713 
L 266.861738 174.46713 
L 267.514966 243.265023 
L 268.821423 243.265023 
L 269.148037 205.413229 
L 269.474652 185.164547 
L 269.801266 185.164547 
L 270.12788 160.713309 
L 270.454494 154.218448 
L 270.781108 154.218448 
L 271.434337 200.064521 
L 271.760951 200.064521 
L 272.087565 208.087583 
L 272.41418 236.741378 
L 272.740794 236.741378 
L 273.394022 220.695253 
L 273.720637 220.695253 
L 274.047251 219.931152 
L 274.373865 222.987557 
L 274.700479 222.987557 
L 275.353708 241.325985 
L 275.680322 243.265023 
L 287.765048 243.265023 
L 288.091663 242.245147 
L 290.051348 242.245147 
L 290.377962 242.755085 
L 290.704577 242.755085 
L 291.031191 242.245147 
L 310.30143 242.245147 
L 310.628045 242.090087 
L 310.954659 241.325985 
L 311.281273 241.325985 
L 311.607887 240.943935 
L 312.58773 240.943935 
L 312.914344 241.13496 
L 313.240958 234.086135 
L 313.894187 210.628976 
L 314.220801 202.469964 
L 314.547415 202.469964 
L 314.87403 200.430211 
L 315.853872 200.430211 
L 316.180487 201.450088 
L 316.833715 231.026506 
L 317.160329 231.026506 
L 317.486943 238.269581 
L 317.813558 237.88753 
L 318.466786 237.88753 
L 318.7934 238.460606 
L 319.120015 238.460606 
L 319.446629 238.651631 
L 319.773243 238.460606 
L 320.099857 238.460606 
L 320.426472 238.078555 
L 320.753086 238.460606 
L 321.0797 238.460606 
L 321.406314 238.842656 
L 321.732928 238.842656 
L 322.059543 239.033682 
L 322.386157 227.966876 
L 323.039385 167.794164 
L 323.366 155.555647 
L 324.019228 155.555647 
L 324.345842 160.655029 
L 325.325685 238.460606 
L 325.652299 238.269581 
L 325.978913 238.269581 
L 326.305528 238.651631 
L 326.632142 222.867494 
L 326.958756 222.867494 
L 327.611985 160.655029 
L 327.938599 151.476141 
L 328.591827 151.476141 
L 328.918442 153.515894 
L 329.898284 234.086135 
L 330.224898 219.807864 
L 330.551513 185.132064 
L 330.878127 185.132064 
L 331.204741 150.456265 
L 331.85797 150.456265 
L 332.184584 156.575523 
L 333.164427 237.123429 
L 334.144269 237.123429 
L 334.797498 236.741378 
L 335.450726 236.741378 
L 336.103955 237.123429 
L 336.430569 237.123429 
L 336.757183 237.314454 
L 337.083797 237.123429 
L 337.410412 237.123429 
L 338.06364 236.741378 
L 338.390254 236.741378 
L 338.716868 236.550353 
L 339.370097 236.932403 
L 340.023325 237.88753 
L 340.34994 237.88753 
L 340.676554 238.269581 
L 341.003168 238.460606 
L 341.329782 238.269581 
L 341.656397 237.88753 
L 341.983011 237.314454 
L 342.962853 237.314454 
L 343.289468 237.505479 
L 344.26931 237.505479 
L 344.595925 237.314454 
L 348.84191 237.314454 
L 349.168524 236.932403 
L 349.821752 236.932403 
L 350.148367 236.741378 
L 351.128209 237.314454 
L 351.781438 237.314454 
L 352.108052 237.505479 
L 352.434666 238.078555 
L 352.76128 238.078555 
L 353.087895 238.269581 
L 353.414509 238.269581 
L 353.741123 206.039532 
L 354.067737 207.059409 
L 354.394352 184.112188 
L 354.720966 184.112188 
L 355.04758 154.53577 
L 355.374194 148.416512 
L 355.700808 148.416512 
L 356.027423 159.635153 
L 356.354037 185.132064 
L 356.680651 175.953176 
L 357.007265 170.853794 
L 357.33388 137.19787 
L 357.987108 137.19787 
L 358.313722 147.396635 
L 358.640337 147.396635 
L 358.966951 210.628976 
L 359.293565 225.417185 
L 360.273408 225.417185 
L 360.600022 225.927123 
L 360.926636 225.417185 
L 361.25325 225.927123 
L 361.906479 225.927123 
L 362.233093 224.397309 
L 362.559707 224.397309 
L 362.886322 223.377432 
L 363.53955 222.357556 
L 364.192778 223.377432 
L 364.519393 223.377432 
L 364.846007 224.397309 
L 365.172621 224.397309 
L 365.499235 223.377432 
L 366.152464 222.357556 
L 366.479078 222.357556 
L 366.805692 221.337679 
L 367.132307 219.297926 
L 367.458921 219.297926 
L 368.112149 144.337006 
L 368.438763 144.337006 
L 368.765378 97.422688 
L 369.091992 97.422688 
L 369.418606 96.402812 
L 369.74522 98.442565 
L 370.398449 96.402812 
L 370.725063 93.343182 
L 371.704906 93.343182 
L 372.03152 99.972379 
L 372.684748 121.899723 
L 373.011363 143.317129 
L 373.337977 143.317129 
L 373.664591 182.490193 
L 373.991205 168.736371 
L 374.31782 131.868488 
L 374.644434 122.126198 
L 374.971048 122.126198 
L 375.297662 139.5095 
L 375.624277 139.5095 
L 376.277505 204.267077 
L 376.604119 222.357556 
L 378.23719 222.357556 
L 378.563805 213.818342 
L 378.890419 201.974774 
L 379.217033 198.918369 
L 379.543647 198.154268 
L 380.850104 198.154268 
L 381.176718 197.390166 
L 381.503333 198.154268 
L 381.829947 198.536318 
L 382.156561 199.300419 
L 382.483175 199.300419 
L 382.80979 198.918369 
L 383.136404 197.772217 
L 383.463018 195.861964 
L 383.789632 195.479913 
L 384.116247 195.479913 
L 384.442861 195.861964 
L 385.422703 195.861964 
L 386.075932 195.097863 
L 386.402546 195.097863 
L 386.72916 195.479913 
L 387.055775 196.626065 
L 387.382389 196.626065 
L 387.709003 197.772217 
L 388.035617 206.17733 
L 388.688846 231.010619 
L 389.668688 231.010619 
L 389.995303 232.156771 
L 390.321917 232.156771 
L 390.975145 232.920872 
L 391.30176 232.920872 
L 391.954988 233.302923 
L 392.281602 233.302923 
L 392.608217 233.684973 
L 393.261445 233.684973 
L 393.588059 233.493948 
L 393.914673 233.684973 
L 394.241288 233.684973 
L 394.567902 232.920872 
L 394.894516 233.576197 
L 395.547745 233.576197 
L 395.874359 234.596073 
L 396.200973 234.596073 
L 396.527587 175.995333 
L 396.854202 175.995333 
L 397.180816 137.026171 
L 397.50743 132.441564 
L 397.834044 132.059514 
L 398.160658 132.441564 
L 398.487273 133.587716 
L 398.487273 133.587716 
" clip-path="url(#pdce0336fed)" style="fill: none; stroke: #1f77b4; stroke-opacity: 0.5; stroke-width: 1.5; stroke-linecap: square"/>
   </g>
   <g id="line2d_26">
    <path d="M 73.832727 244.697563 
L 146.667701 244.697563 
L 146.994315 239.466861 
L 148.300772 238.068591 
L 149.607229 236.380413 
L 151.2403 233.88453 
L 153.199985 230.390553 
L 155.159671 226.436565 
L 157.44597 221.340379 
L 160.058884 214.990012 
L 163.325027 206.422019 
L 167.244397 195.458241 
L 173.123453 178.227735 
L 181.288809 154.344668 
L 185.20818 143.543087 
L 188.474322 135.126451 
L 191.41385 128.127059 
L 194.026764 122.440504 
L 196.313064 117.926459 
L 198.599363 113.880905 
L 200.559049 110.810557 
L 202.518734 108.125883 
L 204.47842 105.84252 
L 206.111491 104.255955 
L 207.744562 102.963809 
L 209.377633 101.971339 
L 211.010704 101.282602 
L 212.317161 100.95225 
L 213.623618 100.819015 
L 214.930075 100.883281 
L 216.236532 101.144924 
L 217.542989 101.603317 
L 218.849446 102.257324 
L 220.482517 103.347381 
L 222.115588 104.736216 
L 223.748659 106.418353 
L 225.38173 108.38714 
L 227.341416 111.117008 
L 229.301101 114.232784 
L 231.587401 118.331727 
L 233.8737 122.899707 
L 236.486614 128.648795 
L 239.426142 135.720081 
L 242.692285 144.219279 
L 246.611655 155.125381 
L 251.510869 169.479881 
L 263.268981 204.250714 
L 267.188352 215.014022 
L 270.454494 223.357599 
L 272.087565 227.108204 
L 274.047251 230.855634 
L 276.33355 234.832751 
L 278.293236 237.737842 
L 279.599693 239.407478 
L 280.90615 240.788812 
L 282.212607 241.828299 
L 284.172292 243.094745 
L 285.478749 243.706036 
L 287.11182 244.210281 
L 288.744891 244.590084 
L 290.377962 244.697563 
L 398.487273 244.697563 
L 398.487273 244.697563 
" clip-path="url(#pdce0336fed)" style="fill: none; stroke: #ff7f0e; stroke-width: 1.5; stroke-linecap: square"/>
   </g>
   <g id="line2d_27">
    <path d="M 73.832727 244.697563 
L 149.933843 244.697563 
L 150.260457 244.882212 
L 150.913686 247.40502 
L 152.546757 250.210487 
L 154.506442 254.020264 
L 155.486285 256.082682 
L 156.466128 259.002711 
L 157.119356 260.870292 
L 157.44597 248.26443 
L 157.772585 244.697563 
L 181.615423 244.792604 
L 181.942038 245.712607 
L 182.595266 249.070393 
L 184.881566 255.326422 
L 185.20818 257.220061 
L 185.861408 258.951187 
L 186.188023 244.697563 
L 188.474322 244.697563 
L 188.800937 254.714678 
L 189.127551 271.832349 
L 189.454165 272.624951 
L 190.107393 272.148758 
L 190.434008 274.449277 
L 190.760622 275.212431 
L 191.087236 276.477849 
L 191.41385 276.205656 
L 191.740465 276.945422 
L 192.393693 280.440478 
L 192.720307 290.334667 
L 193.046922 295.488 
L 193.70015 295.488 
L 194.026764 282.912088 
L 195.006607 284.901834 
L 195.333221 289.626412 
L 195.659835 291.282097 
L 195.98645 289.868787 
L 196.639678 291.09317 
L 196.966292 292.71079 
L 197.292907 295.488 
L 198.272749 295.488 
L 198.599363 293.51144 
L 198.925978 293.02934 
L 199.252592 293.556807 
L 199.579206 295.488 
L 218.849446 295.488 
L 219.17606 293.026345 
L 219.502674 292.438312 
L 219.829288 292.220267 
L 220.155903 295.488 
L 222.442202 295.488 
L 222.768817 289.339234 
L 223.095431 289.002753 
L 223.422045 291.52007 
L 223.748659 295.488 
L 233.220472 295.488 
L 233.547086 288.921899 
L 233.8737 276.016304 
L 234.853543 273.923708 
L 235.506772 275.542269 
L 235.833386 275.957006 
L 236.16 275.217417 
L 236.813228 273.33214 
L 237.139843 273.332843 
L 237.466457 276.382255 
L 237.793071 277.895892 
L 238.119685 280.166181 
L 238.772914 277.425954 
L 239.099528 276.618248 
L 239.752757 273.835989 
L 240.079371 272.625799 
L 240.405985 272.17316 
L 240.732599 276.680763 
L 241.059213 275.833376 
L 241.385828 276.890094 
L 241.712442 276.030547 
L 243.018899 267.186289 
L 243.998742 264.508301 
L 244.65197 273.395697 
L 244.978584 275.158063 
L 245.631813 273.320857 
L 245.958427 268.957476 
L 246.285041 260.76957 
L 246.611655 259.836755 
L 247.264884 257.578056 
L 247.918112 255.687714 
L 248.244727 259.704441 
L 248.571341 258.751539 
L 248.897955 273.459892 
L 249.224569 271.35535 
L 249.551183 252.438067 
L 249.877798 244.697563 
L 250.531026 244.697563 
L 250.85764 250.291587 
L 251.184255 287.525468 
L 251.510869 286.552695 
L 251.837483 295.488 
L 252.164097 284.602993 
L 252.490712 283.626373 
L 252.817326 244.697563 
L 254.123783 244.697563 
L 254.777011 262.635657 
L 255.103625 244.697563 
L 257.389925 244.697563 
L 258.043153 274.834203 
L 258.369768 273.863903 
L 258.696382 273.65953 
L 259.022996 270.400731 
L 259.34961 248.041535 
L 259.676225 244.697563 
L 263.595595 244.697563 
L 263.92221 271.52623 
L 264.248824 278.252992 
L 264.575438 259.768938 
L 264.902052 258.863879 
L 265.228667 244.697563 
L 267.188352 244.697563 
L 267.514966 272.085935 
L 268.821423 268.696035 
L 269.148037 244.697563 
L 272.087565 244.697563 
L 272.41418 253.666099 
L 272.740794 253.024057 
L 273.067408 244.697563 
L 274.700479 244.697563 
L 275.027093 245.381595 
L 275.353708 252.830219 
L 275.680322 254.201625 
L 277.313393 251.614853 
L 279.273078 248.931897 
L 280.90615 247.173774 
L 282.212607 246.134287 
L 284.172292 244.867841 
L 284.498906 244.697563 
L 398.487273 244.697563 
L 398.487273 244.697563 
" clip-path="url(#pdce0336fed)" style="fill: none; stroke: #2ca02c; stroke-width: 1.5; stroke-linecap: square"/>
   </g>
   <g id="line2d_28">
    <path d="M 73.832727 244.697563 
L 157.44597 244.697563 
L 157.772585 242.910459 
L 158.425813 193.907126 
L 158.752427 193.907126 
L 159.079042 244.697563 
L 167.571012 244.697563 
L 167.897626 198.006424 
L 168.22424 244.697563 
L 185.861408 244.697563 
L 186.188023 193.907126 
L 186.514637 193.907126 
L 186.841251 244.697563 
L 249.551183 244.697563 
L 250.204412 242.486261 
L 250.531026 241.51873 
L 250.85764 244.697563 
L 252.490712 244.697563 
L 253.14394 226.46406 
L 253.797168 224.505415 
L 254.123783 233.076756 
L 254.450397 244.697563 
L 254.777011 244.697563 
L 255.103625 241.980014 
L 255.43024 241.000251 
L 255.756854 230.851703 
L 256.410082 223.164191 
L 256.736697 221.42298 
L 257.389925 219.472072 
L 257.716539 244.697563 
L 259.34961 244.697563 
L 259.676225 217.088486 
L 260.002839 216.128848 
L 260.329453 211.542321 
L 260.656067 210.970068 
L 260.982682 218.805823 
L 261.309296 238.488192 
L 261.63591 235.059696 
L 261.962524 209.857661 
L 262.289138 208.919335 
L 262.615753 202.635945 
L 262.942367 201.705056 
L 263.268981 214.149878 
L 263.595595 217.047522 
L 263.92221 244.697563 
L 264.902052 244.697563 
L 265.228667 238.479051 
L 265.555281 212.750468 
L 265.881895 208.039763 
L 266.535123 205.893162 
L 266.861738 205.01909 
L 267.188352 240.445478 
L 267.514966 244.697563 
L 268.821423 244.697563 
L 269.148037 230.012587 
L 269.474652 208.938845 
L 269.801266 208.120506 
L 270.12788 193.907126 
L 270.781108 193.907126 
L 271.107723 194.21952 
L 271.434337 219.036223 
L 271.760951 218.325737 
L 272.087565 225.676942 
L 272.41418 244.697563 
L 272.740794 244.697563 
L 273.067408 243.617374 
L 273.394022 235.74505 
L 273.720637 235.137941 
L 274.047251 233.77308 
L 274.373865 236.235167 
L 274.700479 235.647384 
L 275.027093 244.697563 
L 284.498906 244.686793 
L 285.805363 244.133543 
L 287.765048 243.574866 
L 288.091663 242.472284 
L 289.724734 242.26126 
L 290.051348 242.245147 
L 290.377962 242.755085 
L 290.704577 242.755085 
L 291.031191 242.245147 
L 310.30143 242.245147 
L 310.628045 242.090087 
L 310.954659 241.325985 
L 311.281273 241.325985 
L 311.607887 240.943935 
L 312.58773 240.943935 
L 312.914344 241.13496 
L 313.240958 234.086135 
L 313.894187 210.628976 
L 314.220801 202.469964 
L 314.547415 202.469964 
L 314.87403 200.430211 
L 315.853872 200.430211 
L 316.180487 201.450088 
L 316.833715 231.026506 
L 317.160329 231.026506 
L 317.486943 238.269581 
L 317.813558 237.88753 
L 318.466786 237.88753 
L 318.7934 238.460606 
L 319.120015 238.460606 
L 319.446629 238.651631 
L 319.773243 238.460606 
L 320.099857 238.460606 
L 320.426472 238.078555 
L 320.753086 238.460606 
L 321.0797 238.460606 
L 321.406314 238.842656 
L 321.732928 238.842656 
L 322.059543 239.033682 
L 322.386157 227.966876 
L 322.712771 197.370582 
L 323.039385 193.907126 
L 324.672457 193.907126 
L 325.325685 238.460606 
L 325.652299 238.269581 
L 325.978913 238.269581 
L 326.305528 238.651631 
L 326.632142 222.867494 
L 326.958756 222.867494 
L 327.28537 193.907126 
L 329.245056 193.907126 
L 329.898284 234.086135 
L 330.224898 219.807864 
L 330.551513 193.907126 
L 332.511198 193.907126 
L 332.837812 220.827741 
L 333.164427 237.123429 
L 334.144269 237.123429 
L 334.797498 236.741378 
L 335.450726 236.741378 
L 336.103955 237.123429 
L 336.430569 237.123429 
L 336.757183 237.314454 
L 337.083797 237.123429 
L 337.410412 237.123429 
L 338.06364 236.741378 
L 338.390254 236.741378 
L 338.716868 236.550353 
L 339.370097 236.932403 
L 340.023325 237.88753 
L 340.34994 237.88753 
L 340.676554 238.269581 
L 341.003168 238.460606 
L 341.329782 238.269581 
L 341.656397 237.88753 
L 341.983011 237.314454 
L 342.962853 237.314454 
L 343.289468 237.505479 
L 344.26931 237.505479 
L 344.595925 237.314454 
L 348.84191 237.314454 
L 349.168524 236.932403 
L 349.821752 236.932403 
L 350.148367 236.741378 
L 351.128209 237.314454 
L 351.781438 237.314454 
L 352.108052 237.505479 
L 352.434666 238.078555 
L 352.76128 238.078555 
L 353.087895 238.269581 
L 353.414509 238.269581 
L 353.741123 206.039532 
L 354.067737 207.059409 
L 354.394352 193.907126 
L 358.640337 193.907126 
L 359.293565 225.417185 
L 360.273408 225.417185 
L 360.600022 225.927123 
L 360.926636 225.417185 
L 361.25325 225.927123 
L 361.906479 225.927123 
L 362.233093 224.397309 
L 362.559707 224.397309 
L 362.886322 223.377432 
L 363.53955 222.357556 
L 364.192778 223.377432 
L 364.519393 223.377432 
L 364.846007 224.397309 
L 365.172621 224.397309 
L 365.499235 223.377432 
L 366.152464 222.357556 
L 366.479078 222.357556 
L 366.805692 221.337679 
L 367.132307 219.297926 
L 367.458921 219.297926 
L 367.785535 193.907126 
L 375.950891 193.907126 
L 376.277505 204.267077 
L 376.604119 222.357556 
L 378.23719 222.357556 
L 378.563805 213.818342 
L 378.890419 201.974774 
L 379.217033 198.918369 
L 379.543647 198.154268 
L 380.850104 198.154268 
L 381.176718 197.390166 
L 381.503333 198.154268 
L 381.829947 198.536318 
L 382.156561 199.300419 
L 382.483175 199.300419 
L 382.80979 198.918369 
L 383.136404 197.772217 
L 383.463018 195.861964 
L 383.789632 195.479913 
L 384.116247 195.479913 
L 384.442861 195.861964 
L 385.422703 195.861964 
L 386.075932 195.097863 
L 386.402546 195.097863 
L 386.72916 195.479913 
L 387.055775 196.626065 
L 387.382389 196.626065 
L 387.709003 197.772217 
L 388.035617 206.17733 
L 388.688846 231.010619 
L 389.668688 231.010619 
L 389.995303 232.156771 
L 390.321917 232.156771 
L 390.975145 232.920872 
L 391.30176 232.920872 
L 391.954988 233.302923 
L 392.281602 233.302923 
L 392.608217 233.684973 
L 393.261445 233.684973 
L 393.588059 233.493948 
L 393.914673 233.684973 
L 394.241288 233.684973 
L 394.567902 232.920872 
L 394.894516 233.576197 
L 395.547745 233.576197 
L 395.874359 234.596073 
L 396.200973 234.596073 
L 396.527587 193.907126 
L 398.487273 193.907126 
L 398.487273 193.907126 
" clip-path="url(#pdce0336fed)" style="fill: none; stroke: #d62728; stroke-width: 1.5; stroke-linecap: square"/>
   </g>
   <g id="line2d_29">
    <path d="M 73.832727 244.697563 
L 146.667701 244.697563 
L 146.994315 239.466861 
L 148.300772 238.068591 
L 149.607229 236.380413 
L 150.260457 235.61595 
L 150.587072 236.635826 
L 150.913686 237.123429 
L 155.486285 237.123429 
L 155.812899 237.314454 
L 156.139513 237.314454 
L 156.792742 238.269581 
L 157.119356 238.269581 
L 157.44597 224.907247 
L 157.772585 218.787988 
L 158.425813 168.228556 
L 158.752427 167.438191 
L 159.079042 217.43034 
L 162.01857 209.92252 
L 165.611326 200.099745 
L 167.571012 194.519571 
L 167.897626 146.886697 
L 168.22424 192.633199 
L 175.409753 171.45035 
L 181.288809 154.344668 
L 181.615423 153.515894 
L 181.942038 153.515894 
L 182.268652 154.53577 
L 182.595266 155.045709 
L 184.881566 155.045709 
L 185.20818 156.065585 
L 185.861408 156.065585 
L 186.188023 90.164441 
L 186.514637 89.313197 
L 186.841251 139.258367 
L 188.474322 135.126451 
L 188.800937 144.337006 
L 189.127551 160.655029 
L 189.454165 160.655029 
L 190.107393 158.615276 
L 190.434008 160.145091 
L 190.760622 160.145091 
L 191.087236 160.655029 
L 191.41385 159.635153 
L 191.740465 159.635153 
L 192.393693 161.674906 
L 192.720307 170.853794 
L 193.046922 175.300214 
L 193.70015 173.912009 
L 194.026764 160.655029 
L 195.006607 160.655029 
L 195.333221 164.734535 
L 195.659835 165.754412 
L 195.98645 163.714659 
L 196.639678 163.714659 
L 196.966292 164.734535 
L 197.292907 166.923765 
L 198.272749 165.219339 
L 198.599363 162.694782 
L 198.925978 161.674906 
L 199.252592 161.674906 
L 199.579206 163.089025 
L 201.538892 160.209417 
L 203.498577 157.723587 
L 205.131648 155.963387 
L 206.764719 154.493883 
L 208.39779 153.321043 
L 210.030862 152.449647 
L 211.337318 151.972011 
L 212.643775 151.690875 
L 213.950232 151.606999 
L 215.256689 151.720641 
L 216.563146 152.03155 
L 217.869603 152.538972 
L 218.849446 153.047761 
L 219.17606 150.779993 
L 219.502674 150.397942 
L 219.829288 150.397942 
L 220.155903 153.895751 
L 221.788974 155.22523 
L 222.442202 155.839813 
L 222.768817 150.015892 
L 223.095431 150.015892 
L 223.422045 152.881271 
L 223.748659 157.20879 
L 225.38173 159.177577 
L 227.341416 161.907445 
L 229.301101 165.023221 
L 231.587401 169.122164 
L 233.220472 172.339154 
L 233.547086 166.444068 
L 233.8737 154.218448 
L 234.853543 154.218448 
L 235.833386 158.421005 
L 236.16 158.421005 
L 236.486614 158.038954 
L 236.813228 158.038954 
L 237.139843 158.803056 
L 237.466457 162.623562 
L 238.119685 167.97227 
L 238.4463 167.208169 
L 238.772914 166.826118 
L 239.099528 166.826118 
L 239.426142 166.062017 
L 240.079371 165.297916 
L 240.405985 165.679966 
L 240.732599 171.028675 
L 241.059213 171.028675 
L 241.385828 172.938928 
L 241.712442 172.938928 
L 242.36567 169.500472 
L 242.692285 167.590219 
L 243.998742 167.590219 
L 244.65197 178.287636 
L 244.978584 180.96199 
L 245.631813 180.96199 
L 245.958427 177.523535 
L 246.285041 170.264574 
L 246.611655 170.264574 
L 246.93827 169.882523 
L 247.918112 169.882523 
L 248.244727 174.849181 
L 248.571341 174.849181 
L 248.897955 190.513255 
L 249.224569 189.367104 
L 249.551183 171.410725 
L 249.877798 163.387663 
L 250.531026 163.387663 
L 250.85764 173.129953 
L 251.184255 211.335013 
L 251.510869 211.335013 
L 251.837483 221.244528 
L 252.164097 211.335013 
L 252.490712 211.335013 
L 252.817326 165.297916 
L 253.14394 156.128701 
L 253.797168 156.128701 
L 254.123783 165.679966 
L 254.450397 188.603002 
L 254.777011 197.199141 
L 255.103625 177.523535 
L 255.43024 177.523535 
L 255.756854 168.354321 
L 256.410082 162.623562 
L 256.736697 161.85946 
L 257.389925 161.85946 
L 257.716539 201.210672 
L 258.043153 219.167051 
L 258.369768 219.167051 
L 258.696382 219.931152 
L 259.022996 217.638848 
L 259.34961 196.244014 
L 259.676225 166.253042 
L 260.002839 166.253042 
L 260.329453 162.623562 
L 260.656067 163.005612 
L 260.982682 171.792776 
L 261.309296 192.423508 
L 261.63591 189.94018 
L 261.962524 165.679966 
L 262.289138 165.679966 
L 262.615753 160.331258 
L 262.942367 160.331258 
L 263.268981 173.703029 
L 263.595595 177.523535 
L 263.92221 232.920872 
L 264.248824 240.561884 
L 264.575438 222.987557 
L 264.902052 222.987557 
L 265.555281 178.669687 
L 265.881895 174.849181 
L 266.208509 174.46713 
L 266.861738 174.46713 
L 267.514966 243.265023 
L 268.821423 243.265023 
L 269.148037 205.413229 
L 269.474652 185.164547 
L 269.801266 185.164547 
L 270.12788 171.762653 
L 271.107723 174.46713 
L 271.434337 200.064521 
L 271.760951 200.064521 
L 272.087565 208.087583 
L 272.41418 236.741378 
L 272.740794 236.741378 
L 273.394022 220.695253 
L 273.720637 220.695253 
L 274.047251 219.931152 
L 274.373865 222.987557 
L 274.700479 222.987557 
L 275.353708 241.325985 
L 275.680322 243.265023 
L 287.765048 243.265023 
L 288.091663 242.245147 
L 290.051348 242.245147 
L 290.377962 242.755085 
L 290.704577 242.755085 
L 291.031191 242.245147 
L 310.30143 242.245147 
L 310.628045 242.090087 
L 310.954659 241.325985 
L 311.281273 241.325985 
L 311.607887 240.943935 
L 312.58773 240.943935 
L 312.914344 241.13496 
L 313.240958 234.086135 
L 313.894187 210.628976 
L 314.220801 202.469964 
L 314.547415 202.469964 
L 314.87403 200.430211 
L 315.853872 200.430211 
L 316.180487 201.450088 
L 316.833715 231.026506 
L 317.160329 231.026506 
L 317.486943 238.269581 
L 317.813558 237.88753 
L 318.466786 237.88753 
L 318.7934 238.460606 
L 319.120015 238.460606 
L 319.446629 238.651631 
L 319.773243 238.460606 
L 320.099857 238.460606 
L 320.426472 238.078555 
L 320.753086 238.460606 
L 321.0797 238.460606 
L 321.406314 238.842656 
L 321.732928 238.842656 
L 322.059543 239.033682 
L 322.386157 227.966876 
L 322.712771 197.370582 
L 323.039385 193.907126 
L 324.672457 193.907126 
L 325.325685 238.460606 
L 325.652299 238.269581 
L 325.978913 238.269581 
L 326.305528 238.651631 
L 326.632142 222.867494 
L 326.958756 222.867494 
L 327.28537 193.907126 
L 329.245056 193.907126 
L 329.898284 234.086135 
L 330.224898 219.807864 
L 330.551513 193.907126 
L 332.511198 193.907126 
L 332.837812 220.827741 
L 333.164427 237.123429 
L 334.144269 237.123429 
L 334.797498 236.741378 
L 335.450726 236.741378 
L 336.103955 237.123429 
L 336.430569 237.123429 
L 336.757183 237.314454 
L 337.083797 237.123429 
L 337.410412 237.123429 
L 338.06364 236.741378 
L 338.390254 236.741378 
L 338.716868 236.550353 
L 339.370097 236.932403 
L 340.023325 237.88753 
L 340.34994 237.88753 
L 340.676554 238.269581 
L 341.003168 238.460606 
L 341.329782 238.269581 
L 341.656397 237.88753 
L 341.983011 237.314454 
L 342.962853 237.314454 
L 343.289468 237.505479 
L 344.26931 237.505479 
L 344.595925 237.314454 
L 348.84191 237.314454 
L 349.168524 236.932403 
L 349.821752 236.932403 
L 350.148367 236.741378 
L 351.128209 237.314454 
L 351.781438 237.314454 
L 352.108052 237.505479 
L 352.434666 238.078555 
L 352.76128 238.078555 
L 353.087895 238.269581 
L 353.414509 238.269581 
L 353.741123 206.039532 
L 354.067737 207.059409 
L 354.394352 193.907126 
L 358.640337 193.907126 
L 359.293565 225.417185 
L 360.273408 225.417185 
L 360.600022 225.927123 
L 360.926636 225.417185 
L 361.25325 225.927123 
L 361.906479 225.927123 
L 362.233093 224.397309 
L 362.559707 224.397309 
L 362.886322 223.377432 
L 363.53955 222.357556 
L 364.192778 223.377432 
L 364.519393 223.377432 
L 364.846007 224.397309 
L 365.172621 224.397309 
L 365.499235 223.377432 
L 366.152464 222.357556 
L 366.479078 222.357556 
L 366.805692 221.337679 
L 367.132307 219.297926 
L 367.458921 219.297926 
L 367.785535 193.907126 
L 375.950891 193.907126 
L 376.277505 204.267077 
L 376.604119 222.357556 
L 378.23719 222.357556 
L 378.563805 213.818342 
L 378.890419 201.974774 
L 379.217033 198.918369 
L 379.543647 198.154268 
L 380.850104 198.154268 
L 381.176718 197.390166 
L 381.503333 198.154268 
L 381.829947 198.536318 
L 382.156561 199.300419 
L 382.483175 199.300419 
L 382.80979 198.918369 
L 383.136404 197.772217 
L 383.463018 195.861964 
L 383.789632 195.479913 
L 384.116247 195.479913 
L 384.442861 195.861964 
L 385.422703 195.861964 
L 386.075932 195.097863 
L 386.402546 195.097863 
L 386.72916 195.479913 
L 387.055775 196.626065 
L 387.382389 196.626065 
L 387.709003 197.772217 
L 388.035617 206.17733 
L 388.688846 231.010619 
L 389.668688 231.010619 
L 389.995303 232.156771 
L 390.321917 232.156771 
L 390.975145 232.920872 
L 391.30176 232.920872 
L 391.954988 233.302923 
L 392.281602 233.302923 
L 392.608217 233.684973 
L 393.261445 233.684973 
L 393.588059 233.493948 
L 393.914673 233.684973 
L 394.241288 233.684973 
L 394.567902 232.920872 
L 394.894516 233.576197 
L 395.547745 233.576197 
L 395.874359 234.596073 
L 396.200973 234.596073 
L 396.527587 193.907126 
L 398.487273 193.907126 
L 398.487273 193.907126 
" clip-path="url(#pdce0336fed)" style="fill: none; stroke: #9467bd; stroke-width: 1.5; stroke-linecap: square"/>
   </g>
   <g id="line2d_30">
    <path d="M 73.832727 244.697563 
L 153.199985 244.603355 
L 156.792742 244.314309 
L 157.772585 244.271223 
L 159.73227 244.583537 
L 167.571012 244.583537 
L 168.22424 244.695595 
L 184.228337 244.590421 
L 185.861408 244.445111 
L 186.514637 244.688905 
L 189.127551 244.599741 
L 192.720307 243.749532 
L 195.006607 243.007387 
L 199.579206 241.382974 
L 233.547086 228.782354 
L 243.345513 226.638123 
L 249.877798 225.728665 
L 250.85764 225.728175 
L 252.490712 225.213837 
L 257.063311 225.588921 
L 257.716539 225.617897 
L 259.34961 225.336348 
L 263.92221 226.180766 
L 264.902052 226.030062 
L 265.555281 226.12166 
L 267.188352 226.499222 
L 268.821423 226.190975 
L 269.801266 226.399825 
L 271.434337 226.948251 
L 272.41418 227.035668 
L 273.720637 227.062706 
L 275.353708 227.109795 
L 279.926307 226.897667 
L 286.458592 226.857595 
L 297.236861 227.033849 
L 313.567573 227.419062 
L 315.527258 228.022244 
L 316.833715 228.332169 
L 319.120015 228.459376 
L 322.386157 228.631497 
L 325.325685 229.560959 
L 326.958756 229.711108 
L 329.57167 230.638809 
L 330.224898 230.724012 
L 332.837812 231.634579 
L 353.741123 232.844142 
L 355.04758 233.300165 
L 359.293565 234.76907 
L 367.458921 236.02992 
L 376.604119 239.349893 
L 378.890419 239.794618 
L 387.382389 242.766771 
L 388.362232 243.034031 
L 395.874359 243.685452 
L 396.527587 243.831592 
L 398.487273 244.562974 
L 398.487273 244.562974 
" clip-path="url(#pdce0336fed)" style="fill: none; stroke-dasharray: 5.55,2.4; stroke-dashoffset: 0; stroke: #8c564b; stroke-width: 1.5"/>
   </g>
   <g id="patch_3">
    <path d="M 57.6 307.584 
L 57.6 41.472 
" style="fill: none; stroke: #000000; stroke-width: 0.8; stroke-linejoin: miter; stroke-linecap: square"/>
   </g>
   <g id="patch_4">
    <path d="M 414.72 307.584 
L 414.72 41.472 
" style="fill: none; stroke: #000000; stroke-width: 0.8; stroke-linejoin: miter; stroke-linecap: square"/>
   </g>
   <g id="patch_5">
    <path d="M 57.6 307.584 
L 414.72 307.584 
" style="fill: none; stroke: #000000; stroke-width: 0.8; stroke-linejoin: miter; stroke-linecap: square"/>
   </g>
   <g id="patch_6">
    <path d="M 57.6 41.472 
L 414.72 41.472 
" style="fill: none; stroke: #000000; stroke-width: 0.8; stroke-linejoin: miter; stroke-linecap: square"/>
   </g>
   <g id="text_15">
    <!-- Power characteristics -->
    <g transform="translate(172.148438 35.472) scale(0.12 -0.12)">
     <defs>
      <path id="DejaVuSans-63" d="M 3122 3366 
L 3122 2828 
Q 2878 2963 2633 3030 
Q 2388 3097 2138 3097 
Q 1578 3097 1268 2742 
Q 959 2388 959 1747 
Q 959 1106 1268 751 
Q 1578 397 2138 397 
Q 2388 397 2633 464 
Q 2878 531 3122 666 
L 3122 134 
Q 2881 22 2623 -34 
Q 2366 -91 2075 -91 
Q 1284 -91 818 406 
Q 353 903 353 1747 
Q 353 2603 823 3093 
Q 1294 3584 2113 3584 
Q 2378 3584 2631 3529 
Q 2884 3475 3122 3366 
z
" transform="scale(0.015625)"/>
      <path id="DejaVuSans-68" d="M 3513 2113 
L 3513 0 
L 2938 0 
L 2938 2094 
Q 2938 2591 2744 2837 
Q 2550 3084 2163 3084 
Q 1697 3084 1428 2787 
Q 1159 2491 1159 1978 
L 1159 0 
L 581 0 
L 581 4863 
L 1159 4863 
L 1159 2956 
Q 1366 3272 1645 3428 
Q 1925 3584 2291 3584 
Q 2894 3584 3203 3211 
Q 3513 2838 3513 2113 
z
" transform="scale(0.015625)"/>
      <path id="DejaVuSans-74" d="M 1172 4494 
L 1172 3500 
L 2356 3500 
L 2356 3053 
L 1172 3053 
L 1172 1153 
Q 1172 725 1289 603 
Q 1406 481 1766 481 
L 2356 481 
L 2356 0 
L 1766 0 
Q 1100 0 847 248 
Q 594 497 594 1153 
L 594 3053 
L 172 3053 
L 172 3500 
L 594 3500 
L 594 4494 
L 1172 4494 
z
" transform="scale(0.015625)"/>
      <path id="DejaVuSans-73" d="M 2834 3397 
L 2834 2853 
Q 2591 2978 2328 3040 
Q 2066 3103 1784 3103 
Q 1356 3103 1142 2972 
Q 928 2841 928 2578 
Q 928 2378 1081 2264 
Q 1234 2150 1697 2047 
L 1894 2003 
Q 2506 1872 2764 1633 
Q 3022 1394 3022 966 
Q 3022 478 2636 193 
Q 2250 -91 1575 -91 
Q 1294 -91 989 -36 
Q 684 19 347 128 
L 347 722 
Q 666 556 975 473 
Q 1284 391 1588 391 
Q 1994 391 2212 530 
Q 2431 669 2431 922 
Q 2431 1156 2273 1281 
Q 2116 1406 1581 1522 
L 1381 1569 
Q 847 1681 609 1914 
Q 372 2147 372 2553 
Q 372 3047 722 3315 
Q 1072 3584 1716 3584 
Q 2034 3584 2315 3537 
Q 2597 3491 2834 3397 
z
" transform="scale(0.015625)"/>
     </defs>
     <use xlink:href="#DejaVuSans-50"/>
     <use xlink:href="#DejaVuSans-6f" x="56.677734"/>
     <use xlink:href="#DejaVuSans-77" x="117.859375"/>
     <use xlink:href="#DejaVuSans-65" x="199.646484"/>
     <use xlink:href="#DejaVuSans-72" x="261.169922"/>
     <use xlink:href="#DejaVuSans-20" x="302.283203"/>
     <use xlink:href="#DejaVuSans-63" x="334.070312"/>
     <use xlink:href="#DejaVuSans-68" x="389.050781"/>
     <use xlink:href="#DejaVuSans-61" x="452.429688"/>
     <use xlink:href="#DejaVuSans-72" x="513.708984"/>
     <use xlink:href="#DejaVuSans-61" x="554.822266"/>
     <use xlink:href="#DejaVuSans-63" x="616.101562"/>
     <use xlink:href="#DejaVuSans-74" x="671.082031"/>
     <use xlink:href="#DejaVuSans-65" x="710.291016"/>
     <use xlink:href="#DejaVuSans-72" x="771.814453"/>
     <use xlink:href="#DejaVuSans-69" x="812.927734"/>
     <use xlink:href="#DejaVuSans-73" x="840.710938"/>
     <use xlink:href="#DejaVuSans-74" x="892.810547"/>
     <use xlink:href="#DejaVuSans-69" x="932.019531"/>
     <use xlink:href="#DejaVuSans-63" x="959.802734"/>
     <use xlink:href="#DejaVuSans-73" x="1014.783203"/>
    </g>
   </g>
   <g id="legend_1">
    <g id="patch_7">
     <path d="M 259.140312 137.54075 
L 407.72 137.54075 
Q 409.72 137.54075 409.72 135.54075 
L 409.72 48.472 
Q 409.72 46.472 407.72 46.472 
L 259.140312 46.472 
Q 257.140312 46.472 257.140312 48.472 
L 257.140312 135.54075 
Q 257.140312 137.54075 259.140312 137.54075 
z
" style="fill: #ffffff; opacity: 0.8; stroke: #cccccc; stroke-linejoin: miter"/>
    </g>
    <g id="line2d_31">
     <path d="M 261.140312 54.570438 
L 271.140312 54.570438 
L 281.140312 54.570438 
" style="fill: none; stroke: #1f77b4; stroke-opacity: 0.5; stroke-width: 1.5; stroke-linecap: square"/>
    </g>
    <g id="text_16">
     <!-- Demand curve -->
     <g transform="translate(289.140312 58.070438) scale(0.1 -0.1)">
      <defs>
       <path id="DejaVuSans-44" d="M 1259 4147 
L 1259 519 
L 2022 519 
Q 2988 519 3436 956 
Q 3884 1394 3884 2338 
Q 3884 3275 3436 3711 
Q 2988 4147 2022 4147 
L 1259 4147 
z
M 628 4666 
L 1925 4666 
Q 3281 4666 3915 4102 
Q 4550 3538 4550 2338 
Q 4550 1131 3912 565 
Q 3275 0 1925 0 
L 628 0 
L 628 4666 
z
" transform="scale(0.015625)"/>
       <path id="DejaVuSans-6e" d="M 3513 2113 
L 3513 0 
L 2938 0 
L 2938 2094 
Q 2938 2591 2744 2837 
Q 2550 3084 2163 3084 
Q 1697 3084 1428 2787 
Q 1159 2491 1159 1978 
L 1159 0 
L 581 0 
L 581 3500 
L 1159 3500 
L 1159 2956 
Q 1366 3272 1645 3428 
Q 1925 3584 2291 3584 
Q 2894 3584 3203 3211 
Q 3513 2838 3513 2113 
z
" transform="scale(0.015625)"/>
       <path id="DejaVuSans-75" d="M 544 1381 
L 544 3500 
L 1119 3500 
L 1119 1403 
Q 1119 906 1312 657 
Q 1506 409 1894 409 
Q 2359 409 2629 706 
Q 2900 1003 2900 1516 
L 2900 3500 
L 3475 3500 
L 3475 0 
L 2900 0 
L 2900 538 
Q 2691 219 2414 64 
Q 2138 -91 1772 -91 
Q 1169 -91 856 284 
Q 544 659 544 1381 
z
M 1991 3584 
L 1991 3584 
z
" transform="scale(0.015625)"/>
       <path id="DejaVuSans-76" d="M 191 3500 
L 800 3500 
L 1894 563 
L 2988 3500 
L 3597 3500 
L 2284 0 
L 1503 0 
L 191 3500 
z
" transform="scale(0.015625)"/>
      </defs>
      <use xlink:href="#DejaVuSans-44"/>
      <use xlink:href="#DejaVuSans-65" x="77.001953"/>
      <use xlink:href="#DejaVuSans-6d" x="138.525391"/>
      <use xlink:href="#DejaVuSans-61" x="235.9375"/>
      <use xlink:href="#DejaVuSans-6e" x="297.216797"/>
      <use xlink:href="#DejaVuSans-64" x="360.595703"/>
      <use xlink:href="#DejaVuSans-20" x="424.072266"/>
      <use xlink:href="#DejaVuSans-63" x="455.859375"/>
      <use xlink:href="#DejaVuSans-75" x="510.839844"/>
      <use xlink:href="#DejaVuSans-72" x="574.21875"/>
      <use xlink:href="#DejaVuSans-76" x="615.332031"/>
      <use xlink:href="#DejaVuSans-65" x="674.511719"/>
     </g>
    </g>
    <g id="line2d_32">
     <path d="M 261.140312 69.248563 
L 271.140312 69.248563 
L 281.140312 69.248563 
" style="fill: none; stroke: #ff7f0e; stroke-width: 1.5; stroke-linecap: square"/>
    </g>
    <g id="text_17">
     <!-- PV production curve -->
     <g transform="translate(289.140312 72.748563) scale(0.1 -0.1)">
      <defs>
       <path id="DejaVuSans-56" d="M 1831 0 
L 50 4666 
L 709 4666 
L 2188 738 
L 3669 4666 
L 4325 4666 
L 2547 0 
L 1831 0 
z
" transform="scale(0.015625)"/>
       <path id="DejaVuSans-70" d="M 1159 525 
L 1159 -1331 
L 581 -1331 
L 581 3500 
L 1159 3500 
L 1159 2969 
Q 1341 3281 1617 3432 
Q 1894 3584 2278 3584 
Q 2916 3584 3314 3078 
Q 3713 2572 3713 1747 
Q 3713 922 3314 415 
Q 2916 -91 2278 -91 
Q 1894 -91 1617 61 
Q 1341 213 1159 525 
z
M 3116 1747 
Q 3116 2381 2855 2742 
Q 2594 3103 2138 3103 
Q 1681 3103 1420 2742 
Q 1159 2381 1159 1747 
Q 1159 1113 1420 752 
Q 1681 391 2138 391 
Q 2594 391 2855 752 
Q 3116 1113 3116 1747 
z
" transform="scale(0.015625)"/>
      </defs>
      <use xlink:href="#DejaVuSans-50"/>
      <use xlink:href="#DejaVuSans-56" x="60.302734"/>
      <use xlink:href="#DejaVuSans-20" x="128.710938"/>
      <use xlink:href="#DejaVuSans-70" x="160.498047"/>
      <use xlink:href="#DejaVuSans-72" x="223.974609"/>
      <use xlink:href="#DejaVuSans-6f" x="262.837891"/>
      <use xlink:href="#DejaVuSans-64" x="324.019531"/>
      <use xlink:href="#DejaVuSans-75" x="387.496094"/>
      <use xlink:href="#DejaVuSans-63" x="450.875"/>
      <use xlink:href="#DejaVuSans-74" x="505.855469"/>
      <use xlink:href="#DejaVuSans-69" x="545.064453"/>
      <use xlink:href="#DejaVuSans-6f" x="572.847656"/>
      <use xlink:href="#DejaVuSans-6e" x="634.029297"/>
      <use xlink:href="#DejaVuSans-20" x="697.408203"/>
      <use xlink:href="#DejaVuSans-63" x="729.195312"/>
      <use xlink:href="#DejaVuSans-75" x="784.175781"/>
      <use xlink:href="#DejaVuSans-72" x="847.554688"/>
      <use xlink:href="#DejaVuSans-76" x="888.667969"/>
      <use xlink:href="#DejaVuSans-65" x="947.847656"/>
     </g>
    </g>
    <g id="line2d_33">
     <path d="M 261.140312 83.926688 
L 271.140312 83.926688 
L 281.140312 83.926688 
" style="fill: none; stroke: #2ca02c; stroke-width: 1.5; stroke-linecap: square"/>
    </g>
    <g id="text_18">
     <!-- Battery stored power -->
     <g transform="translate(289.140312 87.426688) scale(0.1 -0.1)">
      <defs>
       <path id="DejaVuSans-42" d="M 1259 2228 
L 1259 519 
L 2272 519 
Q 2781 519 3026 730 
Q 3272 941 3272 1375 
Q 3272 1813 3026 2020 
Q 2781 2228 2272 2228 
L 1259 2228 
z
M 1259 4147 
L 1259 2741 
L 2194 2741 
Q 2656 2741 2882 2914 
Q 3109 3088 3109 3444 
Q 3109 3797 2882 3972 
Q 2656 4147 2194 4147 
L 1259 4147 
z
M 628 4666 
L 2241 4666 
Q 2963 4666 3353 4366 
Q 3744 4066 3744 3513 
Q 3744 3084 3544 2831 
Q 3344 2578 2956 2516 
Q 3422 2416 3680 2098 
Q 3938 1781 3938 1306 
Q 3938 681 3513 340 
Q 3088 0 2303 0 
L 628 0 
L 628 4666 
z
" transform="scale(0.015625)"/>
      </defs>
      <use xlink:href="#DejaVuSans-42"/>
      <use xlink:href="#DejaVuSans-61" x="68.603516"/>
      <use xlink:href="#DejaVuSans-74" x="129.882812"/>
      <use xlink:href="#DejaVuSans-74" x="169.091797"/>
      <use xlink:href="#DejaVuSans-65" x="208.300781"/>
      <use xlink:href="#DejaVuSans-72" x="269.824219"/>
      <use xlink:href="#DejaVuSans-79" x="310.9375"/>
      <use xlink:href="#DejaVuSans-20" x="370.117188"/>
      <use xlink:href="#DejaVuSans-73" x="401.904297"/>
      <use xlink:href="#DejaVuSans-74" x="454.003906"/>
      <use xlink:href="#DejaVuSans-6f" x="493.212891"/>
      <use xlink:href="#DejaVuSans-72" x="554.394531"/>
      <use xlink:href="#DejaVuSans-65" x="593.257812"/>
      <use xlink:href="#DejaVuSans-64" x="654.78125"/>
      <use xlink:href="#DejaVuSans-20" x="718.257812"/>
      <use xlink:href="#DejaVuSans-70" x="750.044922"/>
      <use xlink:href="#DejaVuSans-6f" x="813.521484"/>
      <use xlink:href="#DejaVuSans-77" x="874.703125"/>
      <use xlink:href="#DejaVuSans-65" x="956.490234"/>
      <use xlink:href="#DejaVuSans-72" x="1018.013672"/>
     </g>
    </g>
    <g id="line2d_34">
     <path d="M 261.140312 98.604813 
L 271.140312 98.604813 
L 281.140312 98.604813 
" style="fill: none; stroke: #d62728; stroke-width: 1.5; stroke-linecap: square"/>
    </g>
    <g id="text_19">
     <!-- Battery supplied power -->
     <g transform="translate(289.140312 102.104813) scale(0.1 -0.1)">
      <defs>
       <path id="DejaVuSans-6c" d="M 603 4863 
L 1178 4863 
L 1178 0 
L 603 0 
L 603 4863 
z
" transform="scale(0.015625)"/>
      </defs>
      <use xlink:href="#DejaVuSans-42"/>
      <use xlink:href="#DejaVuSans-61" x="68.603516"/>
      <use xlink:href="#DejaVuSans-74" x="129.882812"/>
      <use xlink:href="#DejaVuSans-74" x="169.091797"/>
      <use xlink:href="#DejaVuSans-65" x="208.300781"/>
      <use xlink:href="#DejaVuSans-72" x="269.824219"/>
      <use xlink:href="#DejaVuSans-79" x="310.9375"/>
      <use xlink:href="#DejaVuSans-20" x="370.117188"/>
      <use xlink:href="#DejaVuSans-73" x="401.904297"/>
      <use xlink:href="#DejaVuSans-75" x="454.003906"/>
      <use xlink:href="#DejaVuSans-70" x="517.382812"/>
      <use xlink:href="#DejaVuSans-70" x="580.859375"/>
      <use xlink:href="#DejaVuSans-6c" x="644.335938"/>
      <use xlink:href="#DejaVuSans-69" x="672.119141"/>
      <use xlink:href="#DejaVuSans-65" x="699.902344"/>
      <use xlink:href="#DejaVuSans-64" x="761.425781"/>
      <use xlink:href="#DejaVuSans-20" x="824.902344"/>
      <use xlink:href="#DejaVuSans-70" x="856.689453"/>
      <use xlink:href="#DejaVuSans-6f" x="920.166016"/>
      <use xlink:href="#DejaVuSans-77" x="981.347656"/>
      <use xlink:href="#DejaVuSans-65" x="1063.134766"/>
      <use xlink:href="#DejaVuSans-72" x="1124.658203"/>
     </g>
    </g>
    <g id="line2d_35">
     <path d="M 261.140312 113.282938 
L 271.140312 113.282938 
L 281.140312 113.282938 
" style="fill: none; stroke: #9467bd; stroke-width: 1.5; stroke-linecap: square"/>
    </g>
    <g id="text_20">
     <!-- Total supplied power -->
     <g transform="translate(289.140312 116.782938) scale(0.1 -0.1)">
      <use xlink:href="#DejaVuSans-54"/>
      <use xlink:href="#DejaVuSans-6f" x="44.083984"/>
      <use xlink:href="#DejaVuSans-74" x="105.265625"/>
      <use xlink:href="#DejaVuSans-61" x="144.474609"/>
      <use xlink:href="#DejaVuSans-6c" x="205.753906"/>
      <use xlink:href="#DejaVuSans-20" x="233.537109"/>
      <use xlink:href="#DejaVuSans-73" x="265.324219"/>
      <use xlink:href="#DejaVuSans-75" x="317.423828"/>
      <use xlink:href="#DejaVuSans-70" x="380.802734"/>
      <use xlink:href="#DejaVuSans-70" x="444.279297"/>
      <use xlink:href="#DejaVuSans-6c" x="507.755859"/>
      <use xlink:href="#DejaVuSans-69" x="535.539062"/>
      <use xlink:href="#DejaVuSans-65" x="563.322266"/>
      <use xlink:href="#DejaVuSans-64" x="624.845703"/>
      <use xlink:href="#DejaVuSans-20" x="688.322266"/>
      <use xlink:href="#DejaVuSans-70" x="720.109375"/>
      <use xlink:href="#DejaVuSans-6f" x="783.585938"/>
      <use xlink:href="#DejaVuSans-77" x="844.767578"/>
      <use xlink:href="#DejaVuSans-65" x="926.554688"/>
      <use xlink:href="#DejaVuSans-72" x="988.078125"/>
     </g>
    </g>
    <g id="line2d_36">
     <path d="M 261.140312 127.961063 
L 271.140312 127.961063 
L 281.140312 127.961063 
" style="fill: none; stroke-dasharray: 5.55,2.4; stroke-dashoffset: 0; stroke: #8c564b; stroke-width: 1.5"/>
    </g>
    <g id="text_21">
     <!-- Battery charge [hWh] -->
     <g transform="translate(289.140312 131.461063) scale(0.1 -0.1)">
      <defs>
       <path id="DejaVuSans-67" d="M 2906 1791 
Q 2906 2416 2648 2759 
Q 2391 3103 1925 3103 
Q 1463 3103 1205 2759 
Q 947 2416 947 1791 
Q 947 1169 1205 825 
Q 1463 481 1925 481 
Q 2391 481 2648 825 
Q 2906 1169 2906 1791 
z
M 3481 434 
Q 3481 -459 3084 -895 
Q 2688 -1331 1869 -1331 
Q 1566 -1331 1297 -1286 
Q 1028 -1241 775 -1147 
L 775 -588 
Q 1028 -725 1275 -790 
Q 1522 -856 1778 -856 
Q 2344 -856 2625 -561 
Q 2906 -266 2906 331 
L 2906 616 
Q 2728 306 2450 153 
Q 2172 0 1784 0 
Q 1141 0 747 490 
Q 353 981 353 1791 
Q 353 2603 747 3093 
Q 1141 3584 1784 3584 
Q 2172 3584 2450 3431 
Q 2728 3278 2906 2969 
L 2906 3500 
L 3481 3500 
L 3481 434 
z
" transform="scale(0.015625)"/>
      </defs>
      <use xlink:href="#DejaVuSans-42"/>
      <use xlink:href="#DejaVuSans-61" x="68.603516"/>
      <use xlink:href="#DejaVuSans-74" x="129.882812"/>
      <use xlink:href="#DejaVuSans-74" x="169.091797"/>
      <use xlink:href="#DejaVuSans-65" x="208.300781"/>
      <use xlink:href="#DejaVuSans-72" x="269.824219"/>
      <use xlink:href="#DejaVuSans-79" x="310.9375"/>
      <use xlink:href="#DejaVuSans-20" x="370.117188"/>
      <use xlink:href="#DejaVuSans-63" x="401.904297"/>
      <use xlink:href="#DejaVuSans-68" x="456.884766"/>
      <use xlink:href="#DejaVuSans-61" x="520.263672"/>
      <use xlink:href="#DejaVuSans-72" x="581.542969"/>
      <use xlink:href="#DejaVuSans-67" x="620.90625"/>
      <use xlink:href="#DejaVuSans-65" x="684.382812"/>
      <use xlink:href="#DejaVuSans-20" x="745.90625"/>
      <use xlink:href="#DejaVuSans-5b" x="777.693359"/>
      <use xlink:href="#DejaVuSans-68" x="816.707031"/>
      <use xlink:href="#DejaVuSans-57" x="880.085938"/>
      <use xlink:href="#DejaVuSans-68" x="978.962891"/>
      <use xlink:href="#DejaVuSans-5d" x="1042.341797"/>
     </g>
    </g>
   </g>
  </g>
 </g>
 <defs>
  <clipPath id="pdce0336fed">
   <rect x="57.6" y="41.472" width="357.12" height="266.112"/>
  </clipPath>
 </defs>
</svg>
